{"glyphs":{"0":{"ha":638,"x_min":0,"x_max":0,"o":"m 583 446 b 536 136 583 344 578 232 b 318 -22 479 4 382 -22 b 97 140 264 -22 157 -3 b 53 446 54 246 53 367 b 114 788 53 554 58 683 b 318 918 167 888 251 918 b 524 786 390 918 472 883 b 583 446 582 675 583 531 m 494 461 b 475 744 494 572 493 665 b 318 896 449 858 375 896 b 160 742 264 896 186 860 b 142 461 142 657 142 568 b 157 182 142 383 142 264 b 318 0 176 76 229 0 b 478 178 367 0 449 26 b 494 461 494 260 494 371 "},"1":{"ha":638,"x_min":0,"x_max":0,"o":"m 331 3 l 128 0 l 128 36 l 169 36 b 292 101 289 36 292 53 l 292 833 b 121 792 236 800 164 792 b 122 826 121 821 121 824 b 135 829 124 829 131 829 b 349 918 213 832 294 853 b 369 888 368 918 369 917 l 369 101 b 492 36 369 51 372 36 l 533 36 l 533 0 "},"2":{"ha":638,"x_min":0,"x_max":0,"o":"m 546 0 l 57 0 l 57 32 l 333 344 b 483 660 413 435 483 539 b 283 882 483 786 404 882 b 92 706 199 882 118 824 b 114 710 97 708 106 710 b 169 654 133 710 169 697 b 114 597 169 606 128 597 b 57 658 97 597 57 604 b 303 918 57 783 150 918 b 579 660 449 918 579 824 b 396 347 579 522 481 428 l 131 81 l 397 81 b 524 92 417 81 517 81 b 554 215 529 100 540 117 l 579 215 "},"3":{"ha":638,"x_min":0,"x_max":0,"o":"m 590 240 b 318 -22 590 99 472 -22 b 46 206 171 -22 46 78 b 106 268 46 257 82 268 b 164 210 133 268 164 250 b 106 151 164 174 139 151 b 85 154 99 151 92 151 b 315 11 122 47 242 11 b 485 242 396 11 485 75 b 307 472 485 365 431 472 l 239 472 b 210 483 211 472 210 474 b 225 496 210 493 215 494 b 269 499 231 496 263 499 b 404 560 315 503 363 506 b 457 729 451 621 457 690 b 317 886 457 863 365 886 b 118 778 268 886 158 869 b 136 781 124 781 131 781 b 190 726 165 781 190 763 b 136 672 190 690 165 672 b 82 729 118 672 82 681 b 319 918 82 840 193 918 b 554 731 444 918 554 839 b 347 488 554 604 453 510 b 590 240 479 472 590 375 "},"4":{"ha":638,"x_min":0,"x_max":0,"o":"m 467 236 l 467 100 b 567 36 467 50 469 36 l 593 36 l 593 0 b 426 3 549 3 474 3 b 260 0 379 3 304 3 l 260 36 l 286 36 b 386 100 383 36 386 50 l 386 236 l 28 236 l 28 272 l 440 929 b 467 899 465 929 467 928 l 467 272 l 608 272 l 608 236 m 390 807 l 56 272 l 390 272 "},"5":{"ha":638,"x_min":0,"x_max":0,"o":"m 579 281 b 300 -22 579 101 443 -22 b 57 225 153 -22 57 104 b 110 283 57 264 78 283 b 163 231 136 283 163 268 b 110 178 163 188 128 178 b 88 182 104 178 93 181 b 297 11 113 75 206 11 b 446 97 357 11 411 40 b 488 286 488 161 488 242 b 335 554 488 524 383 554 b 160 465 265 554 204 528 b 143 453 153 456 150 453 b 129 485 129 453 129 460 l 129 888 b 138 917 129 915 131 917 b 157 910 138 917 142 917 b 329 874 225 879 288 874 b 504 911 399 874 456 890 b 519 917 515 917 519 917 b 528 899 528 917 528 910 b 288 789 488 858 417 789 b 158 813 229 789 172 807 l 158 500 b 336 576 206 550 265 576 b 579 281 471 576 579 447 "},"6":{"ha":638,"x_min":0,"x_max":0,"o":"m 583 285 b 321 -22 583 99 456 -22 b 53 439 210 -22 53 61 b 392 918 53 746 226 918 b 557 781 488 918 557 868 b 507 728 557 733 519 728 b 457 778 488 728 457 740 b 521 826 457 826 499 826 b 393 886 493 881 422 886 b 147 479 303 886 147 811 l 147 432 b 329 585 182 529 244 585 b 583 285 471 585 583 458 m 489 286 b 464 467 489 356 489 413 b 326 563 418 563 350 563 b 150 318 197 563 150 418 b 321 11 150 267 150 11 b 460 100 385 11 429 43 b 489 286 489 156 489 211 "},"7":{"ha":638,"x_min":0,"x_max":0,"o":"m 435 581 b 332 107 371 485 332 335 l 332 43 b 282 -22 332 25 332 -22 b 232 42 232 -22 232 25 b 406 586 232 224 303 432 l 560 815 l 254 815 b 119 804 231 815 128 815 b 89 681 103 778 93 707 l 64 681 l 104 940 l 129 940 b 300 896 135 914 138 896 l 626 896 l 626 865 "},"8":{"ha":638,"x_min":0,"x_max":0,"o":"m 590 226 b 317 -22 590 85 465 -22 b 46 210 182 -22 46 67 b 254 471 46 363 192 439 b 144 553 217 497 158 539 b 82 700 90 606 82 665 b 319 918 82 826 193 918 b 554 718 432 918 554 844 b 378 500 554 611 465 544 b 450 449 419 469 431 463 b 590 226 506 411 590 353 m 507 718 b 317 886 507 808 426 886 b 129 738 217 886 129 822 b 196 622 129 672 185 629 l 342 524 b 356 515 353 515 356 515 b 507 718 363 515 507 589 m 539 192 b 451 338 539 276 472 322 l 278 456 b 97 211 182 413 97 321 b 319 11 97 101 193 11 b 539 192 436 11 539 89 "},"9":{"ha":638,"x_min":0,"x_max":0,"o":"m 583 458 b 261 -22 583 153 421 -22 b 79 115 161 -22 79 21 b 129 168 79 163 117 168 b 179 118 149 168 179 156 b 117 69 179 83 153 64 b 258 11 149 15 226 11 b 489 411 363 11 489 106 l 489 465 b 307 311 475 419 424 311 b 53 611 165 311 53 439 b 322 918 53 797 185 918 b 583 458 428 918 583 839 m 486 579 b 322 886 486 635 486 886 b 186 810 242 886 206 839 b 147 610 147 749 147 692 b 176 424 147 542 147 478 b 310 333 219 340 272 333 b 486 579 442 333 486 481 "},"A":{"ha":963,"x_min":0,"x_max":0,"o":"m 929 0 b 790 3 896 3 826 3 b 635 0 747 3 675 3 l 635 36 b 721 74 661 36 721 36 b 714 99 721 79 721 82 l 631 335 l 267 335 l 193 128 b 188 100 190 119 188 113 b 263 36 188 83 197 39 l 263 0 b 139 3 229 3 174 3 b 32 0 113 3 57 3 l 32 36 b 163 126 81 36 136 51 l 457 960 b 481 982 464 978 467 982 b 504 960 494 982 497 978 l 813 88 b 929 36 831 36 856 36 l 929 0 m 449 849 l 279 371 l 618 371 "},"a":{"ha":638,"x_min":0,"x_max":0,"o":"m 624 124 b 521 -6 624 14 550 -6 b 418 111 460 -6 421 50 b 240 -11 388 32 317 -11 b 42 126 167 -11 42 19 b 154 297 42 179 67 249 b 413 353 232 339 331 350 l 413 414 b 267 592 413 531 336 592 b 114 479 218 592 143 567 b 131 482 118 481 125 482 b 181 432 154 482 181 467 b 131 382 181 393 149 382 b 81 436 122 382 81 385 b 269 614 81 528 160 614 b 428 554 317 614 376 600 b 486 360 486 500 486 451 l 486 160 b 543 26 486 99 486 26 b 599 122 561 26 599 38 l 599 201 l 624 201 l 624 124 m 413 332 b 225 286 368 329 292 324 b 126 126 144 242 126 168 b 250 11 126 63 181 11 b 413 193 326 11 413 72 "},"&":{"ha":1000,"x_min":0,"x_max":0,"o":"m 942 561 b 821 519 872 560 840 536 b 735 386 800 501 761 432 b 572 135 643 221 599 167 b 756 14 606 96 674 14 b 910 168 817 14 907 60 l 935 168 b 750 -22 932 53 849 -22 b 525 85 639 -22 563 50 b 283 -22 497 58 414 -22 b 46 178 153 -22 46 64 b 93 297 46 224 63 263 l 265 497 b 213 776 224 618 213 706 b 379 986 213 911 297 986 b 488 817 469 986 488 872 b 329 538 488 772 472 710 b 556 156 397 358 535 182 b 674 328 604 210 653 292 b 765 504 733 428 765 482 b 682 561 765 542 728 561 l 682 597 b 829 594 722 594 788 594 b 942 597 857 594 915 594 l 942 561 m 463 818 b 381 964 463 839 458 964 b 279 803 336 964 279 925 b 321 564 279 728 294 636 b 463 818 438 700 463 769 m 507 104 b 275 474 442 179 343 319 l 189 375 b 135 219 153 333 135 276 b 296 14 135 129 183 14 b 507 104 364 14 439 40 "},"^":{"ha":772,"x_min":0,"x_max":0,"o":"m 763 781 l 385 951 l 8 781 l -7 811 l 386 1033 l 779 811 "},"~":{"ha":772,"x_min":0,"x_max":0,"o":"m 696 342 b 617 293 672 322 644 307 b 515 268 586 279 550 268 b 376 315 460 268 417 292 b 232 367 328 343 288 367 b 19 268 161 367 88 325 l 0 292 l 75 353 b 154 401 99 372 126 388 b 256 426 185 415 221 426 b 394 379 311 426 354 403 b 539 328 443 351 483 328 b 751 426 610 328 683 369 l 771 403 "},"*":{"ha":638,"x_min":0,"x_max":0,"o":"m 558 608 b 529 579 558 596 549 579 b 504 592 522 579 519 579 l 329 721 l 344 492 l 346 471 b 318 443 346 456 335 443 b 289 469 300 443 290 457 l 307 721 l 115 579 b 78 608 107 579 78 579 b 101 636 78 624 85 626 l 297 742 l 101 846 b 78 875 86 854 78 860 b 107 904 78 888 88 904 b 132 892 114 904 117 904 l 307 763 l 290 1014 b 318 1040 290 1026 301 1040 b 347 1013 333 1040 344 1029 l 329 763 l 521 904 b 558 875 529 904 558 904 b 535 847 558 860 551 857 l 339 742 l 535 638 b 558 608 550 629 558 624 "},"@":{"ha":1000,"x_min":0,"x_max":0,"o":"m 935 464 b 804 182 935 315 919 182 b 685 296 750 182 686 218 b 499 182 660 253 594 182 b 239 482 367 182 239 304 b 499 782 239 660 365 782 b 682 674 551 782 624 760 b 692 663 689 664 692 663 l 731 663 b 760 635 758 663 760 661 l 760 299 b 810 204 760 261 765 204 b 910 458 907 204 910 354 b 786 819 910 590 875 722 b 499 953 697 913 599 953 b 89 482 278 953 89 746 b 506 11 89 235 260 11 b 871 99 686 11 821 75 b 904 103 878 103 881 103 b 933 94 932 103 933 101 b 507 -11 933 83 733 -11 b 64 482 249 -11 64 217 b 500 975 64 765 267 975 b 935 464 693 975 935 813 m 686 588 b 625 706 686 633 658 674 b 500 760 603 726 558 760 b 313 482 397 760 313 636 b 500 204 313 328 397 204 b 669 319 560 204 626 240 b 686 376 686 349 686 350 "},"B":{"ha":908,"x_min":0,"x_max":0,"o":"m 843 253 b 550 0 843 126 728 0 l 72 0 l 72 36 b 183 99 168 36 183 36 l 183 850 b 72 913 183 913 168 913 l 72 949 l 514 949 b 807 715 693 949 807 831 b 581 494 807 610 714 521 b 843 253 729 485 843 378 m 706 715 b 507 913 706 801 644 913 l 329 913 b 271 858 274 913 271 906 l 271 504 l 471 504 b 706 715 621 504 706 610 m 740 254 b 528 482 740 356 671 482 l 271 482 l 271 90 b 329 36 271 43 274 36 l 510 36 b 740 254 661 36 740 153 "},"b":{"ha":710,"x_min":0,"x_max":0,"o":"m 663 300 b 383 -11 663 111 522 -11 b 203 99 303 -11 243 33 l 163 0 l 138 0 l 138 838 b 43 913 138 904 125 913 l 43 949 l 208 964 l 208 508 b 397 608 250 563 311 608 b 663 300 538 608 663 478 m 574 301 b 389 586 574 564 431 586 b 231 496 363 586 285 579 b 211 438 211 467 211 463 l 211 163 b 226 108 211 138 211 135 b 376 11 271 28 333 11 b 574 301 410 11 574 26 "},"\\":{"ha":694,"x_min":0,"x_max":0,"o":"m 615 -319 b 588 -347 615 -335 603 -347 b 557 -317 568 -347 563 -332 l 85 989 b 78 1014 78 1007 78 1014 b 106 1042 78 1029 90 1042 b 136 1011 125 1042 131 1026 l 608 -294 b 615 -319 615 -312 615 -319 "},"|":{"ha":386,"x_min":0,"x_max":0,"o":"m 221 -301 b 193 -347 221 -321 221 -347 b 165 -301 165 -347 165 -321 l 165 996 b 193 1042 165 1015 165 1042 b 221 996 221 1042 221 1015 l 221 -301 "},"{":{"ha":694,"x_min":0,"x_max":0,"o":"m 593 -332 b 565 -347 593 -347 582 -347 b 372 -294 522 -347 432 -336 b 300 -115 300 -243 300 -196 l 300 160 b 122 332 300 299 182 328 b 100 347 108 333 100 333 b 119 363 100 361 110 363 b 264 425 207 368 244 406 b 300 617 300 464 300 486 l 300 871 b 565 1042 303 971 426 1042 b 593 1026 582 1042 593 1042 b 581 1011 593 1018 588 1013 b 426 947 483 1006 451 972 b 393 782 393 913 393 882 l 393 532 b 229 347 393 493 393 394 b 390 204 283 332 372 296 b 393 78 393 190 393 119 l 393 -131 b 397 -197 393 -179 393 -182 b 571 -317 410 -247 461 -310 b 593 -332 585 -318 593 -318 "},"}":{"ha":694,"x_min":0,"x_max":0,"o":"m 593 347 b 574 332 593 333 583 332 b 429 269 486 326 449 289 b 393 78 393 231 393 208 l 393 -176 b 128 -347 390 -276 267 -347 b 100 -332 114 -347 100 -347 b 113 -317 100 -324 106 -318 b 267 -253 210 -311 242 -278 b 300 -87 300 -218 300 -187 l 300 163 b 464 347 300 201 300 300 b 303 490 410 363 321 399 b 300 617 300 504 300 575 l 300 825 b 296 892 300 874 300 876 b 122 1011 283 942 232 1004 b 100 1026 108 1013 100 1013 b 128 1042 100 1042 114 1042 b 321 989 172 1042 261 1029 b 393 810 393 938 393 890 l 393 535 b 571 363 393 396 511 367 b 593 347 585 361 593 361 "},"[":{"ha":347,"x_min":0,"x_max":0,"o":"m 147 -346 l 147 1040 l 326 1040 l 326 992 l 196 992 l 196 -297 l 326 -297 l 326 -346 "},"]":{"ha":347,"x_min":0,"x_max":0,"o":"m 19 -346 l 19 -297 l 150 -297 l 150 992 l 19 992 l 19 1040 l 199 1040 l 199 -346 "},"C":{"ha":928,"x_min":0,"x_max":0,"o":"m 863 325 b 518 -22 863 165 731 -22 b 64 475 279 -22 64 186 b 517 971 64 761 279 971 b 775 835 624 971 707 921 l 836 951 b 853 969 846 968 847 969 b 863 943 861 969 863 968 l 863 614 b 847 586 863 589 863 586 b 832 606 835 586 835 589 b 535 935 806 799 692 935 b 169 475 400 935 169 838 b 538 14 169 114 396 14 b 838 328 688 14 826 133 b 850 344 839 340 839 344 b 863 325 863 344 863 339 "},"c":{"ha":564,"x_min":0,"x_max":0,"o":"m 533 164 b 318 -11 533 149 490 -11 b 46 300 176 -11 46 115 b 318 614 46 478 171 614 b 519 440 425 614 519 539 b 469 388 519 392 479 388 b 419 438 451 388 419 399 b 485 486 419 486 458 486 b 319 589 454 563 374 589 b 135 301 238 589 135 513 b 331 14 135 96 242 14 b 506 154 390 14 469 42 b 522 174 511 172 513 174 b 533 164 532 174 533 169 "},":":{"ha":347,"x_min":0,"x_max":0,"o":"m 231 540 b 174 483 231 506 201 483 b 117 540 144 483 117 506 b 174 597 117 575 146 597 b 231 540 203 597 231 575 m 231 57 b 174 0 231 22 201 0 b 117 57 144 0 117 22 b 174 114 117 92 146 114 b 231 57 203 114 231 92 "},",":{"ha":347,"x_min":0,"x_max":0,"o":"m 244 -18 b 140 -269 244 -172 149 -269 b 129 -258 135 -269 129 -264 b 136 -246 129 -258 129 -253 b 222 -17 194 -176 222 -100 b 219 22 222 6 222 10 b 174 0 208 7 190 0 b 117 57 143 0 117 21 b 174 114 117 93 143 114 b 244 -18 239 114 244 28 "},"D":{"ha":982,"x_min":0,"x_max":0,"o":"m 917 467 b 514 0 917 206 738 0 l 72 0 l 72 36 b 183 99 168 36 183 36 l 183 850 b 72 913 183 913 168 913 l 72 949 l 514 949 b 917 467 740 949 917 729 m 814 467 b 486 913 814 844 601 913 l 331 913 b 272 858 275 913 272 906 l 272 90 b 331 36 272 43 275 36 l 486 36 b 731 154 618 36 697 111 b 814 467 757 192 814 271 "},"d":{"ha":710,"x_min":0,"x_max":0,"o":"m 497 -11 l 497 90 b 311 -11 490 81 429 -11 b 46 299 175 -11 46 117 b 325 608 46 482 183 608 b 500 513 438 608 494 519 l 500 838 b 406 913 500 904 488 913 l 406 949 l 571 964 l 571 111 b 665 36 571 44 583 36 l 665 0 m 497 442 b 479 500 497 467 497 471 b 332 586 447 550 396 586 b 135 297 296 586 135 569 b 319 11 135 32 279 11 b 440 60 346 11 393 18 b 497 167 472 88 497 125 "},"$":{"ha":638,"x_min":0,"x_max":0,"o":"m 572 265 b 336 -10 572 128 481 3 l 336 -76 l 300 -76 l 300 -11 b 64 247 149 -3 64 108 b 114 304 64 293 90 304 b 164 254 132 304 164 293 b 114 204 164 219 138 204 b 92 208 107 204 97 206 b 300 25 117 68 224 29 l 300 458 b 131 544 219 481 182 490 b 64 719 108 569 64 628 b 300 975 64 851 163 963 l 300 1040 l 336 1040 l 336 975 b 572 736 503 965 572 850 b 522 679 572 696 551 679 b 472 729 499 679 472 694 b 522 779 472 768 504 779 b 543 775 529 779 538 778 b 336 939 517 904 413 935 l 336 543 b 504 454 399 528 453 514 b 572 265 567 381 572 301 m 300 938 b 119 747 182 926 119 831 b 174 615 119 696 140 651 b 300 554 213 575 263 563 m 517 236 b 461 383 517 310 481 361 b 336 449 421 426 381 439 l 336 26 b 517 236 449 38 517 139 "},"E":{"ha":872,"x_min":0,"x_max":0,"o":"m 793 0 l 71 0 l 71 36 b 182 99 167 36 182 36 l 182 847 b 71 910 182 910 167 910 l 71 946 l 774 946 l 807 639 l 782 639 b 522 910 763 824 738 910 l 332 910 b 274 856 276 910 274 903 l 274 510 l 404 510 b 547 672 535 510 547 557 l 572 672 l 572 311 l 547 311 b 404 474 547 426 535 474 l 274 474 l 274 90 b 332 36 274 43 276 36 l 525 36 b 818 351 769 36 788 147 l 843 351 "},"e":{"ha":564,"x_min":0,"x_max":0,"o":"m 535 349 b 529 326 535 335 535 332 l 126 326 b 169 108 126 261 126 179 b 326 14 207 47 267 14 b 506 156 399 14 475 61 b 522 175 511 172 513 175 b 533 165 522 175 533 175 b 317 -11 533 136 472 -11 b 38 303 169 -11 38 122 b 301 614 38 474 154 614 b 535 349 460 614 535 490 m 460 347 b 300 592 458 503 394 592 b 128 347 244 592 138 547 l 460 347 "},"=":{"ha":1000,"x_min":0,"x_max":0,"o":"m 935 469 b 893 446 935 446 914 446 l 106 446 b 64 469 85 446 64 446 b 111 494 64 494 88 494 l 888 494 b 935 469 911 494 935 494 m 935 224 b 888 199 935 199 911 199 l 111 199 b 64 224 88 199 64 199 b 106 247 64 247 85 247 l 893 247 b 935 224 914 247 935 247 "},"!":{"ha":347,"x_min":0,"x_max":0,"o":"m 188 260 b 174 235 186 242 186 235 b 160 260 161 235 161 242 l 117 931 b 174 986 117 971 150 986 b 231 931 197 986 231 971 m 231 57 b 174 0 231 25 204 0 b 117 57 142 0 117 26 b 174 114 117 89 143 114 b 231 57 206 114 231 88 "},"F":{"ha":836,"x_min":0,"x_max":0,"o":"m 764 639 b 511 910 744 824 721 910 l 332 910 b 274 856 276 910 274 903 l 274 492 l 399 492 b 540 654 528 492 540 538 l 565 654 l 565 293 l 540 293 b 399 456 540 410 528 456 l 274 456 l 274 100 b 382 36 274 50 276 36 l 413 36 l 413 0 b 232 3 356 3 289 3 b 71 0 189 3 111 3 l 71 36 b 182 99 167 36 182 36 l 182 847 b 71 910 182 910 167 910 l 71 946 l 756 946 l 789 639 "},"f":{"ha":383,"x_min":0,"x_max":0,"o":"m 435 890 b 388 843 435 854 407 843 b 340 890 368 843 340 854 b 381 938 340 925 369 935 b 328 953 367 947 346 953 b 210 765 268 953 210 881 l 210 597 l 371 597 l 371 561 l 213 561 l 213 99 b 329 36 213 36 229 36 l 329 0 b 181 3 292 3 221 3 b 47 0 144 3 81 3 l 47 36 b 142 96 136 36 142 43 l 142 561 l 31 561 l 31 597 l 142 597 l 142 763 b 329 975 142 910 250 975 b 435 890 385 975 435 943 "},"G":{"ha":1008,"x_min":0,"x_max":0,"o":"m 953 336 b 863 276 867 336 863 329 l 863 28 b 854 1 863 3 861 1 b 785 97 847 1 808 40 b 519 -22 742 18 632 -22 b 64 475 275 -22 64 190 b 517 971 64 761 279 971 b 775 835 624 971 707 921 l 836 951 b 853 969 846 968 847 969 b 863 943 861 969 863 968 l 863 614 b 847 586 863 589 863 586 b 832 606 835 586 835 589 b 535 935 806 799 692 935 b 169 475 400 935 169 838 b 547 14 169 113 404 14 b 771 179 590 14 771 26 l 771 271 b 649 336 771 321 768 336 l 607 336 l 607 372 l 807 369 b 953 372 844 369 919 369 l 953 336 "},"g":{"ha":638,"x_min":0,"x_max":0,"o":"m 626 565 b 594 533 626 547 615 533 b 564 564 576 533 564 546 b 582 593 564 586 576 592 b 561 597 575 597 567 597 b 433 542 529 597 472 583 b 486 407 475 499 486 443 b 282 206 486 292 392 206 b 154 250 226 206 181 229 b 128 176 128 219 128 189 b 200 82 128 128 157 89 b 296 81 207 81 264 81 b 608 -108 403 81 608 81 b 318 -283 608 -212 471 -283 b 28 -110 160 -283 28 -210 b 157 33 28 -40 85 15 b 96 151 110 63 96 115 b 138 264 96 158 96 215 b 78 407 124 278 78 328 b 282 608 78 522 172 608 b 418 557 326 608 376 594 b 561 619 457 593 506 619 b 626 565 606 619 626 592 m 404 407 b 282 585 404 435 404 585 b 160 407 160 585 160 435 b 282 229 160 379 160 229 b 404 407 404 229 404 379 m 553 -110 b 281 19 553 19 394 19 b 138 -4 186 19 172 19 b 83 -110 107 -26 83 -67 b 318 -260 83 -186 179 -260 b 553 -110 457 -260 553 -186 "},"`":{"ha":638,"x_min":0,"x_max":0,"o":"m 383 711 l 179 896 b 158 929 163 911 158 914 b 196 967 158 950 176 967 b 232 943 213 967 218 960 l 389 743 b 399 728 399 731 399 728 "},">":{"ha":1058,"x_min":0,"x_max":0,"o":"m 943 347 b 915 317 943 338 942 329 l 164 -29 b 140 -39 144 -37 140 -39 b 114 -14 124 -39 114 -25 b 142 17 114 -6 114 4 l 857 347 l 143 676 b 114 707 125 685 114 690 b 140 732 114 718 124 732 b 164 722 140 732 146 731 l 915 376 b 943 347 940 365 943 356 "},"H":{"ha":963,"x_min":0,"x_max":0,"o":"m 890 0 b 733 3 850 3 776 3 b 576 0 690 3 617 3 l 576 36 b 688 99 672 36 688 36 l 688 475 l 274 475 l 274 99 b 385 36 274 36 289 36 l 385 0 b 228 3 344 3 271 3 b 71 0 185 3 111 3 l 71 36 b 182 99 167 36 182 36 l 182 850 b 71 913 182 913 167 913 l 71 949 b 228 946 111 946 185 946 b 385 949 271 946 344 946 l 385 913 b 274 850 289 913 274 913 l 274 511 l 688 511 l 688 850 b 576 913 688 913 672 913 l 576 949 b 733 946 617 946 690 946 b 890 949 776 946 850 946 l 890 913 b 779 850 794 913 779 913 l 779 99 b 890 36 779 36 794 36 l 890 0 "},"h":{"ha":710,"x_min":0,"x_max":0,"o":"m 671 0 b 539 3 638 3 575 3 b 408 0 503 3 442 3 l 408 36 b 503 96 497 36 503 43 l 503 428 b 389 586 503 494 492 586 b 214 363 292 586 214 490 l 214 96 b 308 36 214 42 219 36 l 308 0 b 176 3 275 3 213 3 b 46 0 140 3 79 3 l 46 36 b 140 96 135 36 140 43 l 140 838 b 46 913 140 904 128 913 l 46 949 l 211 964 l 211 471 l 213 471 b 399 608 229 517 285 608 b 576 422 563 608 576 493 l 576 96 b 671 36 576 42 582 36 l 671 0 "},"-":{"ha":419,"x_min":0,"x_max":0,"o":"m 6 268 l 6 329 l 354 329 l 354 268 "},"I":{"ha":456,"x_min":0,"x_max":0,"o":"m 390 0 b 228 3 346 3 275 3 b 65 0 181 3 110 3 l 65 36 b 182 99 165 36 182 36 l 182 850 b 65 913 182 913 165 913 l 65 949 b 228 946 110 946 181 946 b 390 949 275 946 346 946 l 390 913 b 274 850 290 913 274 913 l 274 99 b 390 36 274 36 290 36 l 390 0 "},"i":{"ha":347,"x_min":0,"x_max":0,"o":"m 297 0 b 175 3 265 3 208 3 b 47 0 140 3 81 3 l 47 36 b 142 96 136 36 142 43 l 142 482 b 53 557 142 549 131 557 l 53 593 l 213 608 l 213 94 b 297 36 213 44 215 36 l 297 0 m 229 839 b 172 782 229 808 206 782 b 117 839 143 782 117 806 b 174 896 117 869 140 896 b 229 839 203 896 229 872 "},"J":{"ha":654,"x_min":0,"x_max":0,"o":"m 582 913 b 501 886 539 913 507 913 b 499 815 499 878 499 839 l 499 232 b 497 172 499 185 499 182 b 272 -22 481 56 381 -22 b 74 156 158 -22 74 63 b 133 217 74 196 100 217 b 192 158 168 217 192 192 b 132 99 192 117 158 99 b 114 101 126 99 119 100 b 269 0 150 17 233 0 b 410 204 340 0 410 76 l 410 847 b 299 913 410 897 407 913 l 265 913 l 265 949 b 446 946 324 946 388 946 l 582 949 l 582 913 "},"j":{"ha":383,"x_min":0,"x_max":0,"o":"m 253 -76 b 86 -282 253 -194 182 -282 b -46 -190 15 -282 -46 -246 b 4 -139 -46 -160 -26 -139 b 54 -189 36 -139 54 -162 b 10 -239 54 -228 19 -237 b 88 -260 40 -258 78 -260 b 182 -82 169 -260 182 -151 l 182 481 b 79 557 182 547 171 557 l 79 593 l 253 608 l 253 -76 m 253 839 b 196 782 253 808 229 782 b 140 839 167 782 140 806 b 197 896 140 869 164 896 b 253 839 226 896 253 872 "},"K":{"ha":999,"x_min":0,"x_max":0,"o":"m 951 0 b 829 3 919 3 863 3 b 675 0 783 3 719 3 l 675 36 b 732 72 693 36 732 36 b 714 118 732 86 722 104 l 451 521 l 274 344 l 274 99 b 385 36 274 36 289 36 l 385 0 b 228 3 344 3 271 3 b 71 0 185 3 111 3 l 71 36 b 182 99 167 36 182 36 l 182 850 b 71 913 182 913 167 913 l 71 949 b 228 946 111 946 185 946 b 385 949 271 946 344 946 l 385 913 b 274 850 289 913 274 913 l 274 379 l 735 842 b 746 875 740 850 746 865 b 704 913 746 885 740 910 l 704 949 b 843 946 740 946 806 946 l 933 949 l 933 913 b 753 822 856 910 803 871 l 513 582 l 822 108 b 951 36 864 44 885 36 l 951 0 "},"k":{"ha":674,"x_min":0,"x_max":0,"o":"m 560 3 b 432 0 525 3 465 3 l 432 36 b 474 65 449 36 474 40 b 443 128 474 83 460 103 l 303 336 l 207 249 l 207 96 b 301 36 207 42 213 36 l 301 0 b 172 3 268 3 207 3 b 43 0 138 3 76 3 l 43 36 b 138 96 132 36 138 43 l 138 838 b 43 913 138 904 125 913 l 43 949 l 208 964 l 208 283 l 418 475 b 447 529 418 475 447 501 b 414 561 447 549 433 560 l 414 597 b 550 594 451 594 511 594 l 618 596 b 631 597 618 596 622 597 l 631 561 b 465 486 594 560 544 553 l 354 382 b 363 367 354 378 361 369 l 538 110 b 660 36 579 49 594 36 l 660 0 "},"L":{"ha":800,"x_min":0,"x_max":0,"o":"m 719 0 l 71 0 l 71 36 b 182 99 167 36 182 36 l 182 850 b 71 913 182 913 167 913 l 71 949 b 232 946 111 946 189 946 b 413 949 289 946 356 946 l 413 913 l 382 913 b 274 849 276 913 274 899 l 274 90 b 332 36 274 43 276 36 l 461 36 b 728 351 699 36 717 214 l 753 351 "},"l":{"ha":347,"x_min":0,"x_max":0,"o":"m 307 0 b 176 3 274 3 213 3 b 47 0 142 3 81 3 l 47 36 b 142 96 136 36 142 43 l 142 838 b 47 913 142 904 129 913 l 47 949 l 213 964 l 213 96 b 307 36 213 42 218 36 l 307 0 "},"<":{"ha":1058,"x_min":0,"x_max":0,"o":"m 943 -12 b 917 -39 943 -28 932 -39 b 893 -29 917 -39 911 -37 l 142 317 b 114 347 115 329 114 338 b 142 376 114 356 117 365 l 893 722 b 917 732 913 731 917 732 b 943 706 932 732 943 721 b 915 676 943 697 940 688 l 200 346 l 915 17 b 943 -12 940 6 943 -4 "},"M":{"ha":1181,"x_min":0,"x_max":0,"o":"m 1106 0 b 951 3 1068 3 992 3 b 799 0 911 3 836 3 l 799 36 b 910 99 894 36 910 36 l 910 914 l 908 914 l 579 22 b 560 0 574 8 571 0 b 540 22 549 0 546 8 l 214 907 l 213 907 l 213 136 b 324 36 213 101 213 36 l 324 0 b 199 3 292 3 233 3 b 74 0 164 3 106 3 l 74 36 b 185 136 185 36 185 101 l 185 850 b 74 913 185 913 169 913 l 74 949 l 251 949 b 290 926 281 949 282 947 l 590 113 l 890 926 b 929 949 899 947 900 949 l 1106 949 l 1106 913 b 994 850 1010 913 994 913 l 994 99 b 1106 36 994 36 1010 36 l 1106 0 "},"m":{"ha":1072,"x_min":0,"x_max":0,"o":"m 1033 0 b 901 3 1000 3 938 3 b 771 0 865 3 804 3 l 771 36 b 865 96 860 36 865 43 l 865 428 b 751 586 865 494 854 586 b 576 363 654 586 576 490 l 576 96 b 671 36 576 42 582 36 l 671 0 b 539 3 638 3 575 3 b 408 0 503 3 442 3 l 408 36 b 503 96 497 36 503 43 l 503 428 b 389 586 503 494 492 586 b 214 363 292 586 214 490 l 214 96 b 308 36 214 42 219 36 l 308 0 b 176 3 275 3 213 3 b 46 0 140 3 79 3 l 46 36 b 140 96 135 36 140 43 l 140 482 b 46 557 140 549 128 557 l 46 593 l 210 608 l 210 468 l 211 468 b 399 608 232 524 289 608 b 575 469 476 608 558 583 l 576 469 b 761 608 601 544 667 608 b 939 422 926 608 939 492 l 939 96 b 1033 36 939 42 944 36 l 1033 0 "},"N":{"ha":963,"x_min":0,"x_max":0,"o":"m 890 913 b 779 813 779 913 779 847 l 779 31 b 765 0 779 4 779 0 b 744 17 758 0 754 0 l 229 860 b 210 885 219 874 219 876 l 210 136 b 321 36 210 101 210 36 l 321 0 b 196 3 289 3 231 3 b 71 0 161 3 103 3 l 71 36 b 182 136 182 36 182 101 l 182 904 b 97 913 178 906 153 913 l 71 913 l 71 949 l 247 949 b 285 932 274 949 275 947 l 751 169 l 751 813 b 640 913 751 847 751 913 l 640 949 b 765 946 672 946 731 946 b 890 949 800 946 858 946 l 890 913 "},"n":{"ha":710,"x_min":0,"x_max":0,"o":"m 671 0 b 539 3 638 3 575 3 b 408 0 503 3 442 3 l 408 36 b 503 96 497 36 503 43 l 503 428 b 389 586 503 494 492 586 b 214 363 292 586 214 490 l 214 96 b 308 36 214 42 219 36 l 308 0 b 176 3 275 3 213 3 b 46 0 140 3 79 3 l 46 36 b 140 96 135 36 140 43 l 140 482 b 46 557 140 549 128 557 l 46 593 l 210 608 l 210 468 l 211 468 b 399 608 232 524 289 608 b 576 422 563 608 576 493 l 576 96 b 671 36 576 42 582 36 l 671 0 "},"#":{"ha":1072,"x_min":0,"x_max":0,"o":"m 1007 224 b 960 199 1007 199 983 199 l 674 199 l 563 -240 b 536 -271 560 -251 556 -271 b 511 -246 522 -271 511 -260 b 517 -221 511 -242 513 -235 l 624 199 l 372 199 l 261 -240 b 235 -271 258 -251 254 -271 b 210 -246 221 -271 210 -260 b 215 -221 210 -242 211 -235 l 322 199 l 111 199 b 64 224 88 199 64 199 b 106 247 64 247 85 247 l 336 247 l 383 446 l 106 446 b 64 469 85 446 64 446 b 111 494 64 494 88 494 l 397 494 l 508 933 b 535 964 511 944 515 964 b 560 939 549 964 560 953 b 554 914 560 935 558 928 l 447 494 l 699 494 l 810 933 b 836 964 813 944 817 964 b 861 939 850 964 861 953 b 856 914 861 935 860 928 l 749 494 l 960 494 b 1007 469 983 494 1007 494 b 965 446 1007 446 986 446 l 735 446 l 688 247 l 965 247 b 1007 224 986 247 1007 247 m 433 446 l 386 247 l 638 247 l 685 446 "},"O":{"ha":1000,"x_min":0,"x_max":0,"o":"m 935 472 b 499 -22 935 194 736 -22 b 64 472 267 -22 64 190 b 500 971 64 754 264 971 b 935 472 731 971 935 757 m 829 490 b 499 946 829 814 646 946 b 169 490 358 946 169 818 b 500 3 169 161 342 3 b 829 490 653 3 829 156 "},"o":{"ha":638,"x_min":0,"x_max":0,"o":"m 599 297 b 318 -11 599 122 469 -11 b 38 297 167 -11 38 122 b 318 614 38 475 167 614 b 599 297 469 614 599 475 m 510 308 b 467 508 510 351 510 443 b 318 592 433 557 381 592 b 165 501 247 592 193 547 b 126 308 129 439 126 367 b 165 107 126 247 131 169 b 318 14 197 53 253 14 b 469 104 371 14 431 40 b 510 308 507 171 510 254 "},"P":{"ha":872,"x_min":0,"x_max":0,"o":"m 807 694 b 497 446 807 563 676 446 l 275 446 l 275 99 b 386 36 275 36 290 36 l 386 0 b 229 3 346 3 272 3 b 72 0 186 3 113 3 l 72 36 b 183 99 168 36 183 36 l 183 850 b 72 913 183 913 168 913 l 72 949 l 497 949 b 807 694 679 949 807 826 m 701 694 b 471 913 701 810 650 913 l 331 913 b 272 858 275 913 272 906 l 272 475 l 471 475 b 701 694 640 475 701 568 "},"p":{"ha":710,"x_min":0,"x_max":0,"o":"m 663 300 b 383 -11 663 111 522 -11 b 211 85 310 -11 251 26 l 211 -175 b 306 -235 211 -229 217 -235 l 306 -271 b 174 -268 272 -268 210 -268 b 43 -271 138 -268 76 -268 l 43 -235 b 138 -175 132 -235 138 -228 l 138 482 b 43 557 138 549 125 557 l 43 593 l 208 608 l 208 507 b 399 608 247 563 315 608 b 663 300 542 608 663 475 m 574 299 b 389 583 574 457 490 583 b 265 536 319 583 272 542 b 211 436 211 485 211 456 l 211 161 b 229 100 211 139 211 131 b 375 11 271 35 325 11 b 574 299 485 11 574 140 "},"(":{"ha":492,"x_min":0,"x_max":0,"o":"m 425 -339 b 415 -347 425 -344 422 -347 b 218 -101 399 -347 285 -246 b 125 347 135 78 125 247 b 214 785 125 481 144 631 b 415 1040 282 938 400 1040 b 425 1033 421 1040 425 1038 b 422 1025 425 1029 422 1025 b 186 346 354 956 186 779 b 421 -331 186 -87 357 -265 b 425 -339 425 -335 425 -339 "},")":{"ha":492,"x_min":0,"x_max":0,"o":"m 365 346 b 276 -92 365 213 346 63 b 75 -347 208 -244 90 -347 b 65 -339 71 -347 65 -346 b 68 -332 65 -339 67 -335 b 304 347 136 -262 304 -86 b 68 1025 304 779 135 956 b 65 1032 67 1028 65 1032 b 75 1040 65 1039 71 1040 b 272 794 92 1040 206 939 b 365 346 356 615 365 446 "},"%":{"ha":1072,"x_min":0,"x_max":0,"o":"m 897 1015 b 886 992 897 1008 896 1007 l 225 -54 b 199 -76 215 -69 211 -76 b 174 -51 186 -76 174 -67 b 186 -25 174 -47 174 -44 l 786 925 l 785 926 b 597 869 750 903 686 869 b 393 931 561 869 478 876 b 426 761 397 922 426 857 b 254 482 426 599 347 482 b 64 761 158 482 64 592 b 254 1040 64 931 160 1040 b 346 997 301 1040 328 1014 b 596 892 372 972 457 892 b 844 1019 653 892 764 904 b 874 1040 854 1031 860 1040 b 897 1015 885 1040 897 1032 m 1007 203 b 835 -76 1007 40 928 -76 b 644 203 739 -76 644 33 b 835 482 644 372 740 482 b 1007 203 928 482 1007 364 m 401 761 b 256 1018 401 908 332 1018 b 129 761 219 1018 129 986 b 256 504 129 538 219 504 b 401 761 332 504 401 614 m 982 203 b 836 460 982 350 913 460 b 710 203 800 460 710 428 b 836 -54 710 -21 800 -54 b 982 203 913 -54 982 56 "},".":{"ha":347,"x_min":0,"x_max":0,"o":"m 231 57 b 174 0 231 22 201 0 b 117 57 144 0 117 22 b 174 114 117 92 146 114 b 231 57 203 114 231 92 "},"+":{"ha":1000,"x_min":0,"x_max":0,"o":"m 935 346 b 892 322 935 322 911 322 l 524 322 l 524 -46 b 499 -89 524 -67 524 -89 b 475 -46 475 -89 475 -65 l 475 322 l 107 322 b 64 347 86 322 64 322 b 107 371 64 371 88 371 l 475 371 l 475 739 b 500 782 475 760 475 782 b 524 739 524 782 524 758 l 524 371 l 892 371 b 935 346 913 371 935 371 "},"Q":{"ha":1000,"x_min":0,"x_max":0,"o":"m 942 -15 b 788 -271 942 -54 935 -271 b 629 0 668 -271 653 -169 b 500 -22 576 -18 532 -22 b 64 472 264 -22 64 194 b 500 971 64 754 264 971 b 935 472 731 971 935 757 b 657 13 935 264 822 83 b 794 -165 683 -92 713 -165 b 924 -4 839 -165 914 -137 b 932 8 924 -4 925 8 b 942 -15 942 8 942 -1 m 832 472 b 499 946 832 797 654 946 b 167 472 349 946 167 803 b 425 14 167 214 281 60 b 397 90 410 32 397 58 b 501 201 397 143 435 201 b 646 47 592 201 625 118 b 832 472 739 107 832 238 m 624 35 b 501 179 613 100 590 179 b 419 90 449 179 419 133 b 500 3 419 60 438 3 b 624 35 524 3 568 6 "},"q":{"ha":674,"x_min":0,"x_max":0,"o":"m 665 -271 b 533 -268 632 -268 569 -268 b 403 -271 497 -268 436 -268 l 403 -235 b 497 -175 492 -235 497 -228 l 497 101 b 313 -11 479 71 419 -11 b 46 299 174 -11 46 117 b 324 608 46 482 182 608 b 507 471 417 608 475 544 l 549 608 l 571 608 l 571 -175 b 665 -235 571 -229 576 -235 l 665 -271 m 500 385 b 333 583 500 457 444 583 b 135 297 226 583 135 460 b 319 11 135 143 215 11 b 446 71 353 11 403 22 b 500 190 450 75 500 131 "},"?":{"ha":601,"x_min":0,"x_max":0,"o":"m 535 783 b 460 638 535 696 486 657 b 293 313 360 558 293 443 l 293 264 b 281 235 293 240 293 235 b 268 264 268 235 268 240 l 268 318 b 393 649 268 419 301 550 b 446 790 419 676 446 706 b 283 953 446 842 444 953 b 97 831 210 953 126 918 b 114 833 101 832 108 833 b 164 783 138 833 164 818 b 114 733 164 743 129 733 b 64 788 110 733 64 733 b 286 975 64 879 147 975 b 535 783 450 975 535 896 m 338 57 b 281 0 338 25 311 0 b 224 57 249 0 224 26 b 281 114 224 89 250 114 b 338 57 313 114 338 88 "},"\"":{"ha":447,"x_min":0,"x_max":0,"o":"m 186 583 l 161 583 l 136 933 b 174 971 135 954 151 971 b 211 933 194 971 213 954 m 286 583 l 261 583 l 236 933 b 274 971 235 954 251 971 b 311 933 294 971 313 954 "},"'":{"ha":347,"x_min":0,"x_max":0,"o":"m 186 583 l 161 583 l 136 933 b 174 971 135 954 151 971 b 211 933 194 971 213 954 "},"R":{"ha":944,"x_min":0,"x_max":0,"o":"m 947 117 b 829 -22 947 93 932 -22 b 675 40 799 -22 728 -17 b 633 228 633 88 633 135 b 578 414 633 322 633 360 b 435 464 558 432 514 464 l 272 464 l 272 99 b 383 36 272 36 288 36 l 383 0 b 228 3 343 3 271 3 b 72 0 185 3 113 3 l 72 36 b 183 99 168 36 183 36 l 183 850 b 72 913 183 913 168 913 l 72 949 l 446 949 b 788 700 640 949 788 831 b 544 474 788 589 676 500 b 729 253 710 424 721 322 b 739 172 732 222 735 201 b 832 0 747 88 756 0 b 922 121 875 0 915 31 b 935 135 922 126 924 135 b 947 117 947 135 947 125 m 682 700 b 432 913 682 872 547 913 l 331 913 b 272 858 275 913 272 906 l 272 486 l 431 486 b 682 700 535 486 682 521 "},"r":{"ha":492,"x_min":0,"x_max":0,"o":"m 463 536 b 415 488 463 497 432 488 b 368 535 394 488 368 501 b 399 581 368 571 399 581 b 369 586 389 585 379 586 b 208 328 265 586 208 461 l 208 99 b 325 36 208 36 225 36 l 325 0 b 176 3 288 3 217 3 b 43 0 140 3 76 3 l 43 36 b 138 96 132 36 138 43 l 138 482 b 43 557 138 549 125 557 l 43 593 l 204 608 l 204 457 l 206 457 b 371 608 219 506 265 608 b 463 536 418 608 463 581 "},"S":{"ha":710,"x_min":0,"x_max":0,"o":"m 644 251 b 386 -22 644 104 538 -22 b 133 89 319 -22 203 -3 b 106 29 107 36 107 33 b 74 -21 86 -14 83 -21 b 64 6 65 -21 64 -19 l 64 286 b 76 315 64 314 65 315 b 89 292 86 315 88 314 b 386 14 99 97 238 14 b 578 221 507 14 578 121 b 457 415 578 299 536 382 b 332 450 443 421 374 439 b 121 554 221 479 172 490 b 64 717 74 613 64 674 b 319 971 64 858 178 971 b 540 860 407 971 488 936 l 582 951 b 599 969 588 964 590 969 b 608 943 607 969 608 968 l 608 661 b 596 633 608 638 608 633 b 581 660 586 633 585 635 b 321 938 560 833 468 938 b 131 749 203 938 131 839 b 183 617 131 704 144 660 b 325 550 218 579 250 569 b 415 526 403 531 406 531 b 603 404 482 510 544 493 b 644 251 618 379 644 324 "},"s":{"ha":499,"x_min":0,"x_max":0,"o":"m 463 172 b 251 -11 463 64 389 -11 b 97 63 174 -11 125 25 l 60 3 b 44 -10 53 -8 51 -10 b 35 17 36 -10 35 -8 l 35 217 b 47 246 35 244 36 246 b 63 225 58 246 58 244 b 251 11 88 103 131 11 b 413 144 379 11 413 86 b 364 242 413 194 382 225 b 217 290 335 267 304 272 b 35 453 176 299 35 328 b 244 614 35 533 90 614 b 375 565 268 614 331 613 b 396 590 379 571 392 585 b 419 613 413 611 414 613 b 429 586 428 613 429 611 l 429 431 b 417 403 429 407 429 403 b 404 411 413 403 406 404 b 244 594 401 456 393 594 b 85 482 104 594 85 518 b 258 361 85 397 182 378 b 407 297 317 350 365 340 b 463 172 425 281 463 243 "},";":{"ha":347,"x_min":0,"x_max":0,"o":"m 231 540 b 174 483 231 506 201 483 b 117 540 144 483 117 506 b 174 597 117 575 146 597 b 231 540 203 597 231 575 m 235 -12 b 140 -269 235 -174 147 -269 b 129 -257 135 -269 129 -264 b 138 -243 129 -257 129 -253 b 213 -15 185 -176 213 -104 l 213 14 b 174 0 203 4 188 0 b 117 57 143 0 117 21 b 174 114 117 93 143 114 b 235 -12 231 114 235 42 "},"/":{"ha":638,"x_min":0,"x_max":0,"o":"m 572 1015 b 565 992 572 1015 572 1010 l 115 -318 b 88 -346 110 -335 104 -346 b 64 -321 76 -346 64 -337 b 71 -297 64 -321 64 -315 l 521 1013 b 549 1040 526 1029 532 1040 b 572 1015 560 1040 572 1032 "}," ":{"ha":419,"x_min":0,"x_max":0,"o":""},"T":{"ha":928,"x_min":0,"x_max":0,"o":"m 863 638 b 611 908 844 868 824 908 b 535 907 586 908 546 908 b 510 854 510 901 510 885 l 510 101 b 629 36 510 51 514 36 l 668 36 l 668 0 l 464 3 l 260 0 l 260 36 l 299 36 b 418 101 414 36 418 51 l 418 854 b 392 907 418 886 418 903 b 315 908 381 908 340 908 b 64 638 101 908 82 868 l 39 638 l 63 944 l 864 944 l 888 638 "},"t":{"ha":492,"x_min":0,"x_max":0,"o":"m 426 172 b 297 -11 426 69 379 -11 b 136 171 136 -11 136 144 l 136 561 l 15 561 l 15 583 b 185 854 133 586 182 711 l 210 854 l 210 597 l 404 597 l 404 561 l 210 561 l 210 168 b 306 14 210 42 265 14 b 401 174 364 14 401 78 l 401 251 l 426 251 l 426 172 "},"U":{"ha":963,"x_min":0,"x_max":0,"o":"m 890 913 b 779 826 850 913 779 904 l 779 299 b 494 -22 779 163 675 -22 b 182 318 333 -22 182 118 l 182 850 b 71 913 182 913 167 913 l 71 949 b 228 946 111 946 185 946 b 385 949 271 946 344 946 l 385 913 b 274 850 289 913 274 913 l 274 311 b 324 110 274 263 279 176 b 497 14 363 51 426 14 b 750 318 629 14 750 132 l 750 813 b 639 913 750 847 750 913 l 639 949 b 765 946 671 946 731 946 b 890 949 800 946 858 946 l 890 913 "},"u":{"ha":710,"x_min":0,"x_max":0,"o":"m 506 -11 l 506 118 l 504 118 b 329 -11 493 89 447 -11 b 176 43 229 -11 194 25 b 140 235 140 82 140 142 l 140 501 b 46 557 139 557 101 557 l 46 593 l 214 608 l 214 151 b 338 11 214 79 224 11 b 503 229 440 11 503 113 l 503 482 b 408 557 503 549 490 557 l 408 593 l 576 608 l 576 111 b 671 36 576 44 589 36 l 671 0 "},"_":{"ha":963,"x_min":0,"x_max":0,"o":"m 0 -186 l 0 -161 l 963 -161 l 963 -186 "},"V":{"ha":963,"x_min":0,"x_max":0,"o":"m 947 913 b 819 821 854 911 832 851 l 504 0 b 481 -22 497 -19 496 -22 b 457 0 465 -22 464 -19 l 126 863 b 14 913 110 907 94 913 l 14 949 b 149 946 47 946 113 946 b 304 949 194 946 260 946 l 304 913 b 219 875 275 913 219 913 b 226 851 219 868 222 861 l 513 103 l 786 815 b 794 851 790 826 794 836 b 722 913 794 860 792 908 l 722 949 b 844 946 754 946 811 946 b 947 949 879 946 915 946 l 947 913 "},"v":{"ha":674,"x_min":0,"x_max":0,"o":"m 658 561 b 543 472 578 558 556 503 l 358 13 b 336 -11 350 -8 349 -11 b 314 13 324 -11 322 -8 l 113 518 b 14 561 96 561 67 561 l 14 597 b 125 594 44 594 88 594 b 254 597 160 594 221 594 l 254 561 b 188 528 233 561 188 561 b 196 501 188 522 188 519 l 361 85 l 514 471 b 522 506 522 490 522 493 b 468 561 522 542 503 558 l 468 597 b 571 594 496 594 542 594 l 658 597 l 658 561 "},"W":{"ha":1326,"x_min":0,"x_max":0,"o":"m 1313 913 b 1199 824 1232 910 1211 861 l 939 1 b 919 -22 932 -19 932 -22 b 899 0 908 -22 904 -19 l 663 753 l 426 0 b 406 -22 421 -19 417 -22 b 386 1 393 -22 393 -19 l 115 860 b 13 913 101 904 96 913 l 13 949 b 143 946 46 946 107 946 b 296 949 186 946 256 946 l 296 913 b 207 874 268 913 207 913 b 214 849 207 874 207 868 l 440 128 l 644 776 b 649 794 646 781 649 789 b 621 883 649 799 626 871 b 526 913 607 908 590 913 l 526 949 b 656 946 558 946 621 946 b 808 949 699 946 768 946 l 808 913 b 721 874 782 913 721 913 b 726 849 721 868 722 863 l 953 126 l 1168 813 b 1175 843 1174 828 1175 833 b 1086 913 1175 876 1149 911 l 1086 949 b 1215 946 1119 946 1181 946 l 1313 949 l 1313 913 "},"w":{"ha":928,"x_min":0,"x_max":0,"o":"m 913 561 b 808 475 892 560 836 557 l 650 11 b 629 -11 644 -7 640 -11 b 607 13 619 -11 614 -8 l 463 432 l 319 13 b 297 -11 313 -8 307 -11 b 276 11 286 -11 282 -7 l 106 511 b 14 561 90 557 75 561 l 14 597 b 121 594 43 594 90 594 b 247 597 156 594 214 594 l 247 561 b 178 525 225 561 178 561 b 185 500 178 521 178 518 l 322 99 l 450 471 b 344 561 421 558 421 561 l 344 597 b 447 594 376 594 413 594 b 571 597 481 594 539 594 l 571 561 b 501 525 549 561 501 561 b 508 499 501 519 506 508 l 650 89 l 781 467 b 786 499 783 476 786 489 b 719 561 786 533 763 558 l 719 597 b 829 594 743 594 803 594 b 913 597 857 594 885 596 l 913 561 "},"X":{"ha":963,"x_min":0,"x_max":0,"o":"m 943 0 b 804 3 910 3 840 3 b 646 0 758 3 690 3 l 646 36 b 707 74 694 39 707 63 b 696 97 707 78 707 82 l 454 450 l 232 128 b 218 90 225 118 218 108 b 274 36 218 68 231 40 l 274 0 b 136 3 239 3 174 3 b 18 0 103 3 50 3 l 18 36 b 194 124 44 36 135 38 l 436 475 l 168 867 b 36 913 138 910 113 913 l 36 949 b 175 946 69 946 139 946 b 333 949 221 946 289 946 l 333 913 b 272 875 288 911 272 888 b 283 851 272 871 274 867 l 489 551 l 672 817 b 689 858 682 831 689 842 b 633 913 689 881 678 908 l 633 949 b 771 946 668 946 725 946 b 889 949 804 946 857 946 l 889 913 b 713 822 775 911 733 851 l 507 526 l 813 82 b 943 36 840 43 854 36 l 943 0 "},"x":{"ha":674,"x_min":0,"x_max":0,"o":"m 671 0 b 558 3 640 3 596 3 b 431 0 524 3 464 3 l 431 36 b 469 68 453 38 469 49 b 442 114 469 78 453 99 l 321 271 l 206 129 b 182 72 193 113 182 97 b 213 36 182 40 204 38 l 213 0 b 99 3 188 3 126 3 l 1 0 l 1 36 b 167 118 39 38 104 43 b 303 292 182 138 303 286 b 293 307 303 296 296 304 l 133 514 b 8 561 100 556 83 561 l 8 597 b 121 594 39 594 83 594 b 249 597 156 594 215 594 l 249 561 b 211 529 225 560 211 546 b 224 504 211 522 211 519 l 346 344 l 449 475 b 469 525 456 485 469 500 b 439 561 469 544 458 558 l 439 597 b 551 594 471 594 514 594 l 649 597 l 649 561 b 489 485 588 560 535 538 l 361 324 l 547 82 b 671 36 581 39 601 36 l 671 0 "},"Y":{"ha":963,"x_min":0,"x_max":0,"o":"m 958 913 b 804 825 933 913 858 911 l 525 379 l 525 104 b 638 36 525 36 538 36 l 638 0 b 481 3 597 3 524 3 b 325 0 438 3 365 3 l 325 36 b 436 99 421 36 436 36 l 436 379 l 129 868 b 3 913 104 908 82 913 l 3 949 b 142 946 36 946 106 946 b 300 949 188 946 256 946 l 300 913 b 232 885 281 913 232 913 b 243 857 232 875 233 874 l 517 419 l 767 821 b 785 867 778 839 785 850 b 732 913 785 893 767 911 l 732 949 b 856 946 765 946 821 946 b 958 949 890 946 926 946 l 958 913 "},"y":{"ha":674,"x_min":0,"x_max":0,"o":"m 658 561 b 542 475 639 561 576 560 l 294 -135 b 136 -282 267 -204 217 -282 b 17 -186 74 -282 17 -242 b 63 -140 17 -161 32 -140 b 107 -185 90 -140 107 -161 b 61 -231 107 -208 93 -228 b 136 -260 86 -256 121 -260 b 322 0 224 -260 260 -164 l 115 510 b 14 561 97 554 89 561 l 14 597 b 126 594 44 594 89 594 b 254 597 161 594 221 594 l 254 561 b 189 528 221 561 189 558 b 196 500 189 528 189 517 l 361 94 l 513 469 b 522 507 519 486 522 493 b 468 561 522 518 521 557 l 468 597 b 571 594 496 594 542 594 l 658 597 l 658 561 "},"Z":{"ha":782,"x_min":0,"x_max":0,"o":"m 704 0 l 94 0 b 64 18 67 0 64 0 b 74 44 64 28 64 29 l 611 913 l 382 913 b 107 642 157 913 115 800 l 82 642 l 96 949 l 686 949 b 717 921 715 949 717 947 l 169 39 l 411 39 b 699 363 676 39 686 181 l 724 363 "},"z":{"ha":564,"x_min":0,"x_max":0,"o":"m 497 0 l 58 0 b 28 21 29 0 28 1 l 425 575 l 256 575 b 71 382 96 575 81 517 l 46 382 l 60 597 l 482 597 b 513 585 507 597 513 597 b 501 565 513 585 513 579 l 115 25 l 293 25 b 492 250 463 25 481 96 l 517 250 "},"ﬀ":{"ha":729,"x_min":0,"x_max":0,"o":"m 776 890 b 729 843 776 854 749 843 b 682 890 710 843 682 854 b 722 938 682 925 711 935 b 669 953 708 947 688 953 b 551 765 610 953 551 881 l 551 597 l 713 597 l 713 561 l 554 561 l 554 99 b 671 36 554 36 571 36 l 671 0 b 522 3 633 3 563 3 b 389 0 486 3 422 3 l 389 36 b 483 96 478 36 483 43 l 483 561 l 208 561 l 208 96 b 303 36 208 42 214 36 l 303 0 b 172 3 269 3 208 3 b 43 0 138 3 76 3 l 43 36 b 138 96 132 36 138 43 l 138 561 l 26 561 l 26 597 l 138 597 l 138 760 b 399 975 138 913 290 975 b 538 915 453 975 506 961 b 671 975 572 949 617 975 b 776 890 726 975 776 943 m 504 918 b 396 953 471 949 417 953 b 206 760 303 953 206 886 l 206 597 l 483 597 l 483 763 b 490 825 483 772 483 800 b 456 871 490 825 456 835 b 504 918 456 906 479 917 "},"ﬃ":{"ha":1040,"x_min":0,"x_max":0,"o":"m 996 0 b 865 3 963 3 901 3 b 736 0 831 3 769 3 l 736 36 b 831 96 825 36 831 43 l 831 488 b 760 561 831 549 819 561 l 556 561 l 556 96 b 650 36 556 42 561 36 l 650 0 b 519 3 617 3 556 3 b 390 0 485 3 424 3 l 390 36 b 485 96 479 36 485 43 l 485 561 l 208 561 l 208 96 b 303 36 208 42 214 36 l 303 0 b 172 3 269 3 208 3 b 43 0 138 3 76 3 l 43 36 b 138 96 132 36 138 43 l 138 561 l 26 561 l 26 597 l 138 597 l 138 760 b 399 975 138 913 292 975 b 542 897 478 975 524 933 b 747 975 614 965 704 975 b 900 851 833 975 900 921 b 850 800 900 814 875 800 b 800 850 822 800 800 817 b 858 899 800 899 844 899 b 742 953 828 946 768 953 b 553 760 658 953 553 892 l 553 597 l 711 597 b 739 599 728 597 731 597 l 901 610 l 901 96 b 996 36 901 42 907 36 l 996 0 m 511 899 b 394 953 490 932 443 953 b 206 760 308 953 206 890 l 206 597 l 485 597 l 485 760 b 488 801 485 760 485 789 b 451 850 465 808 451 825 b 511 899 451 899 497 899 "},"ﬄ":{"ha":1040,"x_min":0,"x_max":0,"o":"m 996 0 b 865 3 963 3 901 3 b 736 0 831 3 769 3 l 736 36 b 831 96 825 36 831 43 l 831 561 l 556 561 l 556 96 b 650 36 556 42 561 36 l 650 0 b 519 3 617 3 556 3 b 390 0 485 3 424 3 l 390 36 b 485 96 479 36 485 43 l 485 561 l 208 561 l 208 96 b 303 36 208 42 214 36 l 303 0 b 172 3 269 3 208 3 b 43 0 138 3 76 3 l 43 36 b 138 96 132 36 138 43 l 138 561 l 26 561 l 26 597 l 138 597 l 138 760 b 400 975 138 911 288 975 b 547 903 481 975 531 940 b 749 975 608 957 685 975 b 856 954 763 975 815 975 l 901 964 l 901 96 b 996 36 901 42 907 36 l 996 0 m 506 918 b 397 953 468 951 411 953 b 206 760 301 953 206 885 l 206 597 l 485 597 l 485 760 b 494 825 485 775 485 799 b 457 871 472 831 457 846 b 506 918 457 897 472 915 m 831 847 b 803 890 813 854 803 871 b 821 926 803 904 808 918 b 829 936 828 933 829 936 b 746 953 829 950 753 953 b 553 760 644 953 553 882 l 553 597 l 831 597 "},"ﬁ":{"ha":693,"x_min":0,"x_max":0,"o":"m 649 0 b 518 3 615 3 554 3 b 389 0 483 3 422 3 l 389 36 b 483 96 478 36 483 43 l 483 488 b 413 561 483 549 472 561 l 208 561 l 208 96 b 303 36 208 42 214 36 l 303 0 b 172 3 269 3 208 3 b 43 0 138 3 76 3 l 43 36 b 138 96 132 36 138 43 l 138 561 l 26 561 l 26 597 l 138 597 l 138 760 b 400 975 138 913 290 975 b 553 851 486 975 553 921 b 503 800 553 814 528 800 b 453 850 475 800 453 817 b 511 899 453 899 497 899 b 394 953 481 946 421 953 b 206 760 311 953 206 892 l 206 597 l 364 597 b 392 599 381 597 383 597 l 554 610 l 554 96 b 649 36 554 42 560 36 l 649 0 "},"ﬂ":{"ha":693,"x_min":0,"x_max":0,"o":"m 649 0 b 518 3 615 3 554 3 b 389 0 483 3 422 3 l 389 36 b 483 96 478 36 483 43 l 483 561 l 208 561 l 208 96 b 303 36 208 42 214 36 l 303 0 b 172 3 269 3 208 3 b 43 0 138 3 76 3 l 43 36 b 138 96 132 36 138 43 l 138 561 l 26 561 l 26 597 l 138 597 l 138 760 b 401 975 138 908 283 975 b 508 954 415 975 468 975 l 554 964 l 554 96 b 649 36 554 42 560 36 l 649 0 m 483 847 b 456 890 465 854 456 871 b 474 926 456 904 461 918 b 482 936 481 933 482 936 b 399 953 482 950 406 953 b 206 760 297 953 206 882 l 206 597 l 483 597 "},"Á":{"ha":963,"x_min":0,"x_max":0,"o":"m 929 0 b 790 3 896 3 826 3 b 635 0 747 3 675 3 l 635 36 b 721 74 661 36 721 36 b 714 99 721 79 721 82 l 631 335 l 267 335 l 193 128 b 188 100 190 119 188 113 b 263 36 188 83 197 39 l 263 0 b 139 3 229 3 174 3 b 32 0 113 3 57 3 l 32 36 b 163 126 81 36 136 51 l 457 960 b 481 982 464 978 467 982 b 504 960 494 982 497 978 l 813 88 b 929 36 831 36 856 36 l 929 0 m 449 849 l 279 371 l 618 371 m 661 1199 b 635 1169 658 1183 654 1182 l 401 1024 b 390 1042 400 1026 390 1042 b 403 1056 390 1042 390 1044 l 592 1225 b 622 1243 606 1236 613 1243 b 661 1199 646 1243 664 1222 "},"á":{"ha":638,"x_min":0,"x_max":0,"o":"m 624 124 b 521 -6 624 14 550 -6 b 418 111 460 -6 421 50 b 240 -11 388 32 317 -11 b 42 126 167 -11 42 19 b 154 297 42 179 67 249 b 413 353 232 339 331 350 l 413 414 b 267 592 413 531 336 592 b 114 479 218 592 143 567 b 131 482 118 481 125 482 b 181 432 154 482 181 467 b 131 382 181 393 149 382 b 81 436 122 382 81 385 b 269 614 81 528 160 614 b 428 554 317 614 376 600 b 486 360 486 500 486 451 l 486 160 b 543 26 486 99 486 26 b 599 122 561 26 599 38 l 599 201 l 624 201 l 624 124 m 413 332 b 225 286 368 329 292 324 b 126 126 144 242 126 168 b 250 11 126 63 181 11 b 413 193 326 11 413 72 m 479 929 b 458 896 479 914 475 911 l 254 711 l 239 728 b 249 743 239 728 239 731 l 406 943 b 442 967 419 960 425 967 b 479 929 461 967 479 950 "},"Ă":{"ha":963,"x_min":0,"x_max":0,"o":"m 929 0 b 790 3 896 3 826 3 b 635 0 747 3 675 3 l 635 36 b 721 74 661 36 721 36 b 714 99 721 79 721 82 l 631 335 l 267 335 l 193 128 b 188 100 190 119 188 113 b 263 36 188 83 197 39 l 263 0 b 139 3 229 3 174 3 b 32 0 113 3 57 3 l 32 36 b 163 126 81 36 136 51 l 457 960 b 481 982 464 978 467 982 b 504 960 494 982 497 978 l 813 88 b 929 36 831 36 856 36 l 929 0 m 449 849 l 279 371 l 618 371 m 674 1265 b 481 1024 671 1122 586 1024 b 288 1265 375 1024 290 1122 l 310 1265 b 481 1063 313 1140 392 1063 b 651 1265 569 1063 649 1142 l 674 1265 "},"ă":{"ha":638,"x_min":0,"x_max":0,"o":"m 624 124 b 521 -6 624 14 550 -6 b 418 111 460 -6 421 50 b 240 -11 388 32 317 -11 b 42 126 167 -11 42 19 b 154 297 42 179 67 249 b 413 353 232 339 331 350 l 413 414 b 267 592 413 531 336 592 b 114 479 218 592 143 567 b 131 482 118 481 125 482 b 181 432 154 482 181 467 b 131 382 181 393 149 382 b 81 436 122 382 81 385 b 269 614 81 528 160 614 b 428 554 317 614 376 600 b 486 360 486 500 486 451 l 486 160 b 543 26 486 99 486 26 b 599 122 561 26 599 38 l 599 201 l 624 201 l 624 124 m 413 332 b 225 286 368 329 292 324 b 126 126 144 242 126 168 b 250 11 126 63 181 11 b 413 193 326 11 413 72 m 511 960 b 318 718 508 817 424 718 b 125 960 213 718 128 817 l 147 960 b 318 757 150 835 229 757 b 489 960 407 757 486 836 l 511 960 "},"Ắ":{"ha":963,"x_min":0,"x_max":0,"o":"m 929 0 b 790 3 896 3 826 3 b 635 0 747 3 675 3 l 635 36 b 721 74 661 36 721 36 b 714 99 721 79 721 82 l 631 335 l 267 335 l 193 128 b 188 100 190 119 188 113 b 263 36 188 83 197 39 l 263 0 b 139 3 229 3 174 3 b 32 0 113 3 57 3 l 32 36 b 163 126 81 36 136 51 l 457 960 b 481 982 464 978 467 982 b 504 960 494 982 497 978 l 813 88 b 929 36 831 36 856 36 l 929 0 m 449 849 l 279 371 l 618 371 m 674 1265 b 481 1024 671 1122 586 1024 b 288 1265 375 1024 290 1122 l 310 1265 b 481 1063 313 1140 392 1063 b 651 1265 569 1063 649 1142 l 674 1265 m 615 1468 b 589 1439 613 1453 608 1451 l 356 1293 b 344 1311 354 1296 344 1311 b 357 1325 344 1311 344 1314 l 546 1494 b 576 1513 560 1506 567 1513 b 615 1468 600 1513 618 1492 "},"ắ":{"ha":638,"x_min":0,"x_max":0,"o":"m 624 124 b 521 -6 624 14 550 -6 b 418 111 460 -6 421 50 b 240 -11 388 32 317 -11 b 42 126 167 -11 42 19 b 154 297 42 179 67 249 b 413 353 232 339 331 350 l 413 414 b 267 592 413 531 336 592 b 114 479 218 592 143 567 b 131 482 118 481 125 482 b 181 432 154 482 181 467 b 131 382 181 393 149 382 b 81 436 122 382 81 385 b 269 614 81 528 160 614 b 428 554 317 614 376 600 b 486 360 486 500 486 451 l 486 160 b 543 26 486 99 486 26 b 599 122 561 26 599 38 l 599 201 l 624 201 l 624 124 m 413 332 b 225 286 368 329 292 324 b 126 126 144 242 126 168 b 250 11 126 63 181 11 b 413 193 326 11 413 72 m 511 960 b 318 718 508 817 424 718 b 125 960 213 718 128 817 l 147 960 b 318 757 150 835 229 757 b 489 960 407 757 486 836 l 511 960 m 453 1163 b 426 1133 450 1147 446 1146 l 193 988 b 182 1006 192 990 182 1006 b 194 1019 182 1006 182 1008 l 383 1189 b 414 1207 397 1200 404 1207 b 453 1163 438 1207 456 1186 "},"Ặ":{"ha":963,"x_min":0,"x_max":0,"o":"m 929 0 b 790 3 896 3 826 3 b 635 0 747 3 675 3 l 635 36 b 721 74 661 36 721 36 b 714 99 721 79 721 82 l 631 335 l 267 335 l 193 128 b 188 100 190 119 188 113 b 263 36 188 83 197 39 l 263 0 b 139 3 229 3 174 3 b 32 0 113 3 57 3 l 32 36 b 163 126 81 36 136 51 l 457 960 b 481 982 464 978 467 982 b 504 960 494 982 497 978 l 813 88 b 929 36 831 36 856 36 l 929 0 m 449 849 l 279 371 l 618 371 m 674 1265 b 481 1024 671 1122 586 1024 b 288 1265 375 1024 290 1122 l 310 1265 b 481 1063 313 1140 392 1063 b 651 1265 569 1063 649 1142 l 674 1265 m 538 -221 b 481 -278 538 -251 514 -278 b 425 -221 451 -278 425 -254 b 482 -164 425 -190 449 -164 b 538 -221 511 -164 538 -187 "},"ặ":{"ha":638,"x_min":0,"x_max":0,"o":"m 624 124 b 521 -6 624 14 550 -6 b 418 111 460 -6 421 50 b 240 -11 388 32 317 -11 b 42 126 167 -11 42 19 b 154 297 42 179 67 249 b 413 353 232 339 331 350 l 413 414 b 267 592 413 531 336 592 b 114 479 218 592 143 567 b 131 482 118 481 125 482 b 181 432 154 482 181 467 b 131 382 181 393 149 382 b 81 436 122 382 81 385 b 269 614 81 528 160 614 b 428 554 317 614 376 600 b 486 360 486 500 486 451 l 486 160 b 543 26 486 99 486 26 b 599 122 561 26 599 38 l 599 201 l 624 201 l 624 124 m 413 332 b 225 286 368 329 292 324 b 126 126 144 242 126 168 b 250 11 126 63 181 11 b 413 193 326 11 413 72 m 511 960 b 318 718 508 817 424 718 b 125 960 213 718 128 817 l 147 960 b 318 757 150 835 229 757 b 489 960 407 757 486 836 l 511 960 m 374 -221 b 317 -278 374 -251 350 -278 b 261 -221 288 -278 261 -254 b 318 -164 261 -190 285 -164 b 374 -221 347 -164 374 -187 "},"Ằ":{"ha":963,"x_min":0,"x_max":0,"o":"m 929 0 b 790 3 896 3 826 3 b 635 0 747 3 675 3 l 635 36 b 721 74 661 36 721 36 b 714 99 721 79 721 82 l 631 335 l 267 335 l 193 128 b 188 100 190 119 188 113 b 263 36 188 83 197 39 l 263 0 b 139 3 229 3 174 3 b 32 0 113 3 57 3 l 32 36 b 163 126 81 36 136 51 l 457 960 b 481 982 464 978 467 982 b 504 960 494 982 497 978 l 813 88 b 929 36 831 36 856 36 l 929 0 m 449 849 l 279 371 l 618 371 m 674 1265 b 481 1024 671 1122 586 1024 b 288 1265 375 1024 290 1122 l 310 1265 b 481 1063 313 1140 392 1063 b 651 1265 569 1063 649 1142 l 674 1265 m 617 1311 b 604 1325 617 1311 617 1314 l 415 1494 b 383 1513 401 1506 394 1513 b 346 1468 360 1513 342 1492 b 372 1439 349 1453 353 1451 l 606 1293 b 617 1311 607 1296 617 1311 "},"ằ":{"ha":638,"x_min":0,"x_max":0,"o":"m 624 124 b 521 -6 624 14 550 -6 b 418 111 460 -6 421 50 b 240 -11 388 32 317 -11 b 42 126 167 -11 42 19 b 154 297 42 179 67 249 b 413 353 232 339 331 350 l 413 414 b 267 592 413 531 336 592 b 114 479 218 592 143 567 b 131 482 118 481 125 482 b 181 432 154 482 181 467 b 131 382 181 393 149 382 b 81 436 122 382 81 385 b 269 614 81 528 160 614 b 428 554 317 614 376 600 b 486 360 486 500 486 451 l 486 160 b 543 26 486 99 486 26 b 599 122 561 26 599 38 l 599 201 l 624 201 l 624 124 m 413 332 b 225 286 368 329 292 324 b 126 126 144 242 126 168 b 250 11 126 63 181 11 b 413 193 326 11 413 72 m 511 960 b 318 718 508 817 424 718 b 125 960 213 718 128 817 l 147 960 b 318 757 150 835 229 757 b 489 960 407 757 486 836 l 511 960 m 454 1006 b 442 1019 454 1006 454 1008 l 253 1189 b 221 1207 239 1200 232 1207 b 183 1163 197 1207 179 1186 b 210 1133 186 1147 190 1146 l 443 988 b 454 1006 444 990 454 1006 "},"Ẳ":{"ha":963,"x_min":0,"x_max":0,"o":"m 929 0 b 790 3 896 3 826 3 b 635 0 747 3 675 3 l 635 36 b 721 74 661 36 721 36 b 714 99 721 79 721 82 l 631 335 l 267 335 l 193 128 b 188 100 190 119 188 113 b 263 36 188 83 197 39 l 263 0 b 139 3 229 3 174 3 b 32 0 113 3 57 3 l 32 36 b 163 126 81 36 136 51 l 457 960 b 481 982 464 978 467 982 b 504 960 494 982 497 978 l 813 88 b 929 36 831 36 856 36 l 929 0 m 449 849 l 279 371 l 618 371 m 674 1265 b 481 1024 671 1122 586 1024 b 288 1265 375 1024 290 1122 l 310 1265 b 481 1063 313 1140 392 1063 b 651 1265 569 1063 649 1142 l 674 1265 m 607 1471 b 569 1411 607 1446 592 1424 b 481 1301 515 1382 481 1346 l 481 1274 b 472 1265 481 1269 476 1265 b 464 1274 468 1265 464 1269 l 464 1301 b 529 1425 464 1349 490 1392 b 549 1471 542 1435 549 1451 b 533 1526 549 1499 546 1515 b 472 1547 519 1542 499 1547 b 382 1504 433 1547 399 1531 l 390 1506 b 426 1471 410 1506 426 1492 b 390 1436 425 1449 410 1436 b 356 1471 372 1436 356 1449 b 472 1563 357 1525 411 1563 b 569 1539 511 1563 543 1557 b 607 1471 593 1524 607 1499 "},"ẳ":{"ha":638,"x_min":0,"x_max":0,"o":"m 624 124 b 521 -6 624 14 550 -6 b 418 111 460 -6 421 50 b 240 -11 388 32 317 -11 b 42 126 167 -11 42 19 b 154 297 42 179 67 249 b 413 353 232 339 331 350 l 413 414 b 267 592 413 531 336 592 b 114 479 218 592 143 567 b 131 482 118 481 125 482 b 181 432 154 482 181 467 b 131 382 181 393 149 382 b 81 436 122 382 81 385 b 269 614 81 528 160 614 b 428 554 317 614 376 600 b 486 360 486 500 486 451 l 486 160 b 543 26 486 99 486 26 b 599 122 561 26 599 38 l 599 201 l 624 201 l 624 124 m 413 332 b 225 286 368 329 292 324 b 126 126 144 242 126 168 b 250 11 126 63 181 11 b 413 193 326 11 413 72 m 511 960 b 318 718 508 817 424 718 b 125 960 213 718 128 817 l 147 960 b 318 757 150 835 229 757 b 489 960 407 757 486 836 l 511 960 m 444 1165 b 407 1106 444 1140 429 1118 b 318 996 353 1076 318 1040 l 318 968 b 310 960 318 964 314 960 b 301 968 306 960 301 964 l 301 996 b 367 1119 301 1043 328 1086 b 386 1165 379 1129 386 1146 b 371 1221 386 1193 383 1210 b 310 1242 357 1236 336 1242 b 219 1199 271 1242 236 1225 l 228 1200 b 264 1165 247 1200 264 1186 b 228 1131 263 1143 247 1131 b 193 1165 210 1131 193 1143 b 310 1257 194 1219 249 1257 b 407 1233 349 1257 381 1251 b 444 1165 431 1218 444 1193 "},"Ẵ":{"ha":963,"x_min":0,"x_max":0,"o":"m 929 0 b 790 3 896 3 826 3 b 635 0 747 3 675 3 l 635 36 b 721 74 661 36 721 36 b 714 99 721 79 721 82 l 631 335 l 267 335 l 193 128 b 188 100 190 119 188 113 b 263 36 188 83 197 39 l 263 0 b 139 3 229 3 174 3 b 32 0 113 3 57 3 l 32 36 b 163 126 81 36 136 51 l 457 960 b 481 982 464 978 467 982 b 504 960 494 982 497 978 l 813 88 b 929 36 831 36 856 36 l 929 0 m 449 849 l 279 371 l 618 371 m 674 1265 b 481 1024 671 1122 586 1024 b 288 1265 375 1024 290 1122 l 310 1265 b 481 1063 313 1140 392 1063 b 651 1265 569 1063 649 1142 l 674 1265 m 699 1425 b 556 1321 640 1361 606 1321 b 475 1357 525 1321 503 1338 b 394 1393 446 1378 425 1393 b 278 1321 351 1393 325 1367 l 263 1336 b 406 1440 321 1400 356 1440 b 486 1404 436 1440 458 1424 b 567 1368 515 1383 536 1368 b 683 1440 610 1368 636 1394 l 699 1425 "},"ẵ":{"ha":638,"x_min":0,"x_max":0,"o":"m 624 124 b 521 -6 624 14 550 -6 b 418 111 460 -6 421 50 b 240 -11 388 32 317 -11 b 42 126 167 -11 42 19 b 154 297 42 179 67 249 b 413 353 232 339 331 350 l 413 414 b 267 592 413 531 336 592 b 114 479 218 592 143 567 b 131 482 118 481 125 482 b 181 432 154 482 181 467 b 131 382 181 393 149 382 b 81 436 122 382 81 385 b 269 614 81 528 160 614 b 428 554 317 614 376 600 b 486 360 486 500 486 451 l 486 160 b 543 26 486 99 486 26 b 599 122 561 26 599 38 l 599 201 l 624 201 l 624 124 m 413 332 b 225 286 368 329 292 324 b 126 126 144 242 126 168 b 250 11 126 63 181 11 b 413 193 326 11 413 72 m 511 960 b 318 718 508 817 424 718 b 125 960 213 718 128 817 l 147 960 b 318 757 150 835 229 757 b 489 960 407 757 486 836 l 511 960 m 536 1119 b 393 1015 478 1056 443 1015 b 313 1051 363 1015 340 1032 b 232 1088 283 1072 263 1088 b 115 1015 189 1088 163 1061 l 100 1031 b 243 1135 158 1094 193 1135 b 324 1099 274 1135 296 1118 b 404 1063 353 1078 374 1063 b 521 1135 447 1063 474 1089 l 536 1119 "},"Ǎ":{"ha":963,"x_min":0,"x_max":0,"o":"m 929 0 b 790 3 896 3 826 3 b 635 0 747 3 675 3 l 635 36 b 721 74 661 36 721 36 b 714 99 721 79 721 82 l 631 335 l 267 335 l 193 128 b 188 100 190 119 188 113 b 263 36 188 83 197 39 l 263 0 b 139 3 229 3 174 3 b 32 0 113 3 57 3 l 32 36 b 163 126 81 36 136 51 l 457 960 b 481 982 464 978 467 982 b 504 960 494 982 497 978 l 813 88 b 929 36 831 36 856 36 l 929 0 m 449 849 l 279 371 l 618 371 m 481 1010 l 271 1172 l 288 1194 l 482 1103 l 676 1194 l 690 1172 "},"ǎ":{"ha":638,"x_min":0,"x_max":0,"o":"m 624 124 b 521 -6 624 14 550 -6 b 418 111 460 -6 421 50 b 240 -11 388 32 317 -11 b 42 126 167 -11 42 19 b 154 297 42 179 67 249 b 413 353 232 339 331 350 l 413 414 b 267 592 413 531 336 592 b 114 479 218 592 143 567 b 131 482 118 481 125 482 b 181 432 154 482 181 467 b 131 382 181 393 149 382 b 81 436 122 382 81 385 b 269 614 81 528 160 614 b 428 554 317 614 376 600 b 486 360 486 500 486 451 l 486 160 b 543 26 486 99 486 26 b 599 122 561 26 599 38 l 599 201 l 624 201 l 624 124 m 413 332 b 225 286 368 329 292 324 b 126 126 144 242 126 168 b 250 11 126 63 181 11 b 413 193 326 11 413 72 m 318 717 l 107 942 l 125 961 l 318 811 l 511 961 l 529 942 "},"Â":{"ha":963,"x_min":0,"x_max":0,"o":"m 929 0 b 790 3 896 3 826 3 b 635 0 747 3 675 3 l 635 36 b 721 74 661 36 721 36 b 714 99 721 79 721 82 l 631 335 l 267 335 l 193 128 b 188 100 190 119 188 113 b 263 36 188 83 197 39 l 263 0 b 139 3 229 3 174 3 b 32 0 113 3 57 3 l 32 36 b 163 126 81 36 136 51 l 457 960 b 481 982 464 978 467 982 b 504 960 494 982 497 978 l 813 88 b 929 36 831 36 856 36 l 929 0 m 449 849 l 279 371 l 618 371 m 674 1010 l 479 1101 l 285 1010 l 271 1032 l 481 1194 l 690 1032 "},"â":{"ha":638,"x_min":0,"x_max":0,"o":"m 624 124 b 521 -6 624 14 550 -6 b 418 111 460 -6 421 50 b 240 -11 388 32 317 -11 b 42 126 167 -11 42 19 b 154 297 42 179 67 249 b 413 353 232 339 331 350 l 413 414 b 267 592 413 531 336 592 b 114 479 218 592 143 567 b 131 482 118 481 125 482 b 181 432 154 482 181 467 b 131 382 181 393 149 382 b 81 436 122 382 81 385 b 269 614 81 528 160 614 b 428 554 317 614 376 600 b 486 360 486 500 486 451 l 486 160 b 543 26 486 99 486 26 b 599 122 561 26 599 38 l 599 201 l 624 201 l 624 124 m 413 332 b 225 286 368 329 292 324 b 126 126 144 242 126 168 b 250 11 126 63 181 11 b 413 193 326 11 413 72 m 511 717 l 318 867 l 125 717 l 107 736 l 318 961 l 529 736 "},"Ấ":{"ha":963,"x_min":0,"x_max":0,"o":"m 929 0 b 790 3 896 3 826 3 b 635 0 747 3 675 3 l 635 36 b 721 74 661 36 721 36 b 714 99 721 79 721 82 l 631 335 l 267 335 l 193 128 b 188 100 190 119 188 113 b 263 36 188 83 197 39 l 263 0 b 139 3 229 3 174 3 b 32 0 113 3 57 3 l 32 36 b 163 126 81 36 136 51 l 457 960 b 481 982 464 978 467 982 b 504 960 494 982 497 978 l 813 88 b 929 36 831 36 856 36 l 929 0 m 449 849 l 279 371 l 618 371 m 674 1010 l 479 1101 l 285 1010 l 271 1032 l 481 1194 l 690 1032 m 615 1397 b 589 1368 613 1382 608 1381 l 356 1222 b 344 1240 354 1225 344 1240 b 357 1254 344 1240 344 1243 l 546 1424 b 576 1442 560 1435 567 1442 b 615 1397 600 1442 618 1421 "},"ấ":{"ha":638,"x_min":0,"x_max":0,"o":"m 624 124 b 521 -6 624 14 550 -6 b 418 111 460 -6 421 50 b 240 -11 388 32 317 -11 b 42 126 167 -11 42 19 b 154 297 42 179 67 249 b 413 353 232 339 331 350 l 413 414 b 267 592 413 531 336 592 b 114 479 218 592 143 567 b 131 482 118 481 125 482 b 181 432 154 482 181 467 b 131 382 181 393 149 382 b 81 436 122 382 81 385 b 269 614 81 528 160 614 b 428 554 317 614 376 600 b 486 360 486 500 486 451 l 486 160 b 543 26 486 99 486 26 b 599 122 561 26 599 38 l 599 201 l 624 201 l 624 124 m 413 332 b 225 286 368 329 292 324 b 126 126 144 242 126 168 b 250 11 126 63 181 11 b 413 193 326 11 413 72 m 511 717 l 317 808 l 122 717 l 108 739 l 318 901 l 528 739 m 453 1104 b 426 1075 450 1089 446 1088 l 193 929 b 182 947 192 932 182 947 b 194 961 182 947 182 950 l 383 1131 b 414 1149 397 1142 404 1149 b 453 1104 438 1149 456 1128 "},"Ậ":{"ha":963,"x_min":0,"x_max":0,"o":"m 929 0 b 790 3 896 3 826 3 b 635 0 747 3 675 3 l 635 36 b 721 74 661 36 721 36 b 714 99 721 79 721 82 l 631 335 l 267 335 l 193 128 b 188 100 190 119 188 113 b 263 36 188 83 197 39 l 263 0 b 139 3 229 3 174 3 b 32 0 113 3 57 3 l 32 36 b 163 126 81 36 136 51 l 457 960 b 481 982 464 978 467 982 b 504 960 494 982 497 978 l 813 88 b 929 36 831 36 856 36 l 929 0 m 449 849 l 279 371 l 618 371 m 674 1010 l 479 1101 l 285 1010 l 271 1032 l 481 1194 l 690 1032 m 538 -221 b 481 -278 538 -251 514 -278 b 425 -221 451 -278 425 -254 b 482 -164 425 -190 449 -164 b 538 -221 511 -164 538 -187 "},"ậ":{"ha":638,"x_min":0,"x_max":0,"o":"m 624 124 b 521 -6 624 14 550 -6 b 418 111 460 -6 421 50 b 240 -11 388 32 317 -11 b 42 126 167 -11 42 19 b 154 297 42 179 67 249 b 413 353 232 339 331 350 l 413 414 b 267 592 413 531 336 592 b 114 479 218 592 143 567 b 131 482 118 481 125 482 b 181 432 154 482 181 467 b 131 382 181 393 149 382 b 81 436 122 382 81 385 b 269 614 81 528 160 614 b 428 554 317 614 376 600 b 486 360 486 500 486 451 l 486 160 b 543 26 486 99 486 26 b 599 122 561 26 599 38 l 599 201 l 624 201 l 624 124 m 413 332 b 225 286 368 329 292 324 b 126 126 144 242 126 168 b 250 11 126 63 181 11 b 413 193 326 11 413 72 m 511 717 l 318 867 l 125 717 l 107 736 l 318 961 l 529 736 m 374 -221 b 317 -278 374 -251 350 -278 b 261 -221 288 -278 261 -254 b 318 -164 261 -190 285 -164 b 374 -221 347 -164 374 -187 "},"Ầ":{"ha":963,"x_min":0,"x_max":0,"o":"m 929 0 b 790 3 896 3 826 3 b 635 0 747 3 675 3 l 635 36 b 721 74 661 36 721 36 b 714 99 721 79 721 82 l 631 335 l 267 335 l 193 128 b 188 100 190 119 188 113 b 263 36 188 83 197 39 l 263 0 b 139 3 229 3 174 3 b 32 0 113 3 57 3 l 32 36 b 163 126 81 36 136 51 l 457 960 b 481 982 464 978 467 982 b 504 960 494 982 497 978 l 813 88 b 929 36 831 36 856 36 l 929 0 m 449 849 l 279 371 l 618 371 m 674 1010 l 479 1101 l 285 1010 l 271 1032 l 481 1194 l 690 1032 m 617 1240 b 604 1254 617 1240 617 1243 l 415 1424 b 383 1442 401 1435 394 1442 b 346 1397 360 1442 342 1421 b 372 1368 349 1382 353 1381 l 606 1222 b 617 1240 607 1225 617 1240 "},"ầ":{"ha":638,"x_min":0,"x_max":0,"o":"m 624 124 b 521 -6 624 14 550 -6 b 418 111 460 -6 421 50 b 240 -11 388 32 317 -11 b 42 126 167 -11 42 19 b 154 297 42 179 67 249 b 413 353 232 339 331 350 l 413 414 b 267 592 413 531 336 592 b 114 479 218 592 143 567 b 131 482 118 481 125 482 b 181 432 154 482 181 467 b 131 382 181 393 149 382 b 81 436 122 382 81 385 b 269 614 81 528 160 614 b 428 554 317 614 376 600 b 486 360 486 500 486 451 l 486 160 b 543 26 486 99 486 26 b 599 122 561 26 599 38 l 599 201 l 624 201 l 624 124 m 413 332 b 225 286 368 329 292 324 b 126 126 144 242 126 168 b 250 11 126 63 181 11 b 413 193 326 11 413 72 m 511 717 l 317 808 l 122 717 l 108 739 l 318 901 l 528 739 m 454 947 b 442 961 454 947 454 950 l 253 1131 b 221 1149 239 1142 232 1149 b 183 1104 197 1149 179 1128 b 210 1075 186 1089 190 1088 l 443 929 b 454 947 444 932 454 947 "},"Ẩ":{"ha":963,"x_min":0,"x_max":0,"o":"m 929 0 b 790 3 896 3 826 3 b 635 0 747 3 675 3 l 635 36 b 721 74 661 36 721 36 b 714 99 721 79 721 82 l 631 335 l 267 335 l 193 128 b 188 100 190 119 188 113 b 263 36 188 83 197 39 l 263 0 b 139 3 229 3 174 3 b 32 0 113 3 57 3 l 32 36 b 163 126 81 36 136 51 l 457 960 b 481 982 464 978 467 982 b 504 960 494 982 497 978 l 813 88 b 929 36 831 36 856 36 l 929 0 m 449 849 l 279 371 l 618 371 m 674 1010 l 479 1101 l 285 1010 l 271 1032 l 481 1194 l 690 1032 m 732 1400 b 694 1340 732 1375 717 1353 b 606 1231 640 1311 606 1275 l 606 1203 b 597 1194 606 1199 601 1194 b 589 1203 593 1194 589 1199 l 589 1231 b 654 1354 589 1278 615 1321 b 674 1400 667 1364 674 1381 b 658 1456 674 1428 671 1444 b 597 1476 644 1471 624 1476 b 507 1433 558 1476 524 1460 l 515 1435 b 551 1400 535 1435 551 1421 b 515 1365 550 1378 535 1365 b 481 1400 497 1365 481 1378 b 597 1492 482 1454 536 1492 b 694 1468 636 1492 668 1486 b 732 1400 718 1453 732 1428 "},"ẩ":{"ha":638,"x_min":0,"x_max":0,"o":"m 624 124 b 521 -6 624 14 550 -6 b 418 111 460 -6 421 50 b 240 -11 388 32 317 -11 b 42 126 167 -11 42 19 b 154 297 42 179 67 249 b 413 353 232 339 331 350 l 413 414 b 267 592 413 531 336 592 b 114 479 218 592 143 567 b 131 482 118 481 125 482 b 181 432 154 482 181 467 b 131 382 181 393 149 382 b 81 436 122 382 81 385 b 269 614 81 528 160 614 b 428 554 317 614 376 600 b 486 360 486 500 486 451 l 486 160 b 543 26 486 99 486 26 b 599 122 561 26 599 38 l 599 201 l 624 201 l 624 124 m 413 332 b 225 286 368 329 292 324 b 126 126 144 242 126 168 b 250 11 126 63 181 11 b 413 193 326 11 413 72 m 511 717 l 317 808 l 122 717 l 108 739 l 318 901 l 528 739 m 569 1107 b 532 1047 569 1082 554 1060 b 443 938 478 1018 443 982 l 443 910 b 435 901 443 906 439 901 b 426 910 431 901 426 906 l 426 938 b 492 1061 426 985 453 1028 b 511 1107 504 1071 511 1088 b 496 1163 511 1135 508 1151 b 435 1183 482 1178 461 1183 b 344 1140 396 1183 361 1167 l 353 1142 b 389 1107 372 1142 389 1128 b 353 1072 388 1085 372 1072 b 318 1107 335 1072 318 1085 b 435 1199 319 1161 374 1199 b 532 1175 474 1199 506 1193 b 569 1107 556 1160 569 1135 "},"Ẫ":{"ha":963,"x_min":0,"x_max":0,"o":"m 929 0 b 790 3 896 3 826 3 b 635 0 747 3 675 3 l 635 36 b 721 74 661 36 721 36 b 714 99 721 79 721 82 l 631 335 l 267 335 l 193 128 b 188 100 190 119 188 113 b 263 36 188 83 197 39 l 263 0 b 139 3 229 3 174 3 b 32 0 113 3 57 3 l 32 36 b 163 126 81 36 136 51 l 457 960 b 481 982 464 978 467 982 b 504 960 494 982 497 978 l 813 88 b 929 36 831 36 856 36 l 929 0 m 449 849 l 279 371 l 618 371 m 674 1010 l 479 1101 l 285 1010 l 271 1032 l 481 1194 l 690 1032 m 699 1354 b 556 1250 640 1290 606 1250 b 475 1286 525 1250 503 1267 b 394 1322 446 1307 425 1322 b 278 1250 351 1322 325 1296 l 263 1265 b 406 1369 321 1329 356 1369 b 486 1333 436 1369 458 1353 b 567 1297 515 1313 536 1297 b 683 1369 610 1297 636 1324 l 699 1354 "},"ẫ":{"ha":638,"x_min":0,"x_max":0,"o":"m 624 124 b 521 -6 624 14 550 -6 b 418 111 460 -6 421 50 b 240 -11 388 32 317 -11 b 42 126 167 -11 42 19 b 154 297 42 179 67 249 b 413 353 232 339 331 350 l 413 414 b 267 592 413 531 336 592 b 114 479 218 592 143 567 b 131 482 118 481 125 482 b 181 432 154 482 181 467 b 131 382 181 393 149 382 b 81 436 122 382 81 385 b 269 614 81 528 160 614 b 428 554 317 614 376 600 b 486 360 486 500 486 451 l 486 160 b 543 26 486 99 486 26 b 599 122 561 26 599 38 l 599 201 l 624 201 l 624 124 m 413 332 b 225 286 368 329 292 324 b 126 126 144 242 126 168 b 250 11 126 63 181 11 b 413 193 326 11 413 72 m 511 717 l 317 808 l 122 717 l 108 739 l 318 901 l 528 739 m 536 1061 b 393 957 478 997 443 957 b 313 993 363 957 340 974 b 232 1029 283 1014 263 1029 b 115 957 189 1029 163 1003 l 100 972 b 243 1076 158 1036 193 1076 b 324 1040 274 1076 296 1060 b 404 1004 353 1019 374 1004 b 521 1076 447 1004 474 1031 l 536 1061 "},"´":{"ha":638,"x_min":0,"x_max":0,"o":"m 479 929 b 458 896 479 914 475 911 l 254 711 l 239 728 b 249 743 239 728 239 731 l 406 943 b 442 967 419 960 425 967 b 479 929 461 967 479 950 "},"́":{"ha":0,"x_min":0,"x_max":0,"o":"m -158 929 b -179 896 -158 914 -162 911 l -383 711 l -399 728 b -389 743 -399 728 -399 731 l -232 943 b -196 967 -218 960 -212 967 b -158 929 -176 967 -158 950 "},"Ȁ":{"ha":963,"x_min":0,"x_max":0,"o":"m 929 0 b 790 3 896 3 826 3 b 635 0 747 3 675 3 l 635 36 b 721 74 661 36 721 36 b 714 99 721 79 721 82 l 631 335 l 267 335 l 193 128 b 188 100 190 119 188 113 b 263 36 188 83 197 39 l 263 0 b 139 3 229 3 174 3 b 32 0 113 3 57 3 l 32 36 b 163 126 81 36 136 51 l 457 960 b 481 982 464 978 467 982 b 504 960 494 982 497 978 l 813 88 b 929 36 831 36 856 36 l 929 0 m 449 849 l 279 371 l 618 371 m 600 1038 b 581 1024 600 1033 585 1025 l 457 1208 b 443 1242 443 1228 443 1236 b 482 1278 443 1263 464 1278 b 518 1244 504 1278 510 1264 l 594 1054 l 600 1038 m 382 1038 b 363 1024 382 1033 367 1025 l 239 1208 b 225 1242 225 1228 225 1236 b 264 1278 225 1263 246 1278 b 300 1244 286 1278 292 1264 l 376 1054 l 382 1038 "},"ȁ":{"ha":638,"x_min":0,"x_max":0,"o":"m 624 124 b 521 -6 624 14 550 -6 b 418 111 460 -6 421 50 b 240 -11 388 32 317 -11 b 42 126 167 -11 42 19 b 154 297 42 179 67 249 b 413 353 232 339 331 350 l 413 414 b 267 592 413 531 336 592 b 114 479 218 592 143 567 b 131 482 118 481 125 482 b 181 432 154 482 181 467 b 131 382 181 393 149 382 b 81 436 122 382 81 385 b 269 614 81 528 160 614 b 428 554 317 614 376 600 b 486 360 486 500 486 451 l 486 160 b 543 26 486 99 486 26 b 599 122 561 26 599 38 l 599 201 l 624 201 l 624 124 m 413 332 b 225 286 368 329 292 324 b 126 126 144 242 126 168 b 250 11 126 63 181 11 b 413 193 326 11 413 72 m 474 726 b 454 713 474 722 458 714 l 331 897 b 317 931 317 917 317 925 b 356 967 317 951 338 967 b 392 933 378 967 383 953 l 468 743 l 474 726 m 256 726 b 236 713 256 722 240 714 l 113 897 b 99 931 99 917 99 925 b 138 967 99 951 119 967 b 174 933 160 967 165 953 l 250 743 l 256 726 "},"Ä":{"ha":963,"x_min":0,"x_max":0,"o":"m 929 0 b 790 3 896 3 826 3 b 635 0 747 3 675 3 l 635 36 b 721 74 661 36 721 36 b 714 99 721 79 721 82 l 631 335 l 267 335 l 193 128 b 188 100 190 119 188 113 b 263 36 188 83 197 39 l 263 0 b 139 3 229 3 174 3 b 32 0 113 3 57 3 l 32 36 b 163 126 81 36 136 51 l 457 960 b 481 982 464 978 467 982 b 504 960 494 982 497 978 l 813 88 b 929 36 831 36 856 36 l 929 0 m 449 849 l 279 371 l 618 371 m 422 1061 b 372 1010 422 1033 401 1010 b 322 1061 346 1010 322 1031 b 372 1111 322 1088 343 1111 b 422 1061 399 1111 422 1090 m 639 1061 b 589 1010 639 1033 618 1010 b 539 1061 563 1010 539 1031 b 589 1111 539 1088 560 1111 b 639 1061 615 1111 639 1090 "},"ä":{"ha":638,"x_min":0,"x_max":0,"o":"m 624 124 b 521 -6 624 14 550 -6 b 418 111 460 -6 421 50 b 240 -11 388 32 317 -11 b 42 126 167 -11 42 19 b 154 297 42 179 67 249 b 413 353 232 339 331 350 l 413 414 b 267 592 413 531 336 592 b 114 479 218 592 143 567 b 131 482 118 481 125 482 b 181 432 154 482 181 467 b 131 382 181 393 149 382 b 81 436 122 382 81 385 b 269 614 81 528 160 614 b 428 554 317 614 376 600 b 486 360 486 500 486 451 l 486 160 b 543 26 486 99 486 26 b 599 122 561 26 599 38 l 599 201 l 624 201 l 624 124 m 413 332 b 225 286 368 329 292 324 b 126 126 144 242 126 168 b 250 11 126 63 181 11 b 413 193 326 11 413 72 m 276 840 b 226 789 276 813 256 789 b 176 840 200 789 176 810 b 226 890 176 867 197 890 b 276 840 253 890 276 869 m 460 840 b 410 789 460 813 439 789 b 360 840 383 789 360 810 b 410 890 360 867 381 890 b 460 840 436 890 460 869 "},"Ạ":{"ha":963,"x_min":0,"x_max":0,"o":"m 929 0 b 790 3 896 3 826 3 b 635 0 747 3 675 3 l 635 36 b 721 74 661 36 721 36 b 714 99 721 79 721 82 l 631 335 l 267 335 l 193 128 b 188 100 190 119 188 113 b 263 36 188 83 197 39 l 263 0 b 139 3 229 3 174 3 b 32 0 113 3 57 3 l 32 36 b 163 126 81 36 136 51 l 457 960 b 481 982 464 978 467 982 b 504 960 494 982 497 978 l 813 88 b 929 36 831 36 856 36 l 929 0 m 449 849 l 279 371 l 618 371 m 538 -221 b 481 -278 538 -251 514 -278 b 425 -221 451 -278 425 -254 b 482 -164 425 -190 449 -164 b 538 -221 511 -164 538 -187 "},"ạ":{"ha":638,"x_min":0,"x_max":0,"o":"m 624 124 b 521 -6 624 14 550 -6 b 418 111 460 -6 421 50 b 240 -11 388 32 317 -11 b 42 126 167 -11 42 19 b 154 297 42 179 67 249 b 413 353 232 339 331 350 l 413 414 b 267 592 413 531 336 592 b 114 479 218 592 143 567 b 131 482 118 481 125 482 b 181 432 154 482 181 467 b 131 382 181 393 149 382 b 81 436 122 382 81 385 b 269 614 81 528 160 614 b 428 554 317 614 376 600 b 486 360 486 500 486 451 l 486 160 b 543 26 486 99 486 26 b 599 122 561 26 599 38 l 599 201 l 624 201 l 624 124 m 413 332 b 225 286 368 329 292 324 b 126 126 144 242 126 168 b 250 11 126 63 181 11 b 413 193 326 11 413 72 m 374 -221 b 317 -278 374 -251 350 -278 b 261 -221 288 -278 261 -254 b 318 -164 261 -190 285 -164 b 374 -221 347 -164 374 -187 "},"Æ":{"ha":1163,"x_min":0,"x_max":0,"o":"m 1083 0 l 451 0 l 451 36 b 535 94 532 36 535 44 l 535 438 l 304 438 l 196 135 b 188 100 192 124 188 113 b 263 36 188 90 192 39 l 263 0 b 139 3 231 3 172 3 b 32 0 113 3 56 3 l 32 36 b 163 126 78 38 135 49 l 442 911 b 400 913 429 913 413 913 l 350 913 l 350 949 l 1064 949 l 1097 642 l 1072 642 b 831 913 1051 815 1040 913 l 678 913 b 619 858 622 913 619 906 l 619 474 l 750 474 b 892 636 879 474 892 519 l 917 636 l 917 275 l 892 275 b 750 438 892 392 879 438 l 619 438 l 619 90 b 678 36 619 43 622 36 l 831 36 b 1108 351 1061 36 1078 143 l 1133 351 m 535 846 b 472 910 535 872 535 910 l 317 474 l 535 474 "},"æ":{"ha":928,"x_min":0,"x_max":0,"o":"m 899 351 b 865 326 899 328 897 326 l 500 326 b 543 117 500 274 500 189 b 707 14 594 32 665 14 b 871 157 772 14 842 57 b 886 175 875 172 876 175 b 897 164 893 175 897 172 b 699 -11 897 143 846 -11 b 476 121 640 -11 546 14 b 256 -11 449 53 368 -11 b 58 124 174 -11 58 22 b 182 294 58 194 106 260 b 426 344 269 336 347 340 l 426 411 b 281 592 426 536 347 592 b 128 479 235 592 157 568 b 144 482 132 481 139 482 b 194 432 168 482 194 467 b 144 382 194 393 163 382 b 94 436 136 382 94 385 b 283 614 94 528 174 614 b 483 499 372 614 449 565 b 683 614 543 586 619 614 b 899 351 828 614 899 490 m 824 347 b 681 592 822 396 817 592 b 501 347 625 592 515 546 l 824 347 m 439 185 b 435 225 439 199 439 206 b 426 322 426 264 426 283 b 143 124 204 317 143 203 b 265 11 143 65 193 11 b 439 185 358 11 439 88 "},"Ǽ":{"ha":1163,"x_min":0,"x_max":0,"o":"m 1083 0 l 451 0 l 451 36 b 535 94 532 36 535 44 l 535 438 l 304 438 l 196 135 b 188 100 192 124 188 113 b 263 36 188 90 192 39 l 263 0 b 139 3 231 3 172 3 b 32 0 113 3 56 3 l 32 36 b 163 126 78 38 135 49 l 442 911 b 400 913 429 913 413 913 l 350 913 l 350 949 l 1064 949 l 1097 642 l 1072 642 b 831 913 1051 815 1040 913 l 678 913 b 619 858 622 913 619 906 l 619 474 l 750 474 b 892 636 879 474 892 519 l 917 636 l 917 275 l 892 275 b 750 438 892 392 879 438 l 619 438 l 619 90 b 678 36 619 43 622 36 l 831 36 b 1108 351 1061 36 1078 143 l 1133 351 m 535 846 b 472 910 535 872 535 910 l 317 474 l 535 474 m 761 1199 b 735 1169 758 1183 754 1182 l 501 1024 b 490 1042 500 1026 490 1042 b 503 1056 490 1042 490 1044 l 692 1225 b 722 1243 706 1236 713 1243 b 761 1199 746 1243 764 1222 "},"ǽ":{"ha":928,"x_min":0,"x_max":0,"o":"m 899 351 b 865 326 899 328 897 326 l 500 326 b 543 117 500 274 500 189 b 707 14 594 32 665 14 b 871 157 772 14 842 57 b 886 175 875 172 876 175 b 897 164 893 175 897 172 b 699 -11 897 143 846 -11 b 476 121 640 -11 546 14 b 256 -11 449 53 368 -11 b 58 124 174 -11 58 22 b 182 294 58 194 106 260 b 426 344 269 336 347 340 l 426 411 b 281 592 426 536 347 592 b 128 479 235 592 157 568 b 144 482 132 481 139 482 b 194 432 168 482 194 467 b 144 382 194 393 163 382 b 94 436 136 382 94 385 b 283 614 94 528 174 614 b 483 499 372 614 449 565 b 683 614 543 586 619 614 b 899 351 828 614 899 490 m 824 347 b 681 592 822 396 817 592 b 501 347 625 592 515 546 l 824 347 m 439 185 b 435 225 439 199 439 206 b 426 322 426 264 426 283 b 143 124 204 317 143 203 b 265 11 143 65 193 11 b 439 185 358 11 439 88 m 624 929 b 603 896 624 914 619 911 l 399 711 l 383 728 b 393 743 383 728 383 731 l 550 943 b 586 967 564 960 569 967 b 624 929 606 967 624 950 "},"À":{"ha":963,"x_min":0,"x_max":0,"o":"m 929 0 b 790 3 896 3 826 3 b 635 0 747 3 675 3 l 635 36 b 721 74 661 36 721 36 b 714 99 721 79 721 82 l 631 335 l 267 335 l 193 128 b 188 100 190 119 188 113 b 263 36 188 83 197 39 l 263 0 b 139 3 229 3 174 3 b 32 0 113 3 57 3 l 32 36 b 163 126 81 36 136 51 l 457 960 b 481 982 464 978 467 982 b 504 960 494 982 497 978 l 813 88 b 929 36 831 36 856 36 l 929 0 m 449 849 l 279 371 l 618 371 m 572 1042 b 561 1024 572 1042 563 1026 l 328 1169 b 301 1199 308 1182 304 1183 b 339 1243 297 1222 315 1243 b 371 1225 350 1243 357 1236 l 560 1056 b 572 1042 572 1044 572 1042 "},"à":{"ha":638,"x_min":0,"x_max":0,"o":"m 624 124 b 521 -6 624 14 550 -6 b 418 111 460 -6 421 50 b 240 -11 388 32 317 -11 b 42 126 167 -11 42 19 b 154 297 42 179 67 249 b 413 353 232 339 331 350 l 413 414 b 267 592 413 531 336 592 b 114 479 218 592 143 567 b 131 482 118 481 125 482 b 181 432 154 482 181 467 b 131 382 181 393 149 382 b 81 436 122 382 81 385 b 269 614 81 528 160 614 b 428 554 317 614 376 600 b 486 360 486 500 486 451 l 486 160 b 543 26 486 99 486 26 b 599 122 561 26 599 38 l 599 201 l 624 201 l 624 124 m 413 332 b 225 286 368 329 292 324 b 126 126 144 242 126 168 b 250 11 126 63 181 11 b 413 193 326 11 413 72 m 383 711 l 179 896 b 158 929 163 911 158 914 b 196 967 158 950 176 967 b 232 943 213 967 218 960 l 389 743 b 399 728 399 731 399 728 "},"Ả":{"ha":963,"x_min":0,"x_max":0,"o":"m 929 0 b 790 3 896 3 826 3 b 635 0 747 3 675 3 l 635 36 b 721 74 661 36 721 36 b 714 99 721 79 721 82 l 631 335 l 267 335 l 193 128 b 188 100 190 119 188 113 b 263 36 188 83 197 39 l 263 0 b 139 3 229 3 174 3 b 32 0 113 3 57 3 l 32 36 b 163 126 81 36 136 51 l 457 960 b 481 982 464 978 467 982 b 504 960 494 982 497 978 l 813 88 b 929 36 831 36 856 36 l 929 0 m 449 849 l 279 371 l 618 371 m 607 1238 b 569 1178 607 1213 592 1190 b 481 1068 515 1149 481 1113 l 481 1040 b 472 1032 481 1036 476 1032 b 464 1040 468 1032 464 1036 l 464 1068 b 529 1192 464 1115 490 1158 b 549 1238 542 1201 549 1218 b 533 1293 549 1265 546 1282 b 472 1314 519 1308 499 1314 b 382 1271 433 1314 399 1297 l 390 1272 b 426 1238 410 1272 426 1258 b 390 1203 425 1215 410 1203 b 356 1238 372 1203 356 1215 b 472 1329 357 1292 411 1329 b 569 1306 511 1329 543 1324 b 607 1238 593 1290 607 1265 "},"ả":{"ha":638,"x_min":0,"x_max":0,"o":"m 624 124 b 521 -6 624 14 550 -6 b 418 111 460 -6 421 50 b 240 -11 388 32 317 -11 b 42 126 167 -11 42 19 b 154 297 42 179 67 249 b 413 353 232 339 331 350 l 413 414 b 267 592 413 531 336 592 b 114 479 218 592 143 567 b 131 482 118 481 125 482 b 181 432 154 482 181 467 b 131 382 181 393 149 382 b 81 436 122 382 81 385 b 269 614 81 528 160 614 b 428 554 317 614 376 600 b 486 360 486 500 486 451 l 486 160 b 543 26 486 99 486 26 b 599 122 561 26 599 38 l 599 201 l 624 201 l 624 124 m 413 332 b 225 286 368 329 292 324 b 126 126 144 242 126 168 b 250 11 126 63 181 11 b 413 193 326 11 413 72 m 444 896 b 407 836 444 871 429 849 b 318 726 353 807 318 771 l 318 699 b 310 690 318 694 314 690 b 301 699 306 690 301 694 l 301 726 b 367 850 301 774 328 817 b 386 896 379 860 386 876 b 371 951 386 924 383 940 b 310 972 357 967 336 972 b 219 929 271 972 236 956 l 228 931 b 264 896 247 931 264 917 b 228 861 263 874 247 861 b 193 896 210 861 193 874 b 310 988 194 950 249 988 b 407 964 349 988 381 982 b 444 896 431 949 444 924 "},"Α":{"ha":963,"x_min":0,"x_max":0,"o":"m 929 0 b 790 3 896 3 826 3 b 635 0 747 3 675 3 l 635 36 b 721 74 661 36 721 36 b 714 99 721 79 721 82 l 631 335 l 267 335 l 193 128 b 188 100 190 119 188 113 b 263 36 188 83 197 39 l 263 0 b 139 3 229 3 174 3 b 32 0 113 3 57 3 l 32 36 b 163 126 81 36 136 51 l 457 960 b 481 982 464 978 467 982 b 504 960 494 982 497 978 l 813 88 b 929 36 831 36 856 36 l 929 0 m 449 849 l 279 371 l 618 371 "},"Ā":{"ha":963,"x_min":0,"x_max":0,"o":"m 929 0 b 790 3 896 3 826 3 b 635 0 747 3 675 3 l 635 36 b 721 74 661 36 721 36 b 714 99 721 79 721 82 l 631 335 l 267 335 l 193 128 b 188 100 190 119 188 113 b 263 36 188 83 197 39 l 263 0 b 139 3 229 3 174 3 b 32 0 113 3 57 3 l 32 36 b 163 126 81 36 136 51 l 457 960 b 481 982 464 978 467 982 b 504 960 494 982 497 978 l 813 88 b 929 36 831 36 856 36 l 929 0 m 449 849 l 279 371 l 618 371 m 244 1038 l 244 1069 l 717 1069 l 717 1038 "},"ā":{"ha":638,"x_min":0,"x_max":0,"o":"m 624 124 b 521 -6 624 14 550 -6 b 418 111 460 -6 421 50 b 240 -11 388 32 317 -11 b 42 126 167 -11 42 19 b 154 297 42 179 67 249 b 413 353 232 339 331 350 l 413 414 b 267 592 413 531 336 592 b 114 479 218 592 143 567 b 131 482 118 481 125 482 b 181 432 154 482 181 467 b 131 382 181 393 149 382 b 81 436 122 382 81 385 b 269 614 81 528 160 614 b 428 554 317 614 376 600 b 486 360 486 500 486 451 l 486 160 b 543 26 486 99 486 26 b 599 122 561 26 599 38 l 599 201 l 624 201 l 624 124 m 413 332 b 225 286 368 329 292 324 b 126 126 144 242 126 168 b 250 11 126 63 181 11 b 413 193 326 11 413 72 m 82 824 l 82 856 l 554 856 l 554 824 "},"∢":{"ha":1000,"x_min":0,"x_max":0,"o":"m 935 24 b 903 1 935 7 918 -4 l 714 75 b 621 -81 690 19 658 -32 b 603 -89 617 -86 610 -89 b 579 -65 589 -89 579 -78 b 583 -50 579 -60 581 -54 b 671 93 619 -7 649 42 l 79 325 b 64 347 69 329 64 338 b 79 369 64 357 69 365 l 671 601 b 583 744 649 653 619 701 b 579 760 581 749 579 754 b 603 783 579 772 589 783 b 621 775 610 783 617 781 b 714 619 658 726 690 675 l 903 693 b 935 671 918 699 935 688 b 919 649 935 661 929 653 l 732 575 b 771 347 757 503 771 425 b 732 119 771 269 757 192 l 919 46 b 935 24 929 42 935 33 m 724 347 b 688 558 724 419 711 490 l 151 347 l 688 136 b 724 347 711 204 724 275 "},"〈":{"ha":507,"x_min":0,"x_max":0,"o":"m 433 -321 b 410 -346 433 -332 422 -346 b 379 -311 392 -346 385 -328 l 156 308 b 143 347 151 321 143 335 b 157 393 143 363 153 379 l 368 976 b 403 1040 378 1000 382 1035 l 410 1042 b 433 1021 421 1042 431 1032 b 428 997 433 1013 431 1004 l 208 389 b 194 347 204 376 194 361 b 207 311 196 335 203 322 l 233 238 l 414 -261 b 433 -318 419 -279 429 -299 l 433 -321 "},"〉":{"ha":507,"x_min":0,"x_max":0,"o":"m 363 349 b 349 303 363 333 353 317 l 207 -87 l 136 -285 b 99 -346 128 -307 122 -343 b 74 -322 79 -346 74 -332 b 81 -292 74 -312 78 -300 l 297 307 b 311 349 301 319 311 335 b 299 386 310 361 303 375 l 90 963 b 72 1015 83 979 76 997 b 90 1040 72 1026 79 1038 l 96 1042 b 126 1007 115 1042 121 1024 l 139 974 l 321 468 l 350 389 b 363 349 354 376 363 363 "},"Ą":{"ha":963,"x_min":0,"x_max":0,"o":"m 931 -160 b 767 -293 908 -239 836 -293 b 613 -168 678 -293 613 -232 b 722 3 613 -96 657 -43 b 635 0 690 3 657 1 l 635 36 b 721 74 661 36 721 36 b 714 99 721 79 721 82 l 631 335 l 267 335 l 193 128 b 188 100 190 119 188 113 b 263 36 188 83 197 39 l 263 0 b 139 3 229 3 174 3 b 32 0 113 3 57 3 l 32 36 b 163 126 81 36 136 51 l 457 960 b 481 982 464 978 467 982 b 504 960 494 982 497 978 l 813 88 b 929 36 831 36 856 36 l 929 0 b 790 3 896 3 826 3 b 701 -69 750 3 726 -36 b 679 -132 688 -89 679 -110 b 800 -228 679 -196 750 -228 b 907 -150 844 -228 883 -200 b 931 -160 914 -136 935 -143 m 449 849 l 279 371 l 618 371 "},"ą":{"ha":638,"x_min":0,"x_max":0,"o":"m 625 -160 b 461 -293 603 -239 531 -293 b 307 -168 372 -293 307 -232 b 450 29 307 -96 385 -17 b 418 111 432 51 419 79 b 240 -11 388 32 317 -11 b 42 126 167 -11 42 19 b 154 297 42 179 67 249 b 413 353 232 339 331 350 l 413 414 b 267 592 413 531 336 592 b 114 479 218 592 143 567 b 131 482 118 481 125 482 b 181 432 154 482 181 467 b 131 382 181 393 149 382 b 81 436 122 382 81 385 b 269 614 81 528 160 614 b 428 554 317 614 376 600 b 486 360 486 500 486 451 l 486 160 b 543 26 486 99 486 26 b 599 122 561 26 599 38 l 599 201 l 624 201 l 624 124 b 521 -6 624 14 550 -6 b 476 7 504 -6 489 -1 b 374 -132 428 -26 374 -76 b 494 -228 374 -196 444 -228 b 601 -150 539 -228 578 -200 b 625 -160 608 -136 629 -143 m 413 332 b 225 286 368 329 292 324 b 126 126 144 242 126 168 b 250 11 126 63 181 11 b 413 193 326 11 413 72 "},"Å":{"ha":963,"x_min":0,"x_max":0,"o":"m 929 0 b 790 3 896 3 826 3 b 635 0 747 3 675 3 l 635 36 b 721 74 661 36 721 36 b 714 99 721 79 721 82 l 631 335 l 267 335 l 193 128 b 188 100 190 119 188 113 b 263 36 188 83 197 39 l 263 0 b 139 3 229 3 174 3 b 32 0 113 3 57 3 l 32 36 b 163 126 81 36 136 51 l 457 960 b 481 982 464 978 467 982 b 504 960 494 982 497 978 l 813 88 b 929 36 831 36 856 36 l 929 0 m 449 849 l 279 371 l 618 371 m 568 1104 b 482 1194 568 1161 535 1194 b 396 1104 431 1194 396 1163 b 482 1014 396 1047 429 1014 b 568 1104 533 1014 568 1046 m 603 1104 b 482 982 603 1035 547 982 b 361 1104 417 982 361 1035 b 482 1226 361 1174 417 1226 b 603 1104 547 1226 603 1174 "},"å":{"ha":638,"x_min":0,"x_max":0,"o":"m 624 124 b 521 -6 624 14 550 -6 b 418 111 460 -6 421 50 b 240 -11 388 32 317 -11 b 42 126 167 -11 42 19 b 154 297 42 179 67 249 b 413 353 232 339 331 350 l 413 414 b 267 592 413 531 336 592 b 114 479 218 592 143 567 b 131 482 118 481 125 482 b 181 432 154 482 181 467 b 131 382 181 393 149 382 b 81 436 122 382 81 385 b 269 614 81 528 160 614 b 428 554 317 614 376 600 b 486 360 486 500 486 451 l 486 160 b 543 26 486 99 486 26 b 599 122 561 26 599 38 l 599 201 l 624 201 l 624 124 m 413 332 b 225 286 368 329 292 324 b 126 126 144 242 126 168 b 250 11 126 63 181 11 b 413 193 326 11 413 72 m 406 844 b 319 935 406 901 372 935 b 233 844 268 935 233 903 b 319 754 233 788 267 754 b 406 844 371 754 406 786 m 440 844 b 319 722 440 775 385 722 b 199 844 254 722 199 775 b 319 967 199 914 254 967 b 440 844 385 967 440 914 "},"Ǻ":{"ha":963,"x_min":0,"x_max":0,"o":"m 929 0 b 790 3 896 3 826 3 b 635 0 747 3 675 3 l 635 36 b 721 74 661 36 721 36 b 714 99 721 79 721 82 l 631 335 l 267 335 l 193 128 b 188 100 190 119 188 113 b 263 36 188 83 197 39 l 263 0 b 139 3 229 3 174 3 b 32 0 113 3 57 3 l 32 36 b 163 126 81 36 136 51 l 457 960 b 481 982 464 978 467 982 b 504 960 494 982 497 978 l 813 88 b 929 36 831 36 856 36 l 929 0 m 449 849 l 279 371 l 618 371 m 568 1104 b 482 1194 568 1161 535 1194 b 396 1104 431 1194 396 1163 b 482 1014 396 1047 429 1014 b 568 1104 533 1014 568 1046 m 603 1104 b 482 982 603 1035 547 982 b 361 1104 417 982 361 1035 b 482 1226 361 1174 417 1226 b 603 1104 547 1226 603 1174 m 617 1429 b 590 1400 614 1414 610 1413 l 357 1254 b 346 1272 356 1257 346 1272 b 358 1286 346 1272 346 1275 l 547 1456 b 578 1474 561 1467 568 1474 b 617 1429 601 1474 619 1453 "},"ǻ":{"ha":638,"x_min":0,"x_max":0,"o":"m 624 124 b 521 -6 624 14 550 -6 b 418 111 460 -6 421 50 b 240 -11 388 32 317 -11 b 42 126 167 -11 42 19 b 154 297 42 179 67 249 b 413 353 232 339 331 350 l 413 414 b 267 592 413 531 336 592 b 114 479 218 592 143 567 b 131 482 118 481 125 482 b 181 432 154 482 181 467 b 131 382 181 393 149 382 b 81 436 122 382 81 385 b 269 614 81 528 160 614 b 428 554 317 614 376 600 b 486 360 486 500 486 451 l 486 160 b 543 26 486 99 486 26 b 599 122 561 26 599 38 l 599 201 l 624 201 l 624 124 m 413 332 b 225 286 368 329 292 324 b 126 126 144 242 126 168 b 250 11 126 63 181 11 b 413 193 326 11 413 72 m 406 844 b 319 935 406 901 372 935 b 233 844 268 935 233 903 b 319 754 233 788 267 754 b 406 844 371 754 406 786 m 440 844 b 319 722 440 775 385 722 b 199 844 254 722 199 775 b 319 967 199 914 254 967 b 440 844 385 967 440 914 m 454 1169 b 428 1140 451 1154 447 1153 l 194 994 b 183 1013 193 997 183 1013 b 196 1026 183 1013 183 1015 l 385 1196 b 415 1214 399 1207 406 1214 b 454 1169 439 1214 457 1193 "},"↓":{"ha":653,"x_min":0,"x_max":0,"o":"m 617 53 b 326 -271 463 17 347 -112 b 36 53 307 -112 192 17 l 36 101 b 303 -92 150 74 244 3 l 303 940 b 351 940 303 972 351 972 l 351 -92 b 617 101 410 3 504 74 l 617 53 "},"←":{"ha":1306,"x_min":0,"x_max":0,"o":"m 1232 349 b 1197 324 1232 326 1213 324 l 200 324 b 386 1 293 236 372 128 l 338 1 b 72 347 315 150 210 286 l 72 349 b 338 694 210 410 315 546 l 386 694 b 200 372 372 565 294 461 l 1194 372 b 1232 349 1213 372 1231 369 "},"→":{"ha":1306,"x_min":0,"x_max":0,"o":"m 1232 347 b 967 1 1094 286 989 150 l 918 1 b 1104 324 932 131 1010 235 l 110 324 b 72 347 92 324 74 326 b 107 372 72 369 92 372 l 1104 372 b 918 694 1011 460 932 568 l 967 694 b 1232 349 989 546 1094 410 l 1232 347 "},"↑":{"ha":653,"x_min":0,"x_max":0,"o":"m 617 593 b 351 786 504 621 410 690 l 351 -246 b 303 -246 351 -278 303 -278 l 303 786 b 36 593 244 690 150 621 l 36 642 b 326 964 192 678 307 807 b 617 642 347 807 463 678 l 617 593 "},"∗":{"ha":653,"x_min":0,"x_max":0,"o":"m 565 217 b 538 186 565 200 554 186 b 490 213 519 186 503 203 l 338 326 b 356 85 343 247 356 164 b 326 50 356 69 349 50 b 296 85 303 50 296 68 b 314 326 296 164 308 247 l 161 213 b 114 186 149 203 132 186 b 86 217 97 186 86 200 b 222 306 86 244 179 282 b 303 347 250 319 278 339 l 303 350 b 222 392 278 358 250 378 b 86 481 179 415 86 453 b 114 511 86 497 97 511 b 161 485 132 511 149 494 l 314 371 b 296 613 308 450 296 533 b 326 647 296 629 303 647 b 356 613 349 647 356 628 b 338 371 356 533 343 450 l 490 485 b 538 511 503 494 519 511 b 565 481 554 511 565 497 b 429 392 565 453 472 415 b 349 350 401 378 374 358 l 349 347 b 429 306 374 339 401 319 b 565 217 472 282 565 244 "},"Ã":{"ha":963,"x_min":0,"x_max":0,"o":"m 929 0 b 790 3 896 3 826 3 b 635 0 747 3 675 3 l 635 36 b 721 74 661 36 721 36 b 714 99 721 79 721 82 l 631 335 l 267 335 l 193 128 b 188 100 190 119 188 113 b 263 36 188 83 197 39 l 263 0 b 139 3 229 3 174 3 b 32 0 113 3 57 3 l 32 36 b 163 126 81 36 136 51 l 457 960 b 481 982 464 978 467 982 b 504 960 494 982 497 978 l 813 88 b 929 36 831 36 856 36 l 929 0 m 449 849 l 279 371 l 618 371 m 699 1114 b 556 1010 640 1050 606 1010 b 475 1046 525 1010 503 1026 b 394 1082 446 1067 425 1082 b 278 1010 351 1082 325 1056 l 263 1025 b 406 1129 321 1089 356 1129 b 486 1093 436 1129 458 1113 b 567 1057 515 1072 536 1057 b 683 1129 610 1057 636 1083 l 699 1114 "},"ã":{"ha":638,"x_min":0,"x_max":0,"o":"m 624 124 b 521 -6 624 14 550 -6 b 418 111 460 -6 421 50 b 240 -11 388 32 317 -11 b 42 126 167 -11 42 19 b 154 297 42 179 67 249 b 413 353 232 339 331 350 l 413 414 b 267 592 413 531 336 592 b 114 479 218 592 143 567 b 131 482 118 481 125 482 b 181 432 154 482 181 467 b 131 382 181 393 149 382 b 81 436 122 382 81 385 b 269 614 81 528 160 614 b 428 554 317 614 376 600 b 486 360 486 500 486 451 l 486 160 b 543 26 486 99 486 26 b 599 122 561 26 599 38 l 599 201 l 624 201 l 624 124 m 413 332 b 225 286 368 329 292 324 b 126 126 144 242 126 168 b 250 11 126 63 181 11 b 413 193 326 11 413 72 m 536 883 b 393 779 478 819 443 779 b 313 815 363 779 340 796 b 232 851 283 836 263 851 b 115 779 189 851 163 825 l 100 794 b 243 899 158 858 193 899 b 324 863 274 899 296 882 b 404 826 353 842 374 826 b 521 899 447 826 474 853 l 536 883 "},"฿":{"ha":908,"x_min":0,"x_max":0,"o":"m 843 253 b 550 0 843 126 728 0 l 461 0 l 461 -36 b 443 -54 461 -46 453 -54 b 425 -36 433 -54 425 -46 l 425 0 l 72 0 l 72 36 b 183 99 168 36 183 36 l 183 850 b 72 913 183 913 168 913 l 72 949 l 425 949 l 425 985 b 443 1003 425 994 433 1003 b 461 985 453 1003 461 994 l 461 949 l 514 949 b 807 715 693 949 807 831 b 581 494 807 610 714 521 b 843 253 729 485 843 378 m 706 715 b 507 913 706 801 644 913 l 461 913 l 461 504 l 471 504 b 706 715 621 504 706 610 m 425 913 l 329 913 b 271 858 274 913 271 906 l 271 504 l 425 504 m 740 254 b 528 482 740 356 671 482 l 461 482 l 461 36 l 510 36 b 740 254 661 36 740 153 m 425 482 l 271 482 l 271 90 b 329 36 271 43 274 36 l 425 36 "},"Β":{"ha":908,"x_min":0,"x_max":0,"o":"m 843 253 b 550 0 843 126 728 0 l 72 0 l 72 36 b 183 99 168 36 183 36 l 183 850 b 72 913 183 913 168 913 l 72 949 l 514 949 b 807 715 693 949 807 831 b 581 494 807 610 714 521 b 843 253 729 485 843 378 m 706 715 b 507 913 706 801 644 913 l 329 913 b 271 858 274 913 271 906 l 271 504 l 471 504 b 706 715 621 504 706 610 m 740 254 b 528 482 740 356 671 482 l 271 482 l 271 90 b 329 36 271 43 274 36 l 510 36 b 740 254 661 36 740 153 "},"␢":{"ha":710,"x_min":0,"x_max":0,"o":"m 663 300 b 383 -11 663 111 522 -11 b 203 99 303 -11 243 33 l 163 0 l 138 0 l 138 682 l 74 615 b 61 610 71 613 67 610 b 43 628 51 610 43 618 b 49 640 43 632 44 638 l 138 735 l 138 838 b 43 913 138 904 125 913 l 43 949 l 208 964 l 208 810 l 313 921 b 326 926 315 925 321 926 b 344 908 336 926 344 918 b 339 896 344 904 342 900 l 208 758 l 208 508 b 397 608 250 563 311 608 b 663 300 538 608 663 478 m 574 301 b 389 586 574 564 431 586 b 231 496 363 586 285 579 b 211 438 211 467 211 463 l 211 163 b 226 108 211 138 211 135 b 376 11 271 28 333 11 b 574 301 410 11 574 26 "},"˘":{"ha":638,"x_min":0,"x_max":0,"o":"m 511 960 b 318 718 508 817 424 718 b 125 960 213 718 128 817 l 147 960 b 318 757 150 835 229 757 b 489 960 407 757 486 836 l 511 960 "},"̮":{"ha":0,"x_min":0,"x_max":0,"o":"m -126 -100 b -319 -342 -129 -243 -214 -342 b -512 -100 -425 -342 -510 -243 l -490 -100 b -319 -303 -487 -225 -408 -303 b -149 -100 -231 -303 -151 -224 l -126 -100 "},"̯":{"ha":0,"x_min":0,"x_max":0,"o":"m -149 -342 b -319 -139 -151 -217 -231 -139 b -490 -342 -408 -139 -487 -218 l -512 -342 b -319 -100 -510 -199 -425 -100 b -126 -342 -214 -100 -129 -199 "},"̆":{"ha":0,"x_min":0,"x_max":0,"o":"m -126 960 b -319 718 -129 817 -214 718 b -512 960 -425 718 -510 817 l -490 960 b -319 757 -487 835 -408 757 b -149 960 -231 757 -151 836 l -126 960 "},"̑":{"ha":0,"x_min":0,"x_max":0,"o":"m -149 718 b -319 921 -151 843 -231 921 b -490 718 -408 921 -487 842 l -512 718 b -319 960 -510 861 -425 960 b -126 718 -214 960 -129 861 "},"¦":{"ha":386,"x_min":0,"x_max":0,"o":"m 221 476 b 193 458 221 465 207 458 b 165 476 179 458 165 465 l 165 996 b 193 1042 165 1015 165 1042 b 221 996 221 1042 221 1015 l 221 476 m 221 -301 b 193 -347 221 -321 221 -347 b 165 -301 165 -347 165 -321 l 165 218 b 193 236 165 229 179 236 b 221 218 207 236 221 229 l 221 -301 "},"•":{"ha":1000,"x_min":0,"x_max":0,"o":"m 656 369 b 500 214 656 275 576 214 b 344 369 421 214 344 275 b 500 525 344 464 424 525 b 656 369 579 525 656 464 "},"Ć":{"ha":928,"x_min":0,"x_max":0,"o":"m 863 325 b 518 -22 863 165 731 -22 b 64 475 279 -22 64 186 b 517 971 64 761 279 971 b 775 835 624 971 707 921 l 836 951 b 853 969 846 968 847 969 b 863 943 861 969 863 968 l 863 614 b 847 586 863 589 863 586 b 832 606 835 586 835 589 b 535 935 806 799 692 935 b 169 475 400 935 169 838 b 538 14 169 114 396 14 b 838 328 688 14 826 133 b 850 344 839 340 839 344 b 863 325 863 344 863 339 m 690 1199 b 664 1169 688 1183 683 1182 l 431 1024 b 419 1042 429 1026 419 1042 b 432 1056 419 1042 419 1044 l 621 1225 b 651 1243 635 1236 642 1243 b 690 1199 675 1243 693 1222 "},"ć":{"ha":564,"x_min":0,"x_max":0,"o":"m 533 164 b 318 -11 533 149 490 -11 b 46 300 176 -11 46 115 b 318 614 46 478 171 614 b 519 440 425 614 519 539 b 469 388 519 392 479 388 b 419 438 451 388 419 399 b 485 486 419 486 458 486 b 319 589 454 563 374 589 b 135 301 238 589 135 513 b 331 14 135 96 242 14 b 506 154 390 14 469 42 b 522 174 511 172 513 174 b 533 164 532 174 533 169 m 472 929 b 451 896 472 914 468 911 l 247 711 l 232 728 b 242 743 232 728 232 731 l 399 943 b 435 967 413 960 418 967 b 472 929 454 967 472 950 "},"ˇ":{"ha":638,"x_min":0,"x_max":0,"o":"m 318 717 l 107 942 l 125 961 l 318 811 l 511 961 l 529 942 "},"̌":{"ha":0,"x_min":0,"x_max":0,"o":"m -319 717 l -531 942 l -512 961 l -319 811 l -126 961 l -108 942 "},"Č":{"ha":928,"x_min":0,"x_max":0,"o":"m 863 325 b 518 -22 863 165 731 -22 b 64 475 279 -22 64 186 b 517 971 64 761 279 971 b 775 835 624 971 707 921 l 836 951 b 853 969 846 968 847 969 b 863 943 861 969 863 968 l 863 614 b 847 586 863 589 863 586 b 832 606 835 586 835 589 b 535 935 806 799 692 935 b 169 475 400 935 169 838 b 538 14 169 114 396 14 b 838 328 688 14 826 133 b 850 344 839 340 839 344 b 863 325 863 344 863 339 m 510 1010 l 300 1172 l 317 1194 l 511 1103 l 706 1194 l 719 1172 "},"č":{"ha":564,"x_min":0,"x_max":0,"o":"m 533 164 b 318 -11 533 149 490 -11 b 46 300 176 -11 46 115 b 318 614 46 478 171 614 b 519 440 425 614 519 539 b 469 388 519 392 479 388 b 419 438 451 388 419 399 b 485 486 419 486 458 486 b 319 589 454 563 374 589 b 135 301 238 589 135 513 b 331 14 135 96 242 14 b 506 154 390 14 469 42 b 522 174 511 172 513 174 b 533 164 532 174 533 169 m 311 717 l 100 942 l 118 961 l 311 811 l 504 961 l 522 942 "},"Ç":{"ha":928,"x_min":0,"x_max":0,"o":"m 863 325 b 535 -22 863 169 738 -12 l 535 -67 b 679 -172 608 -67 679 -106 b 365 -278 679 -278 508 -278 l 340 -278 l 340 -253 l 353 -253 b 590 -172 461 -253 590 -253 b 485 -92 590 -122 539 -92 l 485 -21 b 64 475 260 -3 64 200 b 517 971 64 761 279 971 b 775 835 624 971 707 921 l 836 951 b 853 969 846 968 847 969 b 863 943 861 969 863 968 l 863 614 b 847 586 863 589 863 586 b 832 606 835 586 835 589 b 535 935 806 799 692 935 b 169 475 400 935 169 838 b 538 14 169 114 396 14 b 838 328 688 14 826 133 b 850 344 839 340 839 344 b 863 325 863 344 863 339 "},"ç":{"ha":564,"x_min":0,"x_max":0,"o":"m 533 164 b 336 -11 533 149 493 0 l 336 -67 b 479 -172 408 -67 479 -106 b 167 -278 479 -278 310 -278 l 142 -278 l 142 -253 l 154 -253 b 390 -172 263 -253 390 -253 b 286 -92 390 -122 339 -92 l 286 -8 b 46 300 157 8 46 129 b 318 614 46 478 171 614 b 519 440 425 614 519 539 b 469 388 519 392 479 388 b 419 438 451 388 419 399 b 485 486 419 486 458 486 b 319 589 454 563 374 589 b 135 301 238 589 135 513 b 331 14 135 96 242 14 b 506 154 390 14 469 42 b 522 174 511 172 513 174 b 533 164 532 174 533 169 "},"Ĉ":{"ha":928,"x_min":0,"x_max":0,"o":"m 863 325 b 518 -22 863 165 731 -22 b 64 475 279 -22 64 186 b 517 971 64 761 279 971 b 775 835 624 971 707 921 l 836 951 b 853 969 846 968 847 969 b 863 943 861 969 863 968 l 863 614 b 847 586 863 589 863 586 b 832 606 835 586 835 589 b 535 935 806 799 692 935 b 169 475 400 935 169 838 b 538 14 169 114 396 14 b 838 328 688 14 826 133 b 850 344 839 340 839 344 b 863 325 863 344 863 339 m 703 1010 l 508 1101 l 314 1010 l 300 1032 l 510 1194 l 719 1032 "},"ĉ":{"ha":564,"x_min":0,"x_max":0,"o":"m 533 164 b 318 -11 533 149 490 -11 b 46 300 176 -11 46 115 b 318 614 46 478 171 614 b 519 440 425 614 519 539 b 469 388 519 392 479 388 b 419 438 451 388 419 399 b 485 486 419 486 458 486 b 319 589 454 563 374 589 b 135 301 238 589 135 513 b 331 14 135 96 242 14 b 506 154 390 14 469 42 b 522 174 511 172 513 174 b 533 164 532 174 533 169 m 504 717 l 311 867 l 118 717 l 100 736 l 311 961 l 522 736 "},"Ċ":{"ha":928,"x_min":0,"x_max":0,"o":"m 863 325 b 518 -22 863 165 731 -22 b 64 475 279 -22 64 186 b 517 971 64 761 279 971 b 775 835 624 971 707 921 l 836 951 b 853 969 846 968 847 969 b 863 943 861 969 863 968 l 863 614 b 847 586 863 589 863 586 b 832 606 835 586 835 589 b 535 935 806 799 692 935 b 169 475 400 935 169 838 b 538 14 169 114 396 14 b 838 328 688 14 826 133 b 850 344 839 340 839 344 b 863 325 863 344 863 339 m 565 1089 b 508 1032 565 1058 542 1032 b 453 1089 479 1032 453 1056 b 510 1146 453 1119 476 1146 b 565 1089 539 1146 565 1122 "},"ċ":{"ha":564,"x_min":0,"x_max":0,"o":"m 533 164 b 318 -11 533 149 490 -11 b 46 300 176 -11 46 115 b 318 614 46 478 171 614 b 519 440 425 614 519 539 b 469 388 519 392 479 388 b 419 438 451 388 419 399 b 485 486 419 486 458 486 b 319 589 454 563 374 589 b 135 301 238 589 135 513 b 331 14 135 96 242 14 b 506 154 390 14 469 42 b 522 174 511 172 513 174 b 533 164 532 174 533 169 m 367 839 b 310 782 367 808 343 782 b 254 839 281 782 254 806 b 311 896 254 869 278 896 b 367 839 340 896 367 872 "},"¸":{"ha":564,"x_min":0,"x_max":0,"o":"m 451 -172 b 138 -278 451 -278 281 -278 l 113 -278 l 113 -253 l 125 -253 b 363 -172 233 -253 363 -253 b 257 -92 363 -122 311 -92 l 257 6 l 307 6 l 307 -67 b 451 -172 381 -67 451 -106 "},"¢":{"ha":564,"x_min":0,"x_max":0,"o":"m 533 164 b 329 -11 533 149 492 -4 l 329 -36 b 311 -54 329 -46 321 -54 b 293 -36 300 -54 293 -46 l 293 -10 b 46 300 161 4 46 126 b 293 613 46 467 157 597 l 293 635 b 311 653 293 644 300 653 b 329 635 321 653 329 644 l 329 614 b 519 440 431 608 519 536 b 469 388 519 392 479 388 b 419 438 451 388 419 399 b 485 486 419 486 458 486 b 329 589 456 558 382 586 l 329 14 l 331 14 b 506 154 390 14 469 42 b 522 174 511 172 513 174 b 533 164 532 174 533 169 m 293 586 b 135 301 217 571 135 490 b 293 19 135 125 214 39 "},"℃":{"ha":1233,"x_min":0,"x_max":0,"o":"m 1160 329 b 833 -21 1160 147 1014 -12 l 813 -21 b 363 474 549 -21 363 224 b 813 972 363 726 550 972 b 1072 836 919 972 1007 919 b 1150 972 1093 881 1138 972 b 1160 960 1158 972 1160 965 l 1160 603 b 1144 588 1160 592 1154 588 b 1126 629 1122 588 1131 614 b 835 936 1101 769 1004 936 b 524 739 701 936 583 856 b 468 471 481 657 468 563 b 568 144 468 354 494 236 b 835 15 632 67 733 15 b 1133 313 1004 15 1122 163 b 1147 346 1136 324 1129 346 b 1160 339 1153 346 1158 343 l 1160 329 m 290 804 b 160 660 290 729 233 669 l 147 660 b 0 806 56 660 0 732 b 131 950 0 881 57 940 l 143 950 b 290 804 235 950 290 878 m 242 815 b 144 901 233 864 194 901 b 49 806 94 901 49 857 l 49 794 b 146 708 57 746 96 708 b 242 804 196 708 242 753 "},"Χ":{"ha":963,"x_min":0,"x_max":0,"o":"m 943 0 b 804 3 910 3 840 3 b 646 0 758 3 690 3 l 646 36 b 707 74 694 39 707 63 b 696 97 707 78 707 82 l 454 450 l 232 128 b 218 90 225 118 218 108 b 274 36 218 68 231 40 l 274 0 b 136 3 239 3 174 3 b 18 0 103 3 50 3 l 18 36 b 194 124 44 36 135 38 l 436 475 l 168 867 b 36 913 138 910 113 913 l 36 949 b 175 946 69 946 139 946 b 333 949 221 946 289 946 l 333 913 b 272 875 288 911 272 888 b 283 851 272 871 274 867 l 489 551 l 672 817 b 689 858 682 831 689 842 b 633 913 689 881 678 908 l 633 949 b 771 946 668 946 725 946 b 889 949 804 946 857 946 l 889 913 b 713 822 775 911 733 851 l 507 526 l 813 82 b 943 36 840 43 854 36 l 943 0 "},"ˆ":{"ha":638,"x_min":0,"x_max":0,"o":"m 511 717 l 318 867 l 125 717 l 107 736 l 318 961 l 529 736 "},"̂":{"ha":0,"x_min":0,"x_max":0,"o":"m -126 717 l -319 867 l -512 717 l -531 736 l -319 961 l -108 736 "},"₡":{"ha":928,"x_min":0,"x_max":0,"o":"m 863 325 b 528 -22 863 168 735 -17 l 528 -36 b 510 -54 528 -46 519 -54 b 492 -36 500 -54 492 -46 l 492 -21 b 64 475 264 -7 64 197 b 492 969 64 751 264 956 l 492 985 b 510 1003 492 994 500 1003 b 528 985 519 1003 528 994 l 528 971 b 775 835 629 967 710 918 l 836 951 b 853 969 846 968 847 969 b 863 943 861 969 863 968 l 863 614 b 847 586 863 589 863 586 b 832 606 835 586 835 589 b 535 935 806 799 692 935 l 528 935 l 528 14 l 538 14 b 838 328 688 14 826 133 b 850 344 839 340 839 344 b 863 325 863 344 863 339 m 492 932 b 169 475 357 913 169 801 b 492 17 169 150 351 38 "},"̦":{"ha":0,"x_min":0,"x_max":0,"o":"m -271 -165 b -349 -354 -271 -281 -343 -354 b -357 -346 -353 -354 -357 -350 b -353 -336 -357 -346 -357 -342 b -287 -164 -308 -285 -287 -226 b -290 -135 -287 -147 -287 -144 b -324 -151 -299 -147 -311 -151 b -367 -110 -347 -151 -367 -136 b -324 -67 -367 -82 -347 -67 b -271 -165 -275 -67 -271 -131 "},"©":{"ha":949,"x_min":0,"x_max":0,"o":"m 949 475 b 475 0 949 213 736 0 b 0 475 213 0 0 213 b 475 949 0 736 213 949 b 949 475 736 949 949 736 m 901 475 b 475 901 901 710 710 901 b 47 475 239 901 47 710 b 475 47 47 239 239 47 b 901 475 710 47 901 239 m 694 382 b 481 165 694 282 613 165 b 199 475 332 165 199 296 b 481 783 199 653 332 783 b 640 699 546 783 599 751 l 678 771 b 689 782 685 782 685 782 b 694 765 694 782 694 782 l 694 561 b 685 544 694 546 694 544 b 676 556 678 544 678 546 b 492 761 660 676 589 761 b 264 475 407 761 264 700 b 493 189 264 250 404 189 b 679 383 586 189 672 263 b 688 393 681 392 681 393 b 694 382 694 393 694 390 "},"¤":{"ha":1000,"x_min":0,"x_max":0,"o":"m 808 654 b 794 607 825 638 808 621 l 692 504 b 747 347 726 461 747 407 b 690 190 747 288 726 232 l 794 86 b 807 38 808 72 825 56 b 760 51 790 21 774 38 l 656 156 b 500 100 614 121 560 100 b 343 156 440 100 386 121 l 239 51 b 190 39 225 38 208 21 b 204 86 174 56 190 72 l 308 190 b 253 347 274 233 253 288 b 308 503 253 407 274 461 l 204 607 b 192 656 190 621 174 638 b 239 642 208 672 225 656 l 343 538 b 500 594 385 574 440 594 b 657 539 560 594 614 574 l 760 642 b 808 654 774 656 790 672 m 700 347 b 500 547 700 458 610 547 b 300 347 389 547 300 458 b 500 147 300 236 389 147 b 700 347 610 147 700 236 "},"†":{"ha":617,"x_min":0,"x_max":0,"o":"m 538 597 b 486 551 538 590 535 551 b 390 571 457 551 417 563 b 321 585 364 578 336 583 b 335 486 324 547 328 518 b 354 303 354 388 354 378 b 342 -61 354 169 347 26 b 326 -275 339 -132 335 -206 b 307 -300 324 -293 324 -300 b 289 -272 292 -300 290 -292 b 261 303 276 -140 261 93 b 281 488 261 376 261 388 b 294 585 288 522 292 550 b 228 571 267 582 232 572 b 129 551 199 563 158 551 b 78 599 86 551 78 581 b 129 644 78 606 81 644 b 225 625 158 644 199 633 b 294 611 251 618 279 613 b 279 760 293 651 289 696 b 261 922 274 793 261 874 b 308 979 261 935 261 979 b 354 922 354 979 354 933 b 339 768 354 871 346 819 b 321 611 324 678 322 639 b 388 625 349 614 383 624 b 486 644 417 633 457 644 b 538 597 529 644 538 615 "},"‡":{"ha":617,"x_min":0,"x_max":0,"o":"m 538 663 b 486 617 538 656 535 617 b 390 636 457 617 417 628 b 321 650 364 643 336 649 b 339 518 322 614 329 575 b 354 401 349 469 354 429 b 307 347 354 382 349 347 b 261 401 292 347 261 353 b 279 542 261 440 271 496 b 294 650 283 561 293 608 b 228 636 267 647 232 638 b 129 617 199 628 158 617 b 78 664 86 617 78 646 b 129 710 78 671 81 710 b 225 690 158 710 199 699 b 294 676 251 683 279 678 b 276 808 293 713 286 751 b 261 925 267 857 261 897 b 307 979 261 975 293 979 b 354 925 354 979 354 935 b 336 785 354 886 344 831 b 321 676 332 765 322 718 b 388 690 349 679 383 689 b 486 710 417 699 457 710 b 538 663 529 710 538 681 m 538 31 b 490 -15 538 10 524 -15 b 413 -3 483 -15 458 -15 b 321 17 357 13 353 14 b 335 -83 324 -25 331 -68 b 354 -231 343 -131 354 -190 b 307 -285 354 -250 349 -285 b 261 -231 292 -285 261 -279 b 276 -114 261 -224 261 -192 b 294 17 286 -56 292 -22 b 207 -1 271 14 261 13 b 125 -15 192 -7 158 -15 b 78 31 92 -15 78 10 b 125 76 78 49 90 76 b 203 64 135 76 158 76 b 294 44 258 49 263 47 b 281 144 292 86 285 129 b 261 292 272 192 261 251 b 308 346 261 311 267 346 b 354 292 324 346 354 340 b 339 175 354 285 354 253 b 321 44 329 117 324 83 b 397 61 351 47 361 50 b 492 76 440 72 464 76 b 538 31 521 76 538 54 "},"⟦":{"ha":525,"x_min":0,"x_max":0,"o":"m 154 -344 l 154 1042 l 496 1042 l 496 993 l 365 993 l 365 -296 l 496 -296 l 496 -344 m 317 993 l 203 993 l 203 -296 l 317 -296 "},"⟧":{"ha":525,"x_min":0,"x_max":0,"o":"m 29 -344 l 29 -296 l 158 -296 l 158 993 l 29 993 l 29 1042 l 369 1042 l 369 -344 m 321 993 l 207 993 l 207 -296 l 321 -296 "},"̏":{"ha":0,"x_min":0,"x_max":0,"o":"m -164 726 b -183 713 -164 722 -179 714 l -307 897 b -321 931 -321 917 -321 925 b -282 967 -321 951 -300 967 b -246 933 -260 967 -254 953 l -169 743 l -164 726 m -382 726 b -401 713 -382 722 -397 714 l -525 897 b -539 931 -539 917 -539 925 b -500 967 -539 951 -518 967 b -464 933 -478 967 -472 953 l -387 743 l -382 726 "},"‖":{"ha":528,"x_min":0,"x_max":0,"o":"m 221 -301 b 193 -347 221 -321 221 -347 b 165 -301 165 -347 165 -321 l 165 996 b 193 1042 165 1015 165 1042 b 221 996 221 1042 221 1015 l 221 -301 m 363 -301 b 335 -347 363 -321 363 -347 b 307 -301 307 -347 307 -321 l 307 996 b 335 1042 307 1015 307 1042 b 363 996 363 1042 363 1015 l 363 -301 "},"Ď":{"ha":982,"x_min":0,"x_max":0,"o":"m 917 467 b 514 0 917 206 738 0 l 72 0 l 72 36 b 183 99 168 36 183 36 l 183 850 b 72 913 183 913 168 913 l 72 949 l 514 949 b 917 467 740 949 917 729 m 814 467 b 486 913 814 844 601 913 l 331 913 b 272 858 275 913 272 906 l 272 90 b 331 36 272 43 275 36 l 486 36 b 731 154 618 36 697 111 b 814 467 757 192 814 271 m 408 1010 l 199 1172 l 215 1194 l 410 1103 l 604 1194 l 618 1172 "},"ď":{"ha":710,"x_min":0,"x_max":0,"o":"m 497 -11 l 497 90 b 311 -11 490 81 429 -11 b 46 299 175 -11 46 117 b 325 608 46 482 183 608 b 500 513 438 608 494 519 l 500 838 b 406 913 500 904 488 913 l 406 949 l 571 964 l 571 111 b 665 36 571 44 583 36 l 665 0 m 497 442 b 479 500 497 467 497 471 b 332 586 447 550 396 586 b 135 297 296 586 135 569 b 319 11 135 32 279 11 b 440 60 346 11 393 18 b 497 167 472 88 497 125 m 715 865 b 638 676 715 750 643 676 b 629 685 633 676 629 681 b 633 694 629 685 629 689 b 699 867 678 746 699 804 b 696 896 699 883 699 886 b 663 879 688 883 675 879 b 619 921 639 879 619 894 b 663 964 619 949 639 964 b 715 865 711 964 715 900 "},"Đ":{"ha":982,"x_min":0,"x_max":0,"o":"m 917 467 b 514 0 917 206 738 0 l 72 0 l 72 36 b 183 99 168 36 183 36 l 183 457 l 72 457 l 72 493 l 183 493 l 183 850 b 72 913 183 913 168 913 l 72 949 l 514 949 b 917 467 740 949 917 729 m 814 467 b 486 913 814 844 601 913 l 331 913 b 272 858 275 913 272 906 l 272 493 l 490 493 l 490 457 l 272 457 l 272 90 b 331 36 272 43 275 36 l 486 36 b 731 154 618 36 697 111 b 814 467 757 192 814 271 "},"đ":{"ha":710,"x_min":0,"x_max":0,"o":"m 497 -11 l 497 90 b 311 -11 490 81 429 -11 b 46 299 175 -11 46 117 b 325 608 46 482 183 608 b 500 513 438 608 494 519 l 500 744 l 283 744 l 283 781 l 500 781 l 500 838 b 406 913 500 904 488 913 l 406 949 l 571 964 l 571 781 l 665 781 l 665 744 l 571 744 l 571 111 b 665 36 571 44 583 36 l 665 0 m 497 442 b 479 500 497 467 497 471 b 332 586 447 550 396 586 b 135 297 296 586 135 569 b 319 11 135 32 279 11 b 440 60 346 11 393 18 b 497 167 472 88 497 125 "},"Ḍ":{"ha":982,"x_min":0,"x_max":0,"o":"m 917 467 b 514 0 917 206 738 0 l 72 0 l 72 36 b 183 99 168 36 183 36 l 183 850 b 72 913 183 913 168 913 l 72 949 l 514 949 b 917 467 740 949 917 729 m 814 467 b 486 913 814 844 601 913 l 331 913 b 272 858 275 913 272 906 l 272 90 b 331 36 272 43 275 36 l 486 36 b 731 154 618 36 697 111 b 814 467 757 192 814 271 m 464 -221 b 407 -278 464 -251 440 -278 b 351 -221 378 -278 351 -254 b 408 -164 351 -190 375 -164 b 464 -221 438 -164 464 -187 "},"ḍ":{"ha":710,"x_min":0,"x_max":0,"o":"m 497 -11 l 497 90 b 311 -11 490 81 429 -11 b 46 299 175 -11 46 117 b 325 608 46 482 183 608 b 500 513 438 608 494 519 l 500 838 b 406 913 500 904 488 913 l 406 949 l 571 964 l 571 111 b 665 36 571 44 583 36 l 665 0 m 497 442 b 479 500 497 467 497 471 b 332 586 447 550 396 586 b 135 297 296 586 135 569 b 319 11 135 32 279 11 b 440 60 346 11 393 18 b 497 167 472 88 497 125 m 411 -221 b 354 -278 411 -251 388 -278 b 299 -221 325 -278 299 -254 b 356 -164 299 -190 322 -164 b 411 -221 385 -164 411 -187 "},"°":{"ha":478,"x_min":0,"x_max":0,"o":"m 421 768 b 239 586 421 667 339 586 b 57 768 139 586 57 667 b 239 949 57 868 139 949 b 421 768 339 949 421 868 m 374 768 b 239 901 374 842 313 901 b 104 768 165 901 104 842 b 239 633 104 693 165 633 b 374 768 313 633 374 693 "},"Δ":{"ha":1072,"x_min":0,"x_max":0,"o":"m 1019 7 b 993 0 1019 1 1018 0 l 78 0 b 51 7 53 0 51 1 b 58 24 51 7 57 21 l 508 960 b 536 982 518 979 519 982 b 564 958 547 982 553 982 l 1013 24 b 1019 7 1014 21 1019 7 m 501 876 l 115 78 l 886 78 "},"⌀":{"ha":1000,"x_min":0,"x_max":0,"o":"m 935 758 b 928 742 935 751 932 746 l 808 622 b 914 347 874 550 914 453 b 500 -67 914 118 729 -67 b 225 39 394 -67 297 -26 l 104 -82 b 88 -89 100 -86 94 -89 b 64 -65 75 -89 64 -78 b 71 -49 64 -58 67 -53 l 192 72 b 86 347 126 144 86 242 b 500 761 86 576 271 761 b 775 656 606 761 703 721 l 894 775 b 911 782 899 779 904 782 b 935 758 924 782 935 771 m 867 347 b 775 589 867 440 832 525 l 258 72 b 500 -19 322 15 407 -19 b 867 347 703 -19 867 144 m 742 622 b 500 714 678 679 593 714 b 133 347 297 714 133 550 b 225 106 133 254 168 169 l 742 622 "},"¨":{"ha":638,"x_min":0,"x_max":0,"o":"m 276 840 b 226 789 276 813 256 789 b 176 840 200 789 176 810 b 226 890 176 867 197 890 b 276 840 253 890 276 869 m 460 840 b 410 789 460 813 439 789 b 360 840 383 789 360 810 b 410 890 360 867 381 890 b 460 840 436 890 460 869 "},"̈":{"ha":0,"x_min":0,"x_max":0,"o":"m -361 840 b -411 789 -361 813 -382 789 b -461 840 -437 789 -461 810 b -411 890 -461 867 -440 890 b -361 840 -385 890 -361 869 m -178 840 b -228 789 -178 813 -199 789 b -278 840 -254 789 -278 810 b -228 890 -278 867 -257 890 b -178 840 -201 890 -178 869 "},"⁒":{"ha":653,"x_min":0,"x_max":0,"o":"m 578 1015 b 576 1004 578 1011 578 1007 b 501 843 553 950 525 897 l 138 57 l 121 19 b 100 1 117 11 110 3 l 97 1 b 72 26 85 1 72 13 b 81 50 72 35 78 43 l 161 224 l 515 989 b 549 1040 522 1007 532 1036 b 556 1042 551 1042 556 1042 b 578 1015 569 1042 578 1029 m 249 961 b 178 1033 249 994 224 1033 b 167 1032 174 1033 171 1032 b 106 961 126 1026 106 993 b 176 889 106 928 131 889 b 249 961 219 889 249 925 m 546 83 b 475 156 546 117 521 156 b 464 154 471 156 468 154 b 403 83 424 149 403 115 b 474 11 403 50 428 11 b 546 83 517 11 546 47 "},"÷":{"ha":1000,"x_min":0,"x_max":0,"o":"m 935 347 b 893 324 935 324 914 324 l 106 324 b 64 347 85 324 64 324 b 111 372 64 372 88 372 l 888 372 b 935 347 911 372 935 372 m 557 521 b 500 464 557 486 528 464 b 443 521 471 464 443 486 b 500 578 443 556 472 578 b 557 521 529 578 557 556 m 557 176 b 500 119 557 142 528 119 b 443 176 471 119 443 142 b 500 233 443 211 472 233 b 557 176 529 233 557 211 "},"⚮":{"ha":653,"x_min":0,"x_max":0,"o":"m 894 349 b 668 49 894 214 814 49 b 450 347 525 49 450 221 b 653 647 450 475 518 632 b 669 649 658 647 664 649 b 894 349 815 649 894 476 m 201 350 b -3 50 201 222 132 63 l -18 50 b -242 346 -165 50 -242 218 b -33 647 -242 479 -172 632 b -18 649 -28 647 -24 649 b 201 350 126 649 201 478 m 363 -129 b 346 -144 363 -140 357 -144 l 307 -144 b 289 -129 297 -144 289 -142 l 289 -122 b 303 250 301 0 303 126 l 303 513 b 289 825 303 617 299 722 b 294 840 289 831 289 838 b 303 842 297 842 303 842 l 346 842 b 363 829 354 842 363 840 b 349 460 363 706 349 583 l 349 368 l 351 185 l 351 139 b 353 93 351 124 351 108 b 360 -86 358 33 356 -26 b 363 -129 361 -100 363 -115 m 844 347 b 668 599 844 457 793 599 b 483 343 521 599 483 438 l 483 329 b 668 99 494 224 544 99 b 844 347 803 99 844 244 m 168 347 b -17 599 168 453 115 599 b -193 347 -140 599 -193 464 b -17 99 -193 235 -142 99 b 167 328 107 99 158 225 b 168 347 168 335 168 340 "},"Ḏ":{"ha":982,"x_min":0,"x_max":0,"o":"m 917 467 b 514 0 917 206 738 0 l 72 0 l 72 36 b 183 99 168 36 183 36 l 183 850 b 72 913 183 913 168 913 l 72 949 l 514 949 b 917 467 740 949 917 729 m 814 467 b 486 913 814 844 601 913 l 331 913 b 272 858 275 913 272 906 l 272 90 b 331 36 272 43 275 36 l 486 36 b 731 154 618 36 697 111 b 814 467 757 192 814 271 m 172 -236 l 172 -204 l 644 -204 l 644 -236 "},"ḏ":{"ha":710,"x_min":0,"x_max":0,"o":"m 497 -11 l 497 90 b 311 -11 490 81 429 -11 b 46 299 175 -11 46 117 b 325 608 46 482 183 608 b 500 513 438 608 494 519 l 500 838 b 406 913 500 904 488 913 l 406 949 l 571 964 l 571 111 b 665 36 571 44 583 36 l 665 0 m 497 442 b 479 500 497 467 497 471 b 332 586 447 550 396 586 b 135 297 296 586 135 569 b 319 11 135 32 279 11 b 440 60 346 11 393 18 b 497 167 472 88 497 125 m 118 -236 l 118 -204 l 590 -204 l 590 -236 "},"₫":{"ha":710,"x_min":0,"x_max":0,"o":"m 472 38 l 472 133 b 296 38 465 125 408 38 b 43 332 167 38 43 160 b 308 626 43 506 174 626 b 475 535 415 626 469 542 l 475 756 l 269 756 l 269 790 l 475 790 l 475 844 b 385 915 475 907 463 915 l 385 950 l 542 964 l 542 790 l 632 790 l 632 756 l 542 756 l 542 154 b 632 82 542 90 554 82 l 632 49 m 632 -18 b 614 -36 632 -28 624 -36 l 61 -36 b 43 -18 51 -36 43 -28 b 61 0 43 -8 51 0 l 614 0 b 632 -18 624 0 632 -8 m 472 468 b 456 524 472 492 472 496 b 315 606 425 571 376 606 b 128 331 281 606 128 589 b 303 58 128 79 265 58 b 418 106 329 58 374 65 b 472 207 449 132 472 167 "},"˙":{"ha":347,"x_min":0,"x_max":0,"o":"m 229 839 b 172 782 229 808 206 782 b 117 839 143 782 117 806 b 174 896 117 869 140 896 b 229 839 203 896 229 872 "},"̇":{"ha":0,"x_min":0,"x_max":0,"o":"m -262 839 b -319 782 -262 808 -286 782 b -375 839 -349 782 -375 806 b -318 896 -375 869 -351 896 b -262 839 -289 896 -262 872 "},"̣":{"ha":0,"x_min":0,"x_max":0,"o":"m -262 -221 b -319 -278 -262 -251 -286 -278 b -375 -221 -349 -278 -375 -254 b -318 -164 -375 -190 -351 -164 b -262 -221 -289 -164 -262 -187 "},"ı":{"ha":347,"x_min":0,"x_max":0,"o":"m 297 0 b 175 3 265 3 208 3 b 47 0 140 3 81 3 l 47 36 b 142 96 136 36 142 43 l 142 482 b 53 557 142 549 131 557 l 53 593 l 213 608 l 213 94 b 297 36 213 44 215 36 l 297 0 "},"ȷ":{"ha":383,"x_min":0,"x_max":0,"o":"m 253 -76 b 86 -282 253 -194 182 -282 b -46 -190 15 -282 -46 -246 b 4 -139 -46 -160 -26 -139 b 54 -189 36 -139 54 -162 b 10 -239 54 -228 19 -237 b 88 -260 40 -258 78 -260 b 182 -82 169 -260 182 -151 l 182 481 b 79 557 182 547 171 557 l 79 593 l 253 608 l 253 -76 "},"É":{"ha":872,"x_min":0,"x_max":0,"o":"m 793 0 l 71 0 l 71 36 b 182 99 167 36 182 36 l 182 847 b 71 910 182 910 167 910 l 71 946 l 774 946 l 807 639 l 782 639 b 522 910 763 824 738 910 l 332 910 b 274 856 276 910 274 903 l 274 510 l 404 510 b 547 672 535 510 547 557 l 572 672 l 572 311 l 547 311 b 404 474 547 426 535 474 l 274 474 l 274 90 b 332 36 274 43 276 36 l 525 36 b 818 351 769 36 788 147 l 843 351 m 617 1199 b 590 1169 614 1183 610 1182 l 357 1024 b 346 1042 356 1026 346 1042 b 358 1056 346 1042 346 1044 l 547 1225 b 578 1243 561 1236 568 1243 b 617 1199 601 1243 619 1222 "},"é":{"ha":564,"x_min":0,"x_max":0,"o":"m 535 349 b 529 326 535 335 535 332 l 126 326 b 169 108 126 261 126 179 b 326 14 207 47 267 14 b 506 156 399 14 475 61 b 522 175 511 172 513 175 b 533 165 522 175 533 175 b 317 -11 533 136 472 -11 b 38 303 169 -11 38 122 b 301 614 38 474 154 614 b 535 349 460 614 535 490 m 460 347 b 300 592 458 503 394 592 b 128 347 244 592 138 547 l 460 347 m 443 929 b 422 896 443 914 439 911 l 218 711 l 203 728 b 213 743 203 728 203 731 l 369 943 b 406 967 383 960 389 967 b 443 929 425 967 443 950 "},"Ĕ":{"ha":872,"x_min":0,"x_max":0,"o":"m 793 0 l 71 0 l 71 36 b 182 99 167 36 182 36 l 182 847 b 71 910 182 910 167 910 l 71 946 l 774 946 l 807 639 l 782 639 b 522 910 763 824 738 910 l 332 910 b 274 856 276 910 274 903 l 274 510 l 404 510 b 547 672 535 510 547 557 l 572 672 l 572 311 l 547 311 b 404 474 547 426 535 474 l 274 474 l 274 90 b 332 36 274 43 276 36 l 525 36 b 818 351 769 36 788 147 l 843 351 m 629 1265 b 436 1024 626 1122 542 1024 b 243 1265 331 1024 246 1122 l 265 1265 b 436 1063 268 1140 347 1063 b 607 1265 525 1063 604 1142 l 629 1265 "},"ĕ":{"ha":564,"x_min":0,"x_max":0,"o":"m 535 349 b 529 326 535 335 535 332 l 126 326 b 169 108 126 261 126 179 b 326 14 207 47 267 14 b 506 156 399 14 475 61 b 522 175 511 172 513 175 b 533 165 522 175 533 175 b 317 -11 533 136 472 -11 b 38 303 169 -11 38 122 b 301 614 38 474 154 614 b 535 349 460 614 535 490 m 460 347 b 300 592 458 503 394 592 b 128 347 244 592 138 547 l 460 347 m 475 960 b 282 718 472 817 388 718 b 89 960 176 718 92 817 l 111 960 b 282 757 114 835 193 757 b 453 960 371 757 450 836 l 475 960 "},"Ě":{"ha":872,"x_min":0,"x_max":0,"o":"m 793 0 l 71 0 l 71 36 b 182 99 167 36 182 36 l 182 847 b 71 910 182 910 167 910 l 71 946 l 774 946 l 807 639 l 782 639 b 522 910 763 824 738 910 l 332 910 b 274 856 276 910 274 903 l 274 510 l 404 510 b 547 672 535 510 547 557 l 572 672 l 572 311 l 547 311 b 404 474 547 426 535 474 l 274 474 l 274 90 b 332 36 274 43 276 36 l 525 36 b 818 351 769 36 788 147 l 843 351 m 436 1010 l 226 1172 l 243 1194 l 438 1103 l 632 1194 l 646 1172 "},"ě":{"ha":564,"x_min":0,"x_max":0,"o":"m 535 349 b 529 326 535 335 535 332 l 126 326 b 169 108 126 261 126 179 b 326 14 207 47 267 14 b 506 156 399 14 475 61 b 522 175 511 172 513 175 b 533 165 522 175 533 175 b 317 -11 533 136 472 -11 b 38 303 169 -11 38 122 b 301 614 38 474 154 614 b 535 349 460 614 535 490 m 460 347 b 300 592 458 503 394 592 b 128 347 244 592 138 547 l 460 347 m 282 717 l 71 942 l 89 961 l 282 811 l 475 961 l 493 942 "},"Ê":{"ha":872,"x_min":0,"x_max":0,"o":"m 793 0 l 71 0 l 71 36 b 182 99 167 36 182 36 l 182 847 b 71 910 182 910 167 910 l 71 946 l 774 946 l 807 639 l 782 639 b 522 910 763 824 738 910 l 332 910 b 274 856 276 910 274 903 l 274 510 l 404 510 b 547 672 535 510 547 557 l 572 672 l 572 311 l 547 311 b 404 474 547 426 535 474 l 274 474 l 274 90 b 332 36 274 43 276 36 l 525 36 b 818 351 769 36 788 147 l 843 351 m 629 1010 l 435 1101 l 240 1010 l 226 1032 l 436 1194 l 646 1032 "},"ê":{"ha":564,"x_min":0,"x_max":0,"o":"m 535 349 b 529 326 535 335 535 332 l 126 326 b 169 108 126 261 126 179 b 326 14 207 47 267 14 b 506 156 399 14 475 61 b 522 175 511 172 513 175 b 533 165 522 175 533 175 b 317 -11 533 136 472 -11 b 38 303 169 -11 38 122 b 301 614 38 474 154 614 b 535 349 460 614 535 490 m 460 347 b 300 592 458 503 394 592 b 128 347 244 592 138 547 l 460 347 m 475 717 l 282 867 l 89 717 l 71 736 l 282 961 l 493 736 "},"Ế":{"ha":872,"x_min":0,"x_max":0,"o":"m 793 0 l 71 0 l 71 36 b 182 99 167 36 182 36 l 182 847 b 71 910 182 910 167 910 l 71 946 l 774 946 l 807 639 l 782 639 b 522 910 763 824 738 910 l 332 910 b 274 856 276 910 274 903 l 274 510 l 404 510 b 547 672 535 510 547 557 l 572 672 l 572 311 l 547 311 b 404 474 547 426 535 474 l 274 474 l 274 90 b 332 36 274 43 276 36 l 525 36 b 818 351 769 36 788 147 l 843 351 m 629 1010 l 435 1101 l 240 1010 l 226 1032 l 436 1194 l 646 1032 m 571 1397 b 544 1368 568 1382 564 1381 l 311 1222 b 300 1240 310 1225 300 1240 b 313 1254 300 1240 300 1243 l 501 1424 b 532 1442 515 1435 522 1442 b 571 1397 556 1442 574 1421 "},"ế":{"ha":564,"x_min":0,"x_max":0,"o":"m 535 349 b 529 326 535 335 535 332 l 126 326 b 169 108 126 261 126 179 b 326 14 207 47 267 14 b 506 156 399 14 475 61 b 522 175 511 172 513 175 b 533 165 522 175 533 175 b 317 -11 533 136 472 -11 b 38 303 169 -11 38 122 b 301 614 38 474 154 614 b 535 349 460 614 535 490 m 460 347 b 300 592 458 503 394 592 b 128 347 244 592 138 547 l 460 347 m 475 717 l 281 808 l 86 717 l 72 739 l 282 901 l 492 739 m 417 1104 b 390 1075 414 1089 410 1088 l 157 929 b 146 947 156 932 146 947 b 158 961 146 947 146 950 l 347 1131 b 378 1149 361 1142 368 1149 b 417 1104 401 1149 419 1128 "},"Ệ":{"ha":872,"x_min":0,"x_max":0,"o":"m 793 0 l 71 0 l 71 36 b 182 99 167 36 182 36 l 182 847 b 71 910 182 910 167 910 l 71 946 l 774 946 l 807 639 l 782 639 b 522 910 763 824 738 910 l 332 910 b 274 856 276 910 274 903 l 274 510 l 404 510 b 547 672 535 510 547 557 l 572 672 l 572 311 l 547 311 b 404 474 547 426 535 474 l 274 474 l 274 90 b 332 36 274 43 276 36 l 525 36 b 818 351 769 36 788 147 l 843 351 m 629 1010 l 435 1101 l 240 1010 l 226 1032 l 436 1194 l 646 1032 m 492 -221 b 435 -278 492 -251 468 -278 b 379 -221 406 -278 379 -254 b 436 -164 379 -190 403 -164 b 492 -221 465 -164 492 -187 "},"ệ":{"ha":564,"x_min":0,"x_max":0,"o":"m 535 349 b 529 326 535 335 535 332 l 126 326 b 169 108 126 261 126 179 b 326 14 207 47 267 14 b 506 156 399 14 475 61 b 522 175 511 172 513 175 b 533 165 522 175 533 175 b 317 -11 533 136 472 -11 b 38 303 169 -11 38 122 b 301 614 38 474 154 614 b 535 349 460 614 535 490 m 460 347 b 300 592 458 503 394 592 b 128 347 244 592 138 547 l 460 347 m 475 717 l 282 867 l 89 717 l 71 736 l 282 961 l 493 736 m 338 -221 b 281 -278 338 -251 314 -278 b 225 -221 251 -278 225 -254 b 282 -164 225 -190 249 -164 b 338 -221 311 -164 338 -187 "},"Ề":{"ha":872,"x_min":0,"x_max":0,"o":"m 793 0 l 71 0 l 71 36 b 182 99 167 36 182 36 l 182 847 b 71 910 182 910 167 910 l 71 946 l 774 946 l 807 639 l 782 639 b 522 910 763 824 738 910 l 332 910 b 274 856 276 910 274 903 l 274 510 l 404 510 b 547 672 535 510 547 557 l 572 672 l 572 311 l 547 311 b 404 474 547 426 535 474 l 274 474 l 274 90 b 332 36 274 43 276 36 l 525 36 b 818 351 769 36 788 147 l 843 351 m 629 1010 l 435 1101 l 240 1010 l 226 1032 l 436 1194 l 646 1032 m 572 1240 b 560 1254 572 1240 572 1243 l 371 1424 b 339 1442 357 1435 350 1442 b 301 1397 315 1442 297 1421 b 328 1368 304 1382 308 1381 l 561 1222 b 572 1240 563 1225 572 1240 "},"ề":{"ha":564,"x_min":0,"x_max":0,"o":"m 535 349 b 529 326 535 335 535 332 l 126 326 b 169 108 126 261 126 179 b 326 14 207 47 267 14 b 506 156 399 14 475 61 b 522 175 511 172 513 175 b 533 165 522 175 533 175 b 317 -11 533 136 472 -11 b 38 303 169 -11 38 122 b 301 614 38 474 154 614 b 535 349 460 614 535 490 m 460 347 b 300 592 458 503 394 592 b 128 347 244 592 138 547 l 460 347 m 475 717 l 281 808 l 86 717 l 72 739 l 282 901 l 492 739 m 418 947 b 406 961 418 947 418 950 l 217 1131 b 185 1149 203 1142 196 1149 b 147 1104 161 1149 143 1128 b 174 1075 150 1089 154 1088 l 407 929 b 418 947 408 932 418 947 "},"Ể":{"ha":872,"x_min":0,"x_max":0,"o":"m 793 0 l 71 0 l 71 36 b 182 99 167 36 182 36 l 182 847 b 71 910 182 910 167 910 l 71 946 l 774 946 l 807 639 l 782 639 b 522 910 763 824 738 910 l 332 910 b 274 856 276 910 274 903 l 274 510 l 404 510 b 547 672 535 510 547 557 l 572 672 l 572 311 l 547 311 b 404 474 547 426 535 474 l 274 474 l 274 90 b 332 36 274 43 276 36 l 525 36 b 818 351 769 36 788 147 l 843 351 m 629 1010 l 435 1101 l 240 1010 l 226 1032 l 436 1194 l 646 1032 m 688 1400 b 650 1340 688 1375 672 1353 b 561 1231 596 1311 561 1275 l 561 1203 b 553 1194 561 1199 557 1194 b 544 1203 549 1194 544 1199 l 544 1231 b 610 1354 544 1278 571 1321 b 629 1400 622 1364 629 1381 b 614 1456 629 1428 626 1444 b 553 1476 600 1471 579 1476 b 463 1433 514 1476 479 1460 l 471 1435 b 507 1400 490 1435 507 1421 b 471 1365 506 1378 490 1365 b 436 1400 453 1365 436 1378 b 553 1492 438 1454 492 1492 b 650 1468 592 1492 624 1486 b 688 1400 674 1453 688 1428 "},"ể":{"ha":564,"x_min":0,"x_max":0,"o":"m 535 349 b 529 326 535 335 535 332 l 126 326 b 169 108 126 261 126 179 b 326 14 207 47 267 14 b 506 156 399 14 475 61 b 522 175 511 172 513 175 b 533 165 522 175 533 175 b 317 -11 533 136 472 -11 b 38 303 169 -11 38 122 b 301 614 38 474 154 614 b 535 349 460 614 535 490 m 460 347 b 300 592 458 503 394 592 b 128 347 244 592 138 547 l 460 347 m 475 717 l 281 808 l 86 717 l 72 739 l 282 901 l 492 739 m 533 1107 b 496 1047 533 1082 518 1060 b 407 938 442 1018 407 982 l 407 910 b 399 901 407 906 403 901 b 390 910 394 901 390 906 l 390 938 b 456 1061 390 985 417 1028 b 475 1107 468 1071 475 1088 b 460 1163 475 1135 472 1151 b 399 1183 446 1178 425 1183 b 308 1140 360 1183 325 1167 l 317 1142 b 353 1107 336 1142 353 1128 b 317 1072 351 1085 336 1072 b 282 1107 299 1072 282 1085 b 399 1199 283 1161 338 1199 b 496 1175 438 1199 469 1193 b 533 1107 519 1160 533 1135 "},"Ễ":{"ha":872,"x_min":0,"x_max":0,"o":"m 793 0 l 71 0 l 71 36 b 182 99 167 36 182 36 l 182 847 b 71 910 182 910 167 910 l 71 946 l 774 946 l 807 639 l 782 639 b 522 910 763 824 738 910 l 332 910 b 274 856 276 910 274 903 l 274 510 l 404 510 b 547 672 535 510 547 557 l 572 672 l 572 311 l 547 311 b 404 474 547 426 535 474 l 274 474 l 274 90 b 332 36 274 43 276 36 l 525 36 b 818 351 769 36 788 147 l 843 351 m 629 1010 l 435 1101 l 240 1010 l 226 1032 l 436 1194 l 646 1032 m 654 1354 b 511 1250 596 1290 561 1250 b 431 1286 481 1250 458 1267 b 350 1322 401 1307 381 1322 b 233 1250 307 1322 281 1296 l 218 1265 b 361 1369 276 1329 311 1369 b 442 1333 392 1369 414 1353 b 522 1297 471 1313 492 1297 b 639 1369 565 1297 592 1324 l 654 1354 "},"ễ":{"ha":564,"x_min":0,"x_max":0,"o":"m 535 349 b 529 326 535 335 535 332 l 126 326 b 169 108 126 261 126 179 b 326 14 207 47 267 14 b 506 156 399 14 475 61 b 522 175 511 172 513 175 b 533 165 522 175 533 175 b 317 -11 533 136 472 -11 b 38 303 169 -11 38 122 b 301 614 38 474 154 614 b 535 349 460 614 535 490 m 460 347 b 300 592 458 503 394 592 b 128 347 244 592 138 547 l 460 347 m 475 717 l 281 808 l 86 717 l 72 739 l 282 901 l 492 739 m 500 1061 b 357 957 442 997 407 957 b 276 993 326 957 304 974 b 196 1029 247 1014 226 1029 b 79 957 153 1029 126 1003 l 64 972 b 207 1076 122 1036 157 1076 b 288 1040 238 1076 260 1060 b 368 1004 317 1019 338 1004 b 485 1076 411 1004 438 1031 l 500 1061 "},"Ȅ":{"ha":872,"x_min":0,"x_max":0,"o":"m 793 0 l 71 0 l 71 36 b 182 99 167 36 182 36 l 182 847 b 71 910 182 910 167 910 l 71 946 l 774 946 l 807 639 l 782 639 b 522 910 763 824 738 910 l 332 910 b 274 856 276 910 274 903 l 274 510 l 404 510 b 547 672 535 510 547 557 l 572 672 l 572 311 l 547 311 b 404 474 547 426 535 474 l 274 474 l 274 90 b 332 36 274 43 276 36 l 525 36 b 818 351 769 36 788 147 l 843 351 m 592 1038 b 572 1024 592 1033 576 1025 l 449 1208 b 435 1242 435 1228 435 1236 b 474 1278 435 1263 456 1278 b 510 1244 496 1278 501 1264 l 586 1054 l 592 1038 m 374 1038 b 354 1024 374 1033 358 1025 l 231 1208 b 217 1242 217 1228 217 1236 b 256 1278 217 1263 238 1278 b 292 1244 278 1278 283 1264 l 368 1054 l 374 1038 "},"ȅ":{"ha":564,"x_min":0,"x_max":0,"o":"m 535 349 b 529 326 535 335 535 332 l 126 326 b 169 108 126 261 126 179 b 326 14 207 47 267 14 b 506 156 399 14 475 61 b 522 175 511 172 513 175 b 533 165 522 175 533 175 b 317 -11 533 136 472 -11 b 38 303 169 -11 38 122 b 301 614 38 474 154 614 b 535 349 460 614 535 490 m 460 347 b 300 592 458 503 394 592 b 128 347 244 592 138 547 l 460 347 m 438 726 b 418 713 438 722 422 714 l 294 897 b 281 931 281 917 281 925 b 319 967 281 951 301 967 b 356 933 342 967 347 953 l 432 743 l 438 726 m 219 726 b 200 713 219 722 204 714 l 76 897 b 63 931 63 917 63 925 b 101 967 63 951 83 967 b 138 933 124 967 129 953 l 214 743 l 219 726 "},"Ë":{"ha":872,"x_min":0,"x_max":0,"o":"m 793 0 l 71 0 l 71 36 b 182 99 167 36 182 36 l 182 847 b 71 910 182 910 167 910 l 71 946 l 774 946 l 807 639 l 782 639 b 522 910 763 824 738 910 l 332 910 b 274 856 276 910 274 903 l 274 510 l 404 510 b 547 672 535 510 547 557 l 572 672 l 572 311 l 547 311 b 404 474 547 426 535 474 l 274 474 l 274 90 b 332 36 274 43 276 36 l 525 36 b 818 351 769 36 788 147 l 843 351 m 378 1061 b 328 1010 378 1033 357 1010 b 278 1061 301 1010 278 1031 b 328 1111 278 1088 299 1111 b 378 1061 354 1111 378 1090 m 594 1061 b 544 1010 594 1033 574 1010 b 494 1061 518 1010 494 1031 b 544 1111 494 1088 515 1111 b 594 1061 571 1111 594 1090 "},"ë":{"ha":564,"x_min":0,"x_max":0,"o":"m 535 349 b 529 326 535 335 535 332 l 126 326 b 169 108 126 261 126 179 b 326 14 207 47 267 14 b 506 156 399 14 475 61 b 522 175 511 172 513 175 b 533 165 522 175 533 175 b 317 -11 533 136 472 -11 b 38 303 169 -11 38 122 b 301 614 38 474 154 614 b 535 349 460 614 535 490 m 460 347 b 300 592 458 503 394 592 b 128 347 244 592 138 547 l 460 347 m 240 840 b 190 789 240 813 219 789 b 140 840 164 789 140 810 b 190 890 140 867 161 890 b 240 840 217 890 240 869 m 424 840 b 374 789 424 813 403 789 b 324 840 347 789 324 810 b 374 890 324 867 344 890 b 424 840 400 890 424 869 "},"Ė":{"ha":872,"x_min":0,"x_max":0,"o":"m 793 0 l 71 0 l 71 36 b 182 99 167 36 182 36 l 182 847 b 71 910 182 910 167 910 l 71 946 l 774 946 l 807 639 l 782 639 b 522 910 763 824 738 910 l 332 910 b 274 856 276 910 274 903 l 274 510 l 404 510 b 547 672 535 510 547 557 l 572 672 l 572 311 l 547 311 b 404 474 547 426 535 474 l 274 474 l 274 90 b 332 36 274 43 276 36 l 525 36 b 818 351 769 36 788 147 l 843 351 m 492 1089 b 435 1032 492 1058 468 1032 b 379 1089 406 1032 379 1056 b 436 1146 379 1119 403 1146 b 492 1089 465 1146 492 1122 "},"ė":{"ha":564,"x_min":0,"x_max":0,"o":"m 535 349 b 529 326 535 335 535 332 l 126 326 b 169 108 126 261 126 179 b 326 14 207 47 267 14 b 506 156 399 14 475 61 b 522 175 511 172 513 175 b 533 165 522 175 533 175 b 317 -11 533 136 472 -11 b 38 303 169 -11 38 122 b 301 614 38 474 154 614 b 535 349 460 614 535 490 m 460 347 b 300 592 458 503 394 592 b 128 347 244 592 138 547 l 460 347 m 338 839 b 281 782 338 808 314 782 b 225 839 251 782 225 806 b 282 896 225 869 249 896 b 338 839 311 896 338 872 "},"Ẹ":{"ha":872,"x_min":0,"x_max":0,"o":"m 793 0 l 71 0 l 71 36 b 182 99 167 36 182 36 l 182 847 b 71 910 182 910 167 910 l 71 946 l 774 946 l 807 639 l 782 639 b 522 910 763 824 738 910 l 332 910 b 274 856 276 910 274 903 l 274 510 l 404 510 b 547 672 535 510 547 557 l 572 672 l 572 311 l 547 311 b 404 474 547 426 535 474 l 274 474 l 274 90 b 332 36 274 43 276 36 l 525 36 b 818 351 769 36 788 147 l 843 351 m 492 -221 b 435 -278 492 -251 468 -278 b 379 -221 406 -278 379 -254 b 436 -164 379 -190 403 -164 b 492 -221 465 -164 492 -187 "},"ẹ":{"ha":564,"x_min":0,"x_max":0,"o":"m 535 349 b 529 326 535 335 535 332 l 126 326 b 169 108 126 261 126 179 b 326 14 207 47 267 14 b 506 156 399 14 475 61 b 522 175 511 172 513 175 b 533 165 522 175 533 175 b 317 -11 533 136 472 -11 b 38 303 169 -11 38 122 b 301 614 38 474 154 614 b 535 349 460 614 535 490 m 460 347 b 300 592 458 503 394 592 b 128 347 244 592 138 547 l 460 347 m 338 -221 b 281 -278 338 -251 314 -278 b 225 -221 251 -278 225 -254 b 282 -164 225 -190 249 -164 b 338 -221 311 -164 338 -187 "},"È":{"ha":872,"x_min":0,"x_max":0,"o":"m 793 0 l 71 0 l 71 36 b 182 99 167 36 182 36 l 182 847 b 71 910 182 910 167 910 l 71 946 l 774 946 l 807 639 l 782 639 b 522 910 763 824 738 910 l 332 910 b 274 856 276 910 274 903 l 274 510 l 404 510 b 547 672 535 510 547 557 l 572 672 l 572 311 l 547 311 b 404 474 547 426 535 474 l 274 474 l 274 90 b 332 36 274 43 276 36 l 525 36 b 818 351 769 36 788 147 l 843 351 m 528 1042 b 517 1024 528 1042 518 1026 l 283 1169 b 257 1199 264 1182 260 1183 b 294 1243 253 1222 271 1243 b 326 1225 306 1243 313 1236 l 515 1056 b 528 1042 528 1044 528 1042 "},"è":{"ha":564,"x_min":0,"x_max":0,"o":"m 535 349 b 529 326 535 335 535 332 l 126 326 b 169 108 126 261 126 179 b 326 14 207 47 267 14 b 506 156 399 14 475 61 b 522 175 511 172 513 175 b 533 165 522 175 533 175 b 317 -11 533 136 472 -11 b 38 303 169 -11 38 122 b 301 614 38 474 154 614 b 535 349 460 614 535 490 m 460 347 b 300 592 458 503 394 592 b 128 347 244 592 138 547 l 460 347 m 347 711 l 143 896 b 122 929 126 911 122 914 b 160 967 122 950 140 967 b 196 943 176 967 182 960 l 353 743 b 363 728 363 731 363 728 "},"Ẻ":{"ha":872,"x_min":0,"x_max":0,"o":"m 793 0 l 71 0 l 71 36 b 182 99 167 36 182 36 l 182 847 b 71 910 182 910 167 910 l 71 946 l 774 946 l 807 639 l 782 639 b 522 910 763 824 738 910 l 332 910 b 274 856 276 910 274 903 l 274 510 l 404 510 b 547 672 535 510 547 557 l 572 672 l 572 311 l 547 311 b 404 474 547 426 535 474 l 274 474 l 274 90 b 332 36 274 43 276 36 l 525 36 b 818 351 769 36 788 147 l 843 351 m 563 1238 b 525 1178 563 1213 547 1190 b 436 1068 471 1149 436 1113 l 436 1040 b 428 1032 436 1036 432 1032 b 419 1040 424 1032 419 1036 l 419 1068 b 485 1192 419 1115 446 1158 b 504 1238 497 1201 504 1218 b 489 1293 504 1265 501 1282 b 428 1314 475 1308 454 1314 b 338 1271 389 1314 354 1297 l 346 1272 b 382 1238 365 1272 382 1258 b 346 1203 381 1215 365 1203 b 311 1238 328 1203 311 1215 b 428 1329 313 1292 367 1329 b 525 1306 467 1329 499 1324 b 563 1238 549 1290 563 1265 "},"ẻ":{"ha":564,"x_min":0,"x_max":0,"o":"m 535 349 b 529 326 535 335 535 332 l 126 326 b 169 108 126 261 126 179 b 326 14 207 47 267 14 b 506 156 399 14 475 61 b 522 175 511 172 513 175 b 533 165 522 175 533 175 b 317 -11 533 136 472 -11 b 38 303 169 -11 38 122 b 301 614 38 474 154 614 b 535 349 460 614 535 490 m 460 347 b 300 592 458 503 394 592 b 128 347 244 592 138 547 l 460 347 m 408 896 b 371 836 408 871 393 849 b 282 726 317 807 282 771 l 282 699 b 274 690 282 694 278 690 b 265 699 269 690 265 694 l 265 726 b 331 850 265 774 292 817 b 350 896 343 860 350 876 b 335 951 350 924 347 940 b 274 972 321 967 300 972 b 183 929 235 972 200 956 l 192 931 b 228 896 211 931 228 917 b 192 861 226 874 211 861 b 157 896 174 861 157 874 b 274 988 158 950 213 988 b 371 964 313 988 344 982 b 408 896 394 949 408 924 "},"…":{"ha":811,"x_min":0,"x_max":0,"o":"m 231 57 b 174 0 231 22 201 0 b 117 57 144 0 117 22 b 174 114 117 92 146 114 b 231 57 203 114 231 92 m 463 57 b 406 0 463 22 433 0 b 349 57 376 0 349 22 b 406 114 349 92 378 114 b 463 57 435 114 463 92 m 694 57 b 638 0 694 22 665 0 b 581 57 608 0 581 22 b 638 114 581 92 610 114 b 694 57 667 114 694 92 "},"Ē":{"ha":872,"x_min":0,"x_max":0,"o":"m 793 0 l 71 0 l 71 36 b 182 99 167 36 182 36 l 182 847 b 71 910 182 910 167 910 l 71 946 l 774 946 l 807 639 l 782 639 b 522 910 763 824 738 910 l 332 910 b 274 856 276 910 274 903 l 274 510 l 404 510 b 547 672 535 510 547 557 l 572 672 l 572 311 l 547 311 b 404 474 547 426 535 474 l 274 474 l 274 90 b 332 36 274 43 276 36 l 525 36 b 818 351 769 36 788 147 l 843 351 m 200 1038 l 200 1069 l 672 1069 l 672 1038 "},"ē":{"ha":564,"x_min":0,"x_max":0,"o":"m 535 349 b 529 326 535 335 535 332 l 126 326 b 169 108 126 261 126 179 b 326 14 207 47 267 14 b 506 156 399 14 475 61 b 522 175 511 172 513 175 b 533 165 522 175 533 175 b 317 -11 533 136 472 -11 b 38 303 169 -11 38 122 b 301 614 38 474 154 614 b 535 349 460 614 535 490 m 460 347 b 300 592 458 503 394 592 b 128 347 244 592 138 547 l 460 347 m 46 824 l 46 856 l 518 856 l 518 824 "},"—":{"ha":1274,"x_min":0,"x_max":0,"o":"m -17 358 l -17 381 l 1289 381 l 1289 358 "},"–":{"ha":638,"x_min":0,"x_max":0,"o":"m -8 358 l -8 381 l 644 381 l 644 358 "},"Ŋ":{"ha":963,"x_min":0,"x_max":0,"o":"m 924 475 b 642 -22 924 232 851 -22 b 592 28 614 -22 592 0 b 642 78 592 56 614 78 b 692 28 669 78 692 56 b 689 10 692 21 690 15 b 818 475 818 51 818 278 b 529 946 818 707 733 946 b 274 781 417 946 322 878 l 274 99 b 390 36 274 36 290 36 l 390 0 b 228 3 346 3 275 3 b 65 0 181 3 110 3 l 65 36 b 182 99 165 36 182 36 l 182 850 b 65 913 182 913 165 913 l 65 949 b 228 946 110 946 181 946 b 274 949 243 946 258 947 l 274 828 b 529 971 329 914 422 971 b 924 475 768 971 924 732 "},"ŋ":{"ha":643,"x_min":0,"x_max":0,"o":"m 576 96 b 390 -293 576 -89 549 -293 b 353 -256 369 -293 353 -275 b 390 -218 353 -235 369 -218 b 428 -256 411 -218 428 -235 l 428 -258 b 503 96 503 -218 503 -47 l 503 428 b 389 586 503 494 492 586 b 214 363 292 586 214 490 l 214 96 b 308 36 214 42 219 36 l 308 0 b 176 3 275 3 213 3 b 46 0 140 3 79 3 l 46 36 b 140 96 135 36 140 43 l 140 482 b 46 557 140 549 128 557 l 46 593 l 210 608 l 210 468 l 211 468 b 399 608 232 524 289 608 b 576 422 563 608 576 493 l 576 96 "},"Ę":{"ha":872,"x_min":0,"x_max":0,"o":"m 793 0 l 642 0 b 540 -132 593 -33 540 -76 b 661 -228 540 -196 611 -228 b 768 -150 706 -228 744 -200 b 792 -160 775 -136 796 -143 b 628 -293 769 -239 697 -293 b 474 -168 539 -293 474 -232 b 579 0 474 -96 514 -47 l 71 0 l 71 36 b 182 99 167 36 182 36 l 182 847 b 71 910 182 910 167 910 l 71 946 l 774 946 l 807 639 l 782 639 b 522 910 763 824 738 910 l 332 910 b 274 856 276 910 274 903 l 274 510 l 404 510 b 547 672 535 510 547 557 l 572 672 l 572 311 l 547 311 b 404 474 547 426 535 474 l 274 474 l 274 90 b 332 36 274 43 276 36 l 525 36 b 818 351 769 36 788 147 l 843 351 "},"ę":{"ha":564,"x_min":0,"x_max":0,"o":"m 535 349 b 529 326 535 335 535 332 l 126 326 b 169 108 126 261 126 179 b 326 14 207 47 267 14 b 506 156 399 14 475 61 b 522 175 511 172 513 175 b 533 165 522 175 533 175 b 379 -3 533 140 489 29 b 276 -132 331 -36 276 -76 b 397 -228 276 -196 347 -228 b 504 -150 442 -228 481 -200 b 528 -160 511 -136 532 -143 b 364 -293 506 -239 433 -293 b 210 -168 275 -293 210 -232 b 301 -10 210 -107 250 -51 b 38 303 160 0 38 129 b 301 614 38 474 154 614 b 535 349 460 614 535 490 m 460 347 b 300 592 458 503 394 592 b 128 347 244 592 138 547 l 460 347 "},"Ε":{"ha":872,"x_min":0,"x_max":0,"o":"m 793 0 l 71 0 l 71 36 b 182 99 167 36 182 36 l 182 847 b 71 910 182 910 167 910 l 71 946 l 774 946 l 807 639 l 782 639 b 522 910 763 824 738 910 l 332 910 b 274 856 276 910 274 903 l 274 510 l 404 510 b 547 672 535 510 547 557 l 572 672 l 572 311 l 547 311 b 404 474 547 426 535 474 l 274 474 l 274 90 b 332 36 274 43 276 36 l 525 36 b 818 351 769 36 788 147 l 843 351 "},"Ǝ":{"ha":872,"x_min":0,"x_max":0,"o":"m 121 0 l 71 351 l 96 351 b 389 36 126 147 144 36 l 582 36 b 640 90 638 36 640 43 l 640 474 l 510 474 b 367 311 379 474 367 426 l 342 311 l 342 672 l 367 672 b 510 510 367 557 379 510 l 640 510 l 640 856 b 582 910 640 903 638 910 l 392 910 b 132 639 176 910 151 824 l 107 639 l 140 946 l 843 946 l 843 910 b 732 847 747 910 732 910 l 732 99 b 843 36 732 36 747 36 l 843 0 "},"ɘ":{"ha":564,"x_min":0,"x_max":0,"o":"m 535 303 b 256 -11 535 122 403 -11 b 39 165 100 -11 39 136 b 50 175 39 175 50 175 b 67 156 60 175 61 172 b 246 14 97 61 174 14 b 403 108 306 14 365 47 b 446 326 446 179 446 261 l 43 326 b 38 349 38 332 38 335 b 271 614 38 490 113 614 b 535 303 418 614 535 474 m 444 347 b 272 592 435 547 328 592 b 113 347 178 592 114 503 l 444 347 "},"℮":{"ha":869,"x_min":0,"x_max":0,"o":"m 832 500 b 815 486 832 488 822 486 l 143 486 l 143 475 b 219 169 143 369 163 261 b 497 15 283 69 385 15 b 782 126 594 15 717 43 b 819 176 793 142 804 176 b 831 165 825 176 831 172 b 819 140 831 157 822 146 b 468 -10 751 15 592 -10 b 38 482 192 -10 38 254 b 458 967 38 719 201 967 b 700 878 546 967 635 938 b 832 507 801 785 832 639 l 832 500 m 733 508 b 454 944 733 699 668 944 l 443 944 b 194 757 329 940 242 854 b 143 508 157 679 147 593 l 733 508 "},"Η":{"ha":963,"x_min":0,"x_max":0,"o":"m 890 0 b 733 3 850 3 776 3 b 576 0 690 3 617 3 l 576 36 b 688 99 672 36 688 36 l 688 475 l 274 475 l 274 99 b 385 36 274 36 289 36 l 385 0 b 228 3 344 3 271 3 b 71 0 185 3 111 3 l 71 36 b 182 99 167 36 182 36 l 182 850 b 71 913 182 913 167 913 l 71 949 b 228 946 111 946 185 946 b 385 949 271 946 344 946 l 385 913 b 274 850 289 913 274 913 l 274 511 l 688 511 l 688 850 b 576 913 688 913 672 913 l 576 949 b 733 946 617 946 690 946 b 890 949 776 946 850 946 l 890 913 b 779 850 794 913 779 913 l 779 99 b 890 36 779 36 794 36 l 890 0 "},"Ð":{"ha":982,"x_min":0,"x_max":0,"o":"m 917 467 b 514 0 917 206 738 0 l 72 0 l 72 36 b 183 99 168 36 183 36 l 183 457 l 72 457 l 72 493 l 183 493 l 183 850 b 72 913 183 913 168 913 l 72 949 l 514 949 b 917 467 740 949 917 729 m 814 467 b 486 913 814 844 601 913 l 331 913 b 272 858 275 913 272 906 l 272 493 l 490 493 l 490 457 l 272 457 l 272 90 b 331 36 272 43 275 36 l 486 36 b 731 154 618 36 697 111 b 814 467 757 192 814 271 "},"ð":{"ha":638,"x_min":0,"x_max":0,"o":"m 597 321 b 519 85 597 265 597 176 b 317 -11 481 39 410 -11 b 38 297 169 -11 38 119 b 315 614 38 479 171 614 b 483 501 392 614 450 560 b 264 839 446 635 369 754 l 143 769 l 125 801 l 232 863 b 85 939 188 894 138 921 l 93 964 b 276 888 158 947 219 921 l 397 958 l 415 926 l 310 867 b 597 321 486 744 597 543 m 508 299 b 317 592 508 469 421 592 b 126 308 294 592 126 586 b 318 14 126 43 268 14 b 508 299 326 14 508 14 "},"Ẽ":{"ha":872,"x_min":0,"x_max":0,"o":"m 793 0 l 71 0 l 71 36 b 182 99 167 36 182 36 l 182 847 b 71 910 182 910 167 910 l 71 946 l 774 946 l 807 639 l 782 639 b 522 910 763 824 738 910 l 332 910 b 274 856 276 910 274 903 l 274 510 l 404 510 b 547 672 535 510 547 557 l 572 672 l 572 311 l 547 311 b 404 474 547 426 535 474 l 274 474 l 274 90 b 332 36 274 43 276 36 l 525 36 b 818 351 769 36 788 147 l 843 351 m 654 1114 b 511 1010 596 1050 561 1010 b 431 1046 481 1010 458 1026 b 350 1082 401 1067 381 1082 b 233 1010 307 1082 281 1056 l 218 1025 b 361 1129 276 1089 311 1129 b 442 1093 392 1129 414 1113 b 522 1057 471 1072 492 1057 b 639 1129 565 1057 592 1083 l 654 1114 "},"ẽ":{"ha":564,"x_min":0,"x_max":0,"o":"m 535 349 b 529 326 535 335 535 332 l 126 326 b 169 108 126 261 126 179 b 326 14 207 47 267 14 b 506 156 399 14 475 61 b 522 175 511 172 513 175 b 533 165 522 175 533 175 b 317 -11 533 136 472 -11 b 38 303 169 -11 38 122 b 301 614 38 474 154 614 b 535 349 460 614 535 490 m 460 347 b 300 592 458 503 394 592 b 128 347 244 592 138 547 l 460 347 m 500 883 b 357 779 442 819 407 779 b 276 815 326 779 304 796 b 196 851 247 836 226 851 b 79 779 153 851 126 825 l 64 794 b 207 899 122 858 157 899 b 288 863 238 899 260 882 b 368 826 317 842 338 826 b 485 899 411 826 438 853 l 500 883 "},"ǝ":{"ha":564,"x_min":0,"x_max":0,"o":"m 535 300 b 271 -11 535 129 418 -11 b 38 254 113 -11 38 113 b 43 276 38 268 38 271 l 446 276 b 403 494 446 342 446 424 b 246 589 365 556 306 589 b 67 447 174 589 97 542 b 50 428 61 431 60 428 b 39 438 50 428 39 428 b 256 614 39 467 100 614 b 535 300 403 614 535 481 m 113 256 b 272 11 114 100 178 11 b 444 256 328 11 435 56 "},"€":{"ha":818,"x_min":0,"x_max":0,"o":"m 744 -14 b 736 -22 744 -18 740 -22 l 733 -22 b 726 -18 731 -22 728 -21 l 678 51 b 518 -22 638 7 582 -22 b 253 124 413 -22 317 39 b 150 385 196 200 163 290 l 78 385 b 69 394 72 385 68 389 l 75 414 b 83 421 76 418 79 421 l 147 421 b 144 475 144 439 144 457 b 147 529 144 493 146 511 l 78 529 b 69 539 72 529 68 533 l 75 558 b 83 565 76 563 79 565 l 150 565 b 253 825 163 658 196 749 b 518 971 317 910 413 971 b 678 897 582 971 638 943 l 726 968 b 733 971 728 969 731 971 l 736 971 b 744 963 740 971 744 968 l 744 743 b 736 735 744 739 740 735 l 725 735 b 717 742 721 735 717 738 b 538 935 707 844 636 935 b 324 804 449 935 371 879 b 253 565 279 732 260 649 l 669 565 b 678 557 675 565 679 561 l 672 535 b 664 529 671 531 668 529 l 251 529 l 250 475 l 251 421 l 628 421 b 636 413 633 421 638 417 l 631 390 b 622 385 629 386 626 385 l 253 385 b 324 144 260 300 279 217 b 538 14 371 69 449 14 b 717 207 636 14 707 104 b 725 214 717 211 721 214 l 736 214 b 744 206 740 214 744 210 l 744 -14 "},"¡":{"ha":347,"x_min":0,"x_max":0,"o":"m 231 638 b 174 581 231 606 204 581 b 117 638 142 581 117 607 b 174 694 117 669 143 694 b 231 638 206 694 231 668 m 231 -237 b 174 -293 231 -278 197 -293 b 117 -237 150 -293 117 -278 l 160 435 b 174 460 161 453 161 460 b 188 435 186 460 186 453 l 229 -225 l 231 -237 "},"ƒ":{"ha":383,"x_min":0,"x_max":0,"o":"m 435 890 b 388 843 435 854 407 843 b 340 890 368 843 340 854 b 381 938 340 925 369 935 b 328 953 367 947 346 953 b 210 765 268 953 210 881 l 210 597 l 371 597 l 371 561 l 213 561 l 213 99 b 329 36 213 36 229 36 l 329 0 b 181 3 292 3 221 3 b 47 0 144 3 81 3 l 47 36 b 142 96 136 36 142 43 l 142 561 l 31 561 l 31 597 l 142 597 l 142 763 b 329 975 142 910 250 975 b 435 890 385 975 435 943 "},"⁄":{"ha":685,"x_min":0,"x_max":0,"o":"m 621 921 b 618 910 621 917 619 913 l 108 17 b 88 4 104 8 97 4 b 64 28 75 4 64 15 b 67 39 64 32 65 36 l 576 933 b 597 944 581 940 589 944 b 621 921 611 944 621 935 "},"∕":{"ha":0,"x_min":0,"x_max":0,"o":"m 279 921 b 276 910 279 917 278 913 l -233 17 b -254 4 -237 8 -244 4 b -278 28 -267 4 -278 15 b -275 39 -278 32 -276 36 l 235 933 b 256 944 239 940 247 944 b 279 921 269 944 279 935 "},"Ǵ":{"ha":1008,"x_min":0,"x_max":0,"o":"m 953 336 b 863 276 867 336 863 329 l 863 28 b 854 1 863 3 861 1 b 785 97 847 1 808 40 b 519 -22 742 18 632 -22 b 64 475 275 -22 64 190 b 517 971 64 761 279 971 b 775 835 624 971 707 921 l 836 951 b 853 969 846 968 847 969 b 863 943 861 969 863 968 l 863 614 b 847 586 863 589 863 586 b 832 606 835 586 835 589 b 535 935 806 799 692 935 b 169 475 400 935 169 838 b 547 14 169 113 404 14 b 771 179 590 14 771 26 l 771 271 b 649 336 771 321 768 336 l 607 336 l 607 372 l 807 369 b 953 372 844 369 919 369 l 953 336 m 685 1199 b 658 1169 682 1183 678 1182 l 425 1024 b 414 1042 424 1026 414 1042 b 426 1056 414 1042 414 1044 l 615 1225 b 646 1243 629 1236 636 1243 b 685 1199 669 1243 688 1222 "},"ǵ":{"ha":638,"x_min":0,"x_max":0,"o":"m 626 565 b 594 533 626 547 615 533 b 564 564 576 533 564 546 b 582 593 564 586 576 592 b 561 597 575 597 567 597 b 433 542 529 597 472 583 b 486 407 475 499 486 443 b 282 206 486 292 392 206 b 154 250 226 206 181 229 b 128 176 128 219 128 189 b 200 82 128 128 157 89 b 296 81 207 81 264 81 b 608 -108 403 81 608 81 b 318 -283 608 -212 471 -283 b 28 -110 160 -283 28 -210 b 157 33 28 -40 85 15 b 96 151 110 63 96 115 b 138 264 96 158 96 215 b 78 407 124 278 78 328 b 282 608 78 522 172 608 b 418 557 326 608 376 594 b 561 619 457 593 506 619 b 626 565 606 619 626 592 m 404 407 b 282 585 404 435 404 585 b 160 407 160 585 160 435 b 282 229 160 379 160 229 b 404 407 404 229 404 379 m 553 -110 b 281 19 553 19 394 19 b 138 -4 186 19 172 19 b 83 -110 107 -26 83 -67 b 318 -260 83 -186 179 -260 b 553 -110 457 -260 553 -186 m 435 929 b 414 896 435 914 431 911 l 210 711 l 194 728 b 204 743 194 728 194 731 l 361 943 b 397 967 375 960 381 967 b 435 929 417 967 435 950 "},"Γ":{"ha":800,"x_min":0,"x_max":0,"o":"m 728 639 b 485 910 707 813 696 910 l 332 910 b 274 856 276 910 274 903 l 274 100 b 382 36 274 50 276 36 l 413 36 l 413 0 b 232 3 356 3 289 3 b 71 0 189 3 111 3 l 71 36 b 182 99 167 36 182 36 l 182 847 b 71 910 182 910 167 910 l 71 946 l 719 946 l 753 639 "},"Ğ":{"ha":1008,"x_min":0,"x_max":0,"o":"m 953 336 b 863 276 867 336 863 329 l 863 28 b 854 1 863 3 861 1 b 785 97 847 1 808 40 b 519 -22 742 18 632 -22 b 64 475 275 -22 64 190 b 517 971 64 761 279 971 b 775 835 624 971 707 921 l 836 951 b 853 969 846 968 847 969 b 863 943 861 969 863 968 l 863 614 b 847 586 863 589 863 586 b 832 606 835 586 835 589 b 535 935 806 799 692 935 b 169 475 400 935 169 838 b 547 14 169 113 404 14 b 771 179 590 14 771 26 l 771 271 b 649 336 771 321 768 336 l 607 336 l 607 372 l 807 369 b 953 372 844 369 919 369 l 953 336 m 697 1265 b 504 1024 694 1122 610 1024 b 311 1265 399 1024 314 1122 l 333 1265 b 504 1063 336 1140 415 1063 b 675 1265 593 1063 672 1142 l 697 1265 "},"ğ":{"ha":638,"x_min":0,"x_max":0,"o":"m 626 565 b 594 533 626 547 615 533 b 564 564 576 533 564 546 b 582 593 564 586 576 592 b 561 597 575 597 567 597 b 433 542 529 597 472 583 b 486 407 475 499 486 443 b 282 206 486 292 392 206 b 154 250 226 206 181 229 b 128 176 128 219 128 189 b 200 82 128 128 157 89 b 296 81 207 81 264 81 b 608 -108 403 81 608 81 b 318 -283 608 -212 471 -283 b 28 -110 160 -283 28 -210 b 157 33 28 -40 85 15 b 96 151 110 63 96 115 b 138 264 96 158 96 215 b 78 407 124 278 78 328 b 282 608 78 522 172 608 b 418 557 326 608 376 594 b 561 619 457 593 506 619 b 626 565 606 619 626 592 m 404 407 b 282 585 404 435 404 585 b 160 407 160 585 160 435 b 282 229 160 379 160 229 b 404 407 404 229 404 379 m 553 -110 b 281 19 553 19 394 19 b 138 -4 186 19 172 19 b 83 -110 107 -26 83 -67 b 318 -260 83 -186 179 -260 b 553 -110 457 -260 553 -186 m 467 960 b 274 718 464 817 379 718 b 81 960 168 718 83 817 l 103 960 b 274 757 106 835 185 757 b 444 960 363 757 442 836 l 467 960 "},"Ǧ":{"ha":1008,"x_min":0,"x_max":0,"o":"m 953 336 b 863 276 867 336 863 329 l 863 28 b 854 1 863 3 861 1 b 785 97 847 1 808 40 b 519 -22 742 18 632 -22 b 64 475 275 -22 64 190 b 517 971 64 761 279 971 b 775 835 624 971 707 921 l 836 951 b 853 969 846 968 847 969 b 863 943 861 969 863 968 l 863 614 b 847 586 863 589 863 586 b 832 606 835 586 835 589 b 535 935 806 799 692 935 b 169 475 400 935 169 838 b 547 14 169 113 404 14 b 771 179 590 14 771 26 l 771 271 b 649 336 771 321 768 336 l 607 336 l 607 372 l 807 369 b 953 372 844 369 919 369 l 953 336 m 504 1010 l 294 1172 l 311 1194 l 506 1103 l 700 1194 l 714 1172 "},"ǧ":{"ha":638,"x_min":0,"x_max":0,"o":"m 626 565 b 594 533 626 547 615 533 b 564 564 576 533 564 546 b 582 593 564 586 576 592 b 561 597 575 597 567 597 b 433 542 529 597 472 583 b 486 407 475 499 486 443 b 282 206 486 292 392 206 b 154 250 226 206 181 229 b 128 176 128 219 128 189 b 200 82 128 128 157 89 b 296 81 207 81 264 81 b 608 -108 403 81 608 81 b 318 -283 608 -212 471 -283 b 28 -110 160 -283 28 -210 b 157 33 28 -40 85 15 b 96 151 110 63 96 115 b 138 264 96 158 96 215 b 78 407 124 278 78 328 b 282 608 78 522 172 608 b 418 557 326 608 376 594 b 561 619 457 593 506 619 b 626 565 606 619 626 592 m 404 407 b 282 585 404 435 404 585 b 160 407 160 585 160 435 b 282 229 160 379 160 229 b 404 407 404 229 404 379 m 553 -110 b 281 19 553 19 394 19 b 138 -4 186 19 172 19 b 83 -110 107 -26 83 -67 b 318 -260 83 -186 179 -260 b 553 -110 457 -260 553 -186 m 274 717 l 63 942 l 81 961 l 274 811 l 467 961 l 485 942 "},"Ĝ":{"ha":1008,"x_min":0,"x_max":0,"o":"m 953 336 b 863 276 867 336 863 329 l 863 28 b 854 1 863 3 861 1 b 785 97 847 1 808 40 b 519 -22 742 18 632 -22 b 64 475 275 -22 64 190 b 517 971 64 761 279 971 b 775 835 624 971 707 921 l 836 951 b 853 969 846 968 847 969 b 863 943 861 969 863 968 l 863 614 b 847 586 863 589 863 586 b 832 606 835 586 835 589 b 535 935 806 799 692 935 b 169 475 400 935 169 838 b 547 14 169 113 404 14 b 771 179 590 14 771 26 l 771 271 b 649 336 771 321 768 336 l 607 336 l 607 372 l 807 369 b 953 372 844 369 919 369 l 953 336 m 697 1010 l 503 1101 l 308 1010 l 294 1032 l 504 1194 l 714 1032 "},"ĝ":{"ha":638,"x_min":0,"x_max":0,"o":"m 626 565 b 594 533 626 547 615 533 b 564 564 576 533 564 546 b 582 593 564 586 576 592 b 561 597 575 597 567 597 b 433 542 529 597 472 583 b 486 407 475 499 486 443 b 282 206 486 292 392 206 b 154 250 226 206 181 229 b 128 176 128 219 128 189 b 200 82 128 128 157 89 b 296 81 207 81 264 81 b 608 -108 403 81 608 81 b 318 -283 608 -212 471 -283 b 28 -110 160 -283 28 -210 b 157 33 28 -40 85 15 b 96 151 110 63 96 115 b 138 264 96 158 96 215 b 78 407 124 278 78 328 b 282 608 78 522 172 608 b 418 557 326 608 376 594 b 561 619 457 593 506 619 b 626 565 606 619 626 592 m 404 407 b 282 585 404 435 404 585 b 160 407 160 585 160 435 b 282 229 160 379 160 229 b 404 407 404 229 404 379 m 553 -110 b 281 19 553 19 394 19 b 138 -4 186 19 172 19 b 83 -110 107 -26 83 -67 b 318 -260 83 -186 179 -260 b 553 -110 457 -260 553 -186 m 467 717 l 274 867 l 81 717 l 63 736 l 274 961 l 485 736 "},"Ģ":{"ha":1008,"x_min":0,"x_max":0,"o":"m 953 336 b 863 276 867 336 863 329 l 863 28 b 854 1 863 3 861 1 b 785 97 847 1 808 40 b 519 -22 742 18 632 -22 b 64 475 275 -22 64 190 b 517 971 64 761 279 971 b 775 835 624 971 707 921 l 836 951 b 853 969 846 968 847 969 b 863 943 861 969 863 968 l 863 614 b 847 586 863 589 863 586 b 832 606 835 586 835 589 b 535 935 806 799 692 935 b 169 475 400 935 169 838 b 547 14 169 113 404 14 b 771 179 590 14 771 26 l 771 271 b 649 336 771 321 768 336 l 607 336 l 607 372 l 807 369 b 953 372 844 369 919 369 l 953 336 m 553 -165 b 475 -354 553 -281 481 -354 b 467 -346 471 -354 467 -350 b 471 -336 467 -346 467 -342 b 536 -164 515 -285 536 -226 b 533 -135 536 -147 536 -144 b 500 -151 525 -147 513 -151 b 457 -110 476 -151 457 -136 b 500 -67 457 -82 476 -67 b 553 -165 549 -67 553 -131 "},"ģ":{"ha":638,"x_min":0,"x_max":0,"o":"m 322 761 b 279 718 322 733 303 718 b 226 817 231 718 226 782 b 304 1006 226 932 299 1006 b 313 997 308 1006 313 1001 b 308 988 313 997 313 993 b 243 815 264 936 243 878 b 246 786 243 799 243 796 b 279 803 254 799 267 803 b 322 761 303 803 322 788 m 626 565 b 594 533 626 547 615 533 b 564 564 576 533 564 546 b 582 593 564 586 576 592 b 561 597 575 597 567 597 b 433 542 529 597 472 583 b 486 407 475 499 486 443 b 282 206 486 292 392 206 b 154 250 226 206 181 229 b 128 176 128 219 128 189 b 200 82 128 128 157 89 b 296 81 207 81 264 81 b 608 -108 403 81 608 81 b 318 -283 608 -212 471 -283 b 28 -110 160 -283 28 -210 b 157 33 28 -40 85 15 b 96 151 110 63 96 115 b 138 264 96 158 96 215 b 78 407 124 278 78 328 b 282 608 78 522 172 608 b 418 557 326 608 376 594 b 561 619 457 593 506 619 b 626 565 606 619 626 592 m 404 407 b 282 585 404 435 404 585 b 160 407 160 585 160 435 b 282 229 160 379 160 229 b 404 407 404 229 404 379 m 553 -110 b 281 19 553 19 394 19 b 138 -4 186 19 172 19 b 83 -110 107 -26 83 -67 b 318 -260 83 -186 179 -260 b 553 -110 457 -260 553 -186 "},"Ġ":{"ha":1008,"x_min":0,"x_max":0,"o":"m 953 336 b 863 276 867 336 863 329 l 863 28 b 854 1 863 3 861 1 b 785 97 847 1 808 40 b 519 -22 742 18 632 -22 b 64 475 275 -22 64 190 b 517 971 64 761 279 971 b 775 835 624 971 707 921 l 836 951 b 853 969 846 968 847 969 b 863 943 861 969 863 968 l 863 614 b 847 586 863 589 863 586 b 832 606 835 586 835 589 b 535 935 806 799 692 935 b 169 475 400 935 169 838 b 547 14 169 113 404 14 b 771 179 590 14 771 26 l 771 271 b 649 336 771 321 768 336 l 607 336 l 607 372 l 807 369 b 953 372 844 369 919 369 l 953 336 m 560 1089 b 503 1032 560 1058 536 1032 b 447 1089 474 1032 447 1056 b 504 1146 447 1119 471 1146 b 560 1089 533 1146 560 1122 "},"ġ":{"ha":638,"x_min":0,"x_max":0,"o":"m 626 565 b 594 533 626 547 615 533 b 564 564 576 533 564 546 b 582 593 564 586 576 592 b 561 597 575 597 567 597 b 433 542 529 597 472 583 b 486 407 475 499 486 443 b 282 206 486 292 392 206 b 154 250 226 206 181 229 b 128 176 128 219 128 189 b 200 82 128 128 157 89 b 296 81 207 81 264 81 b 608 -108 403 81 608 81 b 318 -283 608 -212 471 -283 b 28 -110 160 -283 28 -210 b 157 33 28 -40 85 15 b 96 151 110 63 96 115 b 138 264 96 158 96 215 b 78 407 124 278 78 328 b 282 608 78 522 172 608 b 418 557 326 608 376 594 b 561 619 457 593 506 619 b 626 565 606 619 626 592 m 404 407 b 282 585 404 435 404 585 b 160 407 160 585 160 435 b 282 229 160 379 160 229 b 404 407 404 229 404 379 m 553 -110 b 281 19 553 19 394 19 b 138 -4 186 19 172 19 b 83 -110 107 -26 83 -67 b 318 -260 83 -186 179 -260 b 553 -110 457 -260 553 -186 m 329 839 b 272 782 329 808 306 782 b 217 839 243 782 217 806 b 274 896 217 869 240 896 b 329 839 303 896 329 872 "},"ß":{"ha":638,"x_min":0,"x_max":0,"o":"m 608 242 b 376 -11 608 83 489 -11 b 246 79 304 -11 246 25 b 285 119 246 113 272 119 b 324 81 300 119 324 110 b 288 42 324 54 304 44 b 374 11 321 11 363 11 b 528 240 443 11 528 76 b 297 575 528 411 446 561 b 281 586 283 576 281 576 b 300 597 281 596 285 596 b 492 783 429 607 492 690 b 351 953 492 888 429 953 b 208 774 306 953 208 921 l 208 0 b 160 3 208 0 183 3 b 43 0 131 3 69 3 l 43 36 b 138 96 132 36 138 43 l 138 561 l 43 561 l 43 597 l 138 597 l 138 771 b 353 975 138 917 261 975 b 572 781 472 975 572 890 b 374 583 572 678 472 607 b 608 242 513 542 608 400 "},"̀":{"ha":0,"x_min":0,"x_max":0,"o":"m -254 711 l -458 896 b -479 929 -475 911 -479 914 b -442 967 -479 950 -461 967 b -406 943 -425 967 -419 960 l -249 743 b -239 728 -239 731 -239 728 "},"«":{"ha":710,"x_min":0,"x_max":0,"o":"m 354 8 b 346 0 354 4 350 0 l 340 0 b 332 6 336 0 333 3 b 139 329 292 126 226 238 b 136 335 138 331 136 333 b 139 340 136 338 138 339 b 332 664 226 433 292 543 b 340 669 333 668 336 669 l 346 669 b 354 661 350 669 354 667 l 354 660 b 213 335 326 544 278 435 b 354 10 278 236 326 126 l 354 8 m 572 8 b 564 0 572 4 568 0 l 558 0 b 550 6 554 0 551 3 b 357 329 510 126 444 238 b 354 335 356 331 354 333 b 357 340 354 338 356 339 b 550 664 444 433 510 543 b 558 669 551 668 554 669 l 564 669 b 572 661 568 669 572 667 l 572 660 b 431 335 544 544 496 435 b 572 10 496 236 544 126 l 572 8 "},"»":{"ha":710,"x_min":0,"x_max":0,"o":"m 572 335 b 571 329 572 333 572 331 b 376 6 483 238 417 126 b 368 0 375 3 372 0 l 363 0 b 354 8 358 0 354 4 b 356 10 354 8 354 10 b 496 335 383 126 431 236 b 356 660 431 435 383 544 b 354 661 354 660 354 661 b 363 669 354 667 358 669 l 368 669 b 376 664 372 669 375 668 b 571 340 417 543 483 433 b 572 335 572 339 572 338 m 354 335 b 353 329 354 333 354 331 b 158 6 265 238 199 126 b 150 0 157 3 154 0 l 144 0 b 136 8 140 0 136 4 b 138 10 136 8 136 10 b 278 335 165 126 213 236 b 138 660 213 435 165 544 b 136 661 136 660 136 661 b 144 669 136 667 140 669 l 150 669 b 158 664 154 669 157 668 b 353 340 199 543 265 433 b 354 335 354 339 354 338 "},"‹":{"ha":507,"x_min":0,"x_max":0,"o":"m 363 8 b 354 0 363 4 358 0 l 349 0 b 340 6 344 0 342 3 b 147 329 300 126 235 238 b 144 335 146 331 144 333 b 147 340 144 338 146 339 b 340 664 235 433 300 543 b 349 669 342 668 344 669 l 354 669 b 363 661 358 669 363 667 l 363 660 b 221 335 335 544 286 435 b 363 10 286 236 335 126 l 363 8 "},"›":{"ha":507,"x_min":0,"x_max":0,"o":"m 363 335 b 361 329 363 333 363 331 b 167 6 274 238 207 126 b 158 0 165 3 163 0 l 153 0 b 144 8 149 0 144 4 b 146 10 144 8 144 10 b 286 335 174 126 221 236 b 146 660 221 435 174 544 b 144 661 144 660 144 661 b 153 669 144 667 149 669 l 158 669 b 167 664 163 669 165 668 b 361 340 207 543 274 433 b 363 335 363 339 363 338 "},"Ħ":{"ha":963,"x_min":0,"x_max":0,"o":"m 890 0 b 733 3 850 3 776 3 b 576 0 690 3 617 3 l 576 36 b 688 99 672 36 688 36 l 688 475 l 274 475 l 274 99 b 385 36 274 36 289 36 l 385 0 b 228 3 344 3 271 3 b 71 0 185 3 111 3 l 71 36 b 182 99 167 36 182 36 l 182 693 l 71 693 l 71 729 l 182 729 l 182 850 b 71 913 182 913 167 913 l 71 949 b 228 946 111 946 185 946 b 385 949 271 946 344 946 l 385 913 b 274 850 289 913 274 913 l 274 729 l 688 729 l 688 850 b 576 913 688 913 672 913 l 576 949 b 733 946 617 946 690 946 b 890 949 776 946 850 946 l 890 913 b 779 850 794 913 779 913 l 779 729 l 890 729 l 890 693 l 779 693 l 779 99 b 890 36 779 36 794 36 l 890 0 m 688 693 l 274 693 l 274 511 l 688 511 "},"ħ":{"ha":710,"x_min":0,"x_max":0,"o":"m 671 0 b 539 3 638 3 575 3 b 408 0 503 3 442 3 l 408 36 b 503 96 497 36 503 43 l 503 428 b 389 586 503 494 492 586 b 214 363 292 586 214 490 l 214 96 b 308 36 214 42 219 36 l 308 0 b 176 3 275 3 213 3 b 46 0 140 3 79 3 l 46 36 b 140 96 135 36 140 43 l 140 744 l 46 744 l 46 781 l 140 781 l 140 838 b 46 913 140 904 128 913 l 46 949 l 211 964 l 211 781 l 354 781 l 354 744 l 211 744 l 211 471 l 213 471 b 399 608 229 517 285 608 b 576 422 563 608 576 493 l 576 96 b 671 36 576 42 582 36 l 671 0 "},"Ḫ":{"ha":963,"x_min":0,"x_max":0,"o":"m 890 0 b 733 3 850 3 776 3 b 576 0 690 3 617 3 l 576 36 b 688 99 672 36 688 36 l 688 475 l 274 475 l 274 99 b 385 36 274 36 289 36 l 385 0 b 228 3 344 3 271 3 b 71 0 185 3 111 3 l 71 36 b 182 99 167 36 182 36 l 182 850 b 71 913 182 913 167 913 l 71 949 b 228 946 111 946 185 946 b 385 949 271 946 344 946 l 385 913 b 274 850 289 913 274 913 l 274 511 l 688 511 l 688 850 b 576 913 688 913 672 913 l 576 949 b 733 946 617 946 690 946 b 890 949 776 946 850 946 l 890 913 b 779 850 794 913 779 913 l 779 99 b 890 36 779 36 794 36 l 890 0 m 674 -100 b 481 -342 671 -243 586 -342 b 288 -100 375 -342 290 -243 l 310 -100 b 481 -303 313 -225 392 -303 b 651 -100 569 -303 649 -224 l 674 -100 "},"ḫ":{"ha":710,"x_min":0,"x_max":0,"o":"m 671 0 b 539 3 638 3 575 3 b 408 0 503 3 442 3 l 408 36 b 503 96 497 36 503 43 l 503 428 b 389 586 503 494 492 586 b 214 363 292 586 214 490 l 214 96 b 308 36 214 42 219 36 l 308 0 b 176 3 275 3 213 3 b 46 0 140 3 79 3 l 46 36 b 140 96 135 36 140 43 l 140 838 b 46 913 140 904 128 913 l 46 949 l 211 964 l 211 471 l 213 471 b 399 608 229 517 285 608 b 576 422 563 608 576 493 l 576 96 b 671 36 576 42 582 36 l 671 0 m 551 -100 b 358 -342 549 -243 464 -342 b 165 -100 253 -342 168 -243 l 188 -100 b 358 -303 190 -225 269 -303 b 529 -100 447 -303 526 -224 l 551 -100 "},"Ĥ":{"ha":963,"x_min":0,"x_max":0,"o":"m 890 0 b 733 3 850 3 776 3 b 576 0 690 3 617 3 l 576 36 b 688 99 672 36 688 36 l 688 475 l 274 475 l 274 99 b 385 36 274 36 289 36 l 385 0 b 228 3 344 3 271 3 b 71 0 185 3 111 3 l 71 36 b 182 99 167 36 182 36 l 182 850 b 71 913 182 913 167 913 l 71 949 b 228 946 111 946 185 946 b 385 949 271 946 344 946 l 385 913 b 274 850 289 913 274 913 l 274 511 l 688 511 l 688 850 b 576 913 688 913 672 913 l 576 949 b 733 946 617 946 690 946 b 890 949 776 946 850 946 l 890 913 b 779 850 794 913 779 913 l 779 99 b 890 36 779 36 794 36 l 890 0 m 674 1010 l 479 1101 l 285 1010 l 271 1032 l 481 1194 l 690 1032 "},"ĥ":{"ha":710,"x_min":0,"x_max":0,"o":"m 671 0 b 539 3 638 3 575 3 b 408 0 503 3 442 3 l 408 36 b 503 96 497 36 503 43 l 503 428 b 389 586 503 494 492 586 b 214 363 292 586 214 490 l 214 96 b 308 36 214 42 219 36 l 308 0 b 176 3 275 3 213 3 b 46 0 140 3 79 3 l 46 36 b 140 96 135 36 140 43 l 140 838 b 46 913 140 904 128 913 l 46 949 l 211 964 l 211 471 l 213 471 b 399 608 229 517 285 608 b 576 422 563 608 576 493 l 576 96 b 671 36 576 42 582 36 l 671 0 m 547 1025 l 353 1117 l 158 1025 l 144 1047 l 354 1210 l 564 1047 "},"Ḧ":{"ha":963,"x_min":0,"x_max":0,"o":"m 890 0 b 733 3 850 3 776 3 b 576 0 690 3 617 3 l 576 36 b 688 99 672 36 688 36 l 688 475 l 274 475 l 274 99 b 385 36 274 36 289 36 l 385 0 b 228 3 344 3 271 3 b 71 0 185 3 111 3 l 71 36 b 182 99 167 36 182 36 l 182 850 b 71 913 182 913 167 913 l 71 949 b 228 946 111 946 185 946 b 385 949 271 946 344 946 l 385 913 b 274 850 289 913 274 913 l 274 511 l 688 511 l 688 850 b 576 913 688 913 672 913 l 576 949 b 733 946 617 946 690 946 b 890 949 776 946 850 946 l 890 913 b 779 850 794 913 779 913 l 779 99 b 890 36 779 36 794 36 l 890 0 m 422 1061 b 372 1010 422 1033 401 1010 b 322 1061 346 1010 322 1031 b 372 1111 322 1088 343 1111 b 422 1061 399 1111 422 1090 m 639 1061 b 589 1010 639 1033 618 1010 b 539 1061 563 1010 539 1031 b 589 1111 539 1088 560 1111 b 639 1061 615 1111 639 1090 "},"ḧ":{"ha":710,"x_min":0,"x_max":0,"o":"m 671 0 b 539 3 638 3 575 3 b 408 0 503 3 442 3 l 408 36 b 503 96 497 36 503 43 l 503 428 b 389 586 503 494 492 586 b 214 363 292 586 214 490 l 214 96 b 308 36 214 42 219 36 l 308 0 b 176 3 275 3 213 3 b 46 0 140 3 79 3 l 46 36 b 140 96 135 36 140 43 l 140 838 b 46 913 140 904 128 913 l 46 949 l 211 964 l 211 471 l 213 471 b 399 608 229 517 285 608 b 576 422 563 608 576 493 l 576 96 b 671 36 576 42 582 36 l 671 0 m 296 1076 b 246 1025 296 1049 275 1025 b 196 1076 219 1025 196 1046 b 246 1126 196 1103 217 1126 b 296 1076 272 1126 296 1106 m 513 1076 b 463 1025 513 1049 492 1025 b 413 1076 436 1025 413 1046 b 463 1126 413 1103 433 1126 b 513 1076 489 1126 513 1106 "},"Ḥ":{"ha":963,"x_min":0,"x_max":0,"o":"m 890 0 b 733 3 850 3 776 3 b 576 0 690 3 617 3 l 576 36 b 688 99 672 36 688 36 l 688 475 l 274 475 l 274 99 b 385 36 274 36 289 36 l 385 0 b 228 3 344 3 271 3 b 71 0 185 3 111 3 l 71 36 b 182 99 167 36 182 36 l 182 850 b 71 913 182 913 167 913 l 71 949 b 228 946 111 946 185 946 b 385 949 271 946 344 946 l 385 913 b 274 850 289 913 274 913 l 274 511 l 688 511 l 688 850 b 576 913 688 913 672 913 l 576 949 b 733 946 617 946 690 946 b 890 949 776 946 850 946 l 890 913 b 779 850 794 913 779 913 l 779 99 b 890 36 779 36 794 36 l 890 0 m 538 -221 b 481 -278 538 -251 514 -278 b 425 -221 451 -278 425 -254 b 482 -164 425 -190 449 -164 b 538 -221 511 -164 538 -187 "},"ḥ":{"ha":710,"x_min":0,"x_max":0,"o":"m 671 0 b 539 3 638 3 575 3 b 408 0 503 3 442 3 l 408 36 b 503 96 497 36 503 43 l 503 428 b 389 586 503 494 492 586 b 214 363 292 586 214 490 l 214 96 b 308 36 214 42 219 36 l 308 0 b 176 3 275 3 213 3 b 46 0 140 3 79 3 l 46 36 b 140 96 135 36 140 43 l 140 838 b 46 913 140 904 128 913 l 46 949 l 211 964 l 211 471 l 213 471 b 399 608 229 517 285 608 b 576 422 563 608 576 493 l 576 96 b 671 36 576 42 582 36 l 671 0 m 414 -221 b 357 -278 414 -251 390 -278 b 301 -221 328 -278 301 -254 b 358 -164 301 -190 325 -164 b 414 -221 388 -164 414 -187 "},"̉":{"ha":0,"x_min":0,"x_max":0,"o":"m -193 896 b -231 836 -193 871 -208 849 b -319 726 -285 807 -319 771 l -319 699 b -328 690 -319 694 -324 690 b -336 699 -332 690 -336 694 l -336 726 b -271 850 -336 774 -310 817 b -251 896 -258 860 -251 876 b -267 951 -251 924 -254 940 b -328 972 -281 967 -301 972 b -418 929 -367 972 -401 956 l -410 931 b -374 896 -390 931 -374 917 b -410 861 -375 874 -390 861 b -444 896 -428 861 -444 874 b -328 988 -443 950 -389 988 b -231 964 -289 988 -257 982 b -193 896 -207 949 -193 924 "},"˝":{"ha":638,"x_min":0,"x_max":0,"o":"m 321 931 b 307 897 321 925 321 917 l 183 713 b 164 726 179 714 164 722 l 169 743 l 246 933 b 282 967 254 953 260 967 b 321 931 300 967 321 951 m 539 931 b 525 897 539 925 539 917 l 401 713 b 382 726 397 714 382 722 l 388 743 l 464 933 b 500 967 472 953 478 967 b 539 931 518 967 539 951 "},"̋":{"ha":0,"x_min":0,"x_max":0,"o":"m -317 931 b -331 897 -317 925 -317 917 l -454 713 b -474 726 -458 714 -474 722 l -468 743 l -392 933 b -356 967 -383 953 -378 967 b -317 931 -337 967 -317 951 m -99 931 b -112 897 -99 925 -99 917 l -236 713 b -256 726 -240 714 -256 722 l -250 743 l -174 933 b -137 967 -165 953 -160 967 b -99 931 -119 967 -99 951 "},"Í":{"ha":456,"x_min":0,"x_max":0,"o":"m 390 0 b 228 3 346 3 275 3 b 65 0 181 3 110 3 l 65 36 b 182 99 165 36 182 36 l 182 850 b 65 913 182 913 165 913 l 65 949 b 228 946 110 946 181 946 b 390 949 275 946 346 946 l 390 913 b 274 850 290 913 274 913 l 274 99 b 390 36 274 36 290 36 l 390 0 m 407 1199 b 381 1169 404 1183 400 1182 l 147 1024 b 136 1042 146 1026 136 1042 b 149 1056 136 1042 136 1044 l 338 1225 b 368 1243 351 1236 358 1243 b 407 1199 392 1243 410 1222 "},"í":{"ha":347,"x_min":0,"x_max":0,"o":"m 297 0 b 175 3 265 3 208 3 b 47 0 140 3 81 3 l 47 36 b 142 96 136 36 142 43 l 142 482 b 53 557 142 549 131 557 l 53 593 l 213 608 l 213 94 b 297 36 213 44 215 36 l 297 0 m 335 929 b 314 896 335 914 331 911 l 110 711 l 94 728 b 104 743 94 728 94 731 l 261 943 b 297 967 275 960 281 967 b 335 929 317 967 335 950 "},"Ĭ":{"ha":456,"x_min":0,"x_max":0,"o":"m 390 0 b 228 3 346 3 275 3 b 65 0 181 3 110 3 l 65 36 b 182 99 165 36 182 36 l 182 850 b 65 913 182 913 165 913 l 65 949 b 228 946 110 946 181 946 b 390 949 275 946 346 946 l 390 913 b 274 850 290 913 274 913 l 274 99 b 390 36 274 36 290 36 l 390 0 m 419 1265 b 226 1024 417 1122 332 1024 b 33 1265 121 1024 36 1122 l 56 1265 b 226 1063 58 1140 138 1063 b 397 1265 315 1063 394 1142 l 419 1265 "},"ĭ":{"ha":347,"x_min":0,"x_max":0,"o":"m 297 0 b 175 3 265 3 208 3 b 47 0 140 3 81 3 l 47 36 b 142 96 136 36 142 43 l 142 482 b 53 557 142 549 131 557 l 53 593 l 213 608 l 213 94 b 297 36 213 44 215 36 l 297 0 m 367 960 b 174 718 364 817 279 718 b -19 960 68 718 -17 817 l 3 960 b 174 757 6 835 85 757 b 344 960 263 757 342 836 l 367 960 "},"Ǐ":{"ha":456,"x_min":0,"x_max":0,"o":"m 390 0 b 228 3 346 3 275 3 b 65 0 181 3 110 3 l 65 36 b 182 99 165 36 182 36 l 182 850 b 65 913 182 913 165 913 l 65 949 b 228 946 110 946 181 946 b 390 949 275 946 346 946 l 390 913 b 274 850 290 913 274 913 l 274 99 b 390 36 274 36 290 36 l 390 0 m 226 1010 l 17 1172 l 33 1194 l 228 1103 l 422 1194 l 436 1172 "},"ǐ":{"ha":347,"x_min":0,"x_max":0,"o":"m 297 0 b 175 3 265 3 208 3 b 47 0 140 3 81 3 l 47 36 b 142 96 136 36 142 43 l 142 482 b 53 557 142 549 131 557 l 53 593 l 213 608 l 213 94 b 297 36 213 44 215 36 l 297 0 m 174 717 l -37 942 l -19 961 l 174 811 l 367 961 l 385 942 "},"Î":{"ha":456,"x_min":0,"x_max":0,"o":"m 390 0 b 228 3 346 3 275 3 b 65 0 181 3 110 3 l 65 36 b 182 99 165 36 182 36 l 182 850 b 65 913 182 913 165 913 l 65 949 b 228 946 110 946 181 946 b 390 949 275 946 346 946 l 390 913 b 274 850 290 913 274 913 l 274 99 b 390 36 274 36 290 36 l 390 0 m 419 1010 l 225 1101 l 31 1010 l 17 1032 l 226 1194 l 436 1032 "},"î":{"ha":347,"x_min":0,"x_max":0,"o":"m 297 0 b 175 3 265 3 208 3 b 47 0 140 3 81 3 l 47 36 b 142 96 136 36 142 43 l 142 482 b 53 557 142 549 131 557 l 53 593 l 213 608 l 213 94 b 297 36 213 44 215 36 l 297 0 m 367 717 l 174 867 l -19 717 l -37 736 l 174 961 l 385 736 "},"Ȉ":{"ha":456,"x_min":0,"x_max":0,"o":"m 390 0 b 228 3 346 3 275 3 b 65 0 181 3 110 3 l 65 36 b 182 99 165 36 182 36 l 182 850 b 65 913 182 913 165 913 l 65 949 b 228 946 110 946 181 946 b 390 949 275 946 346 946 l 390 913 b 274 850 290 913 274 913 l 274 99 b 390 36 274 36 290 36 l 390 0 m 382 1038 b 363 1024 382 1033 367 1025 l 239 1208 b 225 1242 225 1228 225 1236 b 264 1278 225 1263 246 1278 b 300 1244 286 1278 292 1264 l 376 1054 l 382 1038 m 164 1038 b 144 1024 164 1033 149 1025 l 21 1208 b 7 1242 7 1228 7 1236 b 46 1278 7 1263 28 1278 b 82 1244 68 1278 74 1264 l 158 1054 l 164 1038 "},"ȉ":{"ha":347,"x_min":0,"x_max":0,"o":"m 297 0 b 175 3 265 3 208 3 b 47 0 140 3 81 3 l 47 36 b 142 96 136 36 142 43 l 142 482 b 53 557 142 549 131 557 l 53 593 l 213 608 l 213 94 b 297 36 213 44 215 36 l 297 0 m 329 726 b 310 713 329 722 314 714 l 186 897 b 172 931 172 917 172 925 b 211 967 172 951 193 967 b 247 933 233 967 239 953 l 324 743 l 329 726 m 111 726 b 92 713 111 722 96 714 l -32 897 b -46 931 -46 917 -46 925 b -7 967 -46 951 -25 967 b 29 933 15 967 21 953 l 106 743 l 111 726 "},"Ï":{"ha":456,"x_min":0,"x_max":0,"o":"m 390 0 b 228 3 346 3 275 3 b 65 0 181 3 110 3 l 65 36 b 182 99 165 36 182 36 l 182 850 b 65 913 182 913 165 913 l 65 949 b 228 946 110 946 181 946 b 390 949 275 946 346 946 l 390 913 b 274 850 290 913 274 913 l 274 99 b 390 36 274 36 290 36 l 390 0 m 168 1061 b 118 1010 168 1033 147 1010 b 68 1061 92 1010 68 1031 b 118 1111 68 1088 89 1111 b 168 1061 144 1111 168 1090 m 385 1061 b 335 1010 385 1033 364 1010 b 285 1061 308 1010 285 1031 b 335 1111 285 1088 306 1111 b 385 1061 361 1111 385 1090 "},"ï":{"ha":347,"x_min":0,"x_max":0,"o":"m 297 0 b 175 3 265 3 208 3 b 47 0 140 3 81 3 l 47 36 b 142 96 136 36 142 43 l 142 482 b 53 557 142 549 131 557 l 53 593 l 213 608 l 213 94 b 297 36 213 44 215 36 l 297 0 m 132 840 b 82 789 132 813 111 789 b 32 840 56 789 32 810 b 82 890 32 867 53 890 b 132 840 108 890 132 869 m 315 840 b 265 789 315 813 294 789 b 215 840 239 789 215 810 b 265 890 215 867 236 890 b 315 840 292 890 315 869 "},"Ḯ":{"ha":456,"x_min":0,"x_max":0,"o":"m 390 0 b 228 3 346 3 275 3 b 65 0 181 3 110 3 l 65 36 b 182 99 165 36 182 36 l 182 850 b 65 913 182 913 165 913 l 65 949 b 228 946 110 946 181 946 b 390 949 275 946 346 946 l 390 913 b 274 850 290 913 274 913 l 274 99 b 390 36 274 36 290 36 l 390 0 m 168 1061 b 118 1010 168 1033 147 1010 b 68 1061 92 1010 68 1031 b 118 1111 68 1088 89 1111 b 168 1061 144 1111 168 1090 m 385 1061 b 335 1010 385 1033 364 1010 b 285 1061 308 1010 285 1031 b 335 1111 285 1088 306 1111 b 385 1061 361 1111 385 1090 m 407 1361 b 381 1332 404 1346 400 1344 l 147 1186 b 136 1204 146 1189 136 1204 b 149 1218 136 1204 136 1207 l 338 1388 b 368 1406 351 1399 358 1406 b 407 1361 392 1406 410 1385 "},"ḯ":{"ha":347,"x_min":0,"x_max":0,"o":"m 297 0 b 175 3 265 3 208 3 b 47 0 140 3 81 3 l 47 36 b 142 96 136 36 142 43 l 142 482 b 53 557 142 549 131 557 l 53 593 l 213 608 l 213 94 b 297 36 213 44 215 36 l 297 0 m 132 840 b 82 789 132 813 111 789 b 32 840 56 789 32 810 b 82 890 32 867 53 890 b 132 840 108 890 132 869 m 315 840 b 265 789 315 813 294 789 b 215 840 239 789 215 810 b 265 890 215 867 236 890 b 315 840 292 890 315 869 m 354 1144 b 328 1115 351 1129 347 1128 l 94 969 b 83 988 93 972 83 988 b 96 1001 83 988 83 990 l 285 1171 b 315 1189 299 1182 306 1189 b 354 1144 339 1189 357 1168 "},"İ":{"ha":456,"x_min":0,"x_max":0,"o":"m 390 0 b 228 3 346 3 275 3 b 65 0 181 3 110 3 l 65 36 b 182 99 165 36 182 36 l 182 850 b 65 913 182 913 165 913 l 65 949 b 228 946 110 946 181 946 b 390 949 275 946 346 946 l 390 913 b 274 850 290 913 274 913 l 274 99 b 390 36 274 36 290 36 l 390 0 m 283 1089 b 226 1032 283 1058 260 1032 b 171 1089 197 1032 171 1056 b 228 1146 171 1119 194 1146 b 283 1089 257 1146 283 1122 "},"Ị":{"ha":456,"x_min":0,"x_max":0,"o":"m 390 0 b 228 3 346 3 275 3 b 65 0 181 3 110 3 l 65 36 b 182 99 165 36 182 36 l 182 850 b 65 913 182 913 165 913 l 65 949 b 228 946 110 946 181 946 b 390 949 275 946 346 946 l 390 913 b 274 850 290 913 274 913 l 274 99 b 390 36 274 36 290 36 l 390 0 m 283 -221 b 226 -278 283 -251 260 -278 b 171 -221 197 -278 171 -254 b 228 -164 171 -190 194 -164 b 283 -221 257 -164 283 -187 "},"ị":{"ha":347,"x_min":0,"x_max":0,"o":"m 297 0 b 175 3 265 3 208 3 b 47 0 140 3 81 3 l 47 36 b 142 96 136 36 142 43 l 142 482 b 53 557 142 549 131 557 l 53 593 l 213 608 l 213 94 b 297 36 213 44 215 36 l 297 0 m 229 839 b 172 782 229 808 206 782 b 117 839 143 782 117 806 b 174 896 117 869 140 896 b 229 839 203 896 229 872 m 229 -221 b 172 -278 229 -251 206 -278 b 117 -221 143 -278 117 -254 b 174 -164 117 -190 140 -164 b 229 -221 203 -164 229 -187 "},"Ì":{"ha":456,"x_min":0,"x_max":0,"o":"m 390 0 b 228 3 346 3 275 3 b 65 0 181 3 110 3 l 65 36 b 182 99 165 36 182 36 l 182 850 b 65 913 182 913 165 913 l 65 949 b 228 946 110 946 181 946 b 390 949 275 946 346 946 l 390 913 b 274 850 290 913 274 913 l 274 99 b 390 36 274 36 290 36 l 390 0 m 318 1042 b 307 1024 318 1042 308 1026 l 74 1169 b 47 1199 54 1182 50 1183 b 85 1243 43 1222 61 1243 b 117 1225 96 1243 103 1236 l 306 1056 b 318 1042 318 1044 318 1042 "},"ì":{"ha":347,"x_min":0,"x_max":0,"o":"m 297 0 b 175 3 265 3 208 3 b 47 0 140 3 81 3 l 47 36 b 142 96 136 36 142 43 l 142 482 b 53 557 142 549 131 557 l 53 593 l 213 608 l 213 94 b 297 36 213 44 215 36 l 297 0 m 239 711 l 35 896 b 14 929 18 911 14 914 b 51 967 14 950 32 967 b 88 943 68 967 74 960 l 244 743 b 254 728 254 731 254 728 "},"Ỉ":{"ha":456,"x_min":0,"x_max":0,"o":"m 390 0 b 228 3 346 3 275 3 b 65 0 181 3 110 3 l 65 36 b 182 99 165 36 182 36 l 182 850 b 65 913 182 913 165 913 l 65 949 b 228 946 110 946 181 946 b 390 949 275 946 346 946 l 390 913 b 274 850 290 913 274 913 l 274 99 b 390 36 274 36 290 36 l 390 0 m 353 1238 b 315 1178 353 1213 338 1190 b 226 1068 261 1149 226 1113 l 226 1040 b 218 1032 226 1036 222 1032 b 210 1040 214 1032 210 1036 l 210 1068 b 275 1192 210 1115 236 1158 b 294 1238 288 1201 294 1218 b 279 1293 294 1265 292 1282 b 218 1314 265 1308 244 1314 b 128 1271 179 1314 144 1297 l 136 1272 b 172 1238 156 1272 172 1258 b 136 1203 171 1215 156 1203 b 101 1238 118 1203 101 1215 b 218 1329 103 1292 157 1329 b 315 1306 257 1329 289 1324 b 353 1238 339 1290 353 1265 "},"ỉ":{"ha":347,"x_min":0,"x_max":0,"o":"m 297 0 b 175 3 265 3 208 3 b 47 0 140 3 81 3 l 47 36 b 142 96 136 36 142 43 l 142 482 b 53 557 142 549 131 557 l 53 593 l 213 608 l 213 94 b 297 36 213 44 215 36 l 297 0 m 300 896 b 263 836 300 871 285 849 b 174 726 208 807 174 771 l 174 699 b 165 690 174 694 169 690 b 157 699 161 690 157 694 l 157 726 b 222 850 157 774 183 817 b 242 896 235 860 242 876 b 226 951 242 924 239 940 b 165 972 213 967 192 972 b 75 929 126 972 92 956 l 83 931 b 119 896 103 931 119 917 b 83 861 118 874 103 861 b 49 896 65 861 49 874 b 165 988 50 950 104 988 b 263 964 204 988 236 982 b 300 896 286 949 300 924 "},"Ĳ":{"ha":1064,"x_min":0,"x_max":0,"o":"m 390 0 b 228 3 346 3 275 3 b 65 0 181 3 110 3 l 65 36 b 182 99 165 36 182 36 l 182 850 b 65 913 182 913 165 913 l 65 949 b 228 946 110 946 181 946 b 390 949 275 946 346 946 l 390 913 b 274 850 290 913 274 913 l 274 99 b 390 36 274 36 290 36 l 390 0 m 992 913 b 911 886 949 913 917 913 b 908 815 908 878 908 839 l 908 232 b 907 172 908 185 908 182 b 682 -22 890 56 790 -22 b 483 156 568 -22 483 63 b 543 217 483 196 510 217 b 601 158 578 217 601 192 b 542 99 601 117 568 99 b 524 101 536 99 529 100 b 679 0 560 17 643 0 b 819 204 750 0 819 76 l 819 847 b 708 913 819 897 817 913 l 675 913 l 675 949 b 856 946 733 946 797 946 l 992 949 l 992 913 "},"ĳ":{"ha":694,"x_min":0,"x_max":0,"o":"m 215 839 b 158 782 215 808 192 782 b 103 839 129 782 103 806 b 160 896 103 869 126 896 b 215 839 189 896 215 872 m 565 839 b 508 782 565 808 542 782 b 453 839 479 782 453 806 b 510 896 453 869 476 896 b 565 839 539 896 565 872 m 297 0 b 175 3 265 3 208 3 b 47 0 140 3 81 3 l 47 36 b 142 96 136 36 142 43 l 142 482 b 53 557 142 549 131 557 l 53 593 l 213 608 l 213 94 b 297 36 213 44 215 36 l 297 0 m 565 -76 b 399 -282 565 -194 494 -282 b 267 -190 328 -282 267 -246 b 317 -139 267 -160 286 -139 b 367 -189 349 -139 367 -162 b 322 -239 367 -228 332 -237 b 400 -260 353 -258 390 -260 b 494 -82 482 -260 494 -151 l 494 481 b 392 557 494 547 483 557 l 392 593 l 565 608 l 565 -76 "},"Ī":{"ha":456,"x_min":0,"x_max":0,"o":"m 390 0 b 228 3 346 3 275 3 b 65 0 181 3 110 3 l 65 36 b 182 99 165 36 182 36 l 182 850 b 65 913 182 913 165 913 l 65 949 b 228 946 110 946 181 946 b 390 949 275 946 346 946 l 390 913 b 274 850 290 913 274 913 l 274 99 b 390 36 274 36 290 36 l 390 0 m -10 1038 l -10 1069 l 463 1069 l 463 1038 "},"ī":{"ha":347,"x_min":0,"x_max":0,"o":"m 297 0 b 175 3 265 3 208 3 b 47 0 140 3 81 3 l 47 36 b 142 96 136 36 142 43 l 142 482 b 53 557 142 549 131 557 l 53 593 l 213 608 l 213 94 b 297 36 213 44 215 36 l 297 0 m -62 824 l -62 856 l 410 856 l 410 824 "},"∞":{"ha":1306,"x_min":0,"x_max":0,"o":"m 538 368 b 299 557 474 456 400 557 b 103 300 178 557 103 432 b 301 25 103 160 175 25 b 607 272 443 25 538 143 m 1203 300 b 1004 574 1203 439 1131 574 b 699 326 863 574 768 456 l 768 231 b 1007 42 832 143 906 42 b 1203 300 1128 42 1203 167 m 1242 300 b 982 -25 1242 131 1139 -25 b 683 168 857 -25 757 67 l 644 221 b 321 -22 569 90 465 -22 b 64 300 165 -22 64 132 b 324 624 64 468 167 624 b 622 431 449 624 549 532 l 661 378 b 985 621 736 508 840 621 b 1242 300 1140 621 1242 467 "},"‽":{"ha":601,"x_min":0,"x_max":0,"o":"m 357 57 b 300 0 357 25 331 0 b 243 57 268 0 243 26 b 300 114 243 89 269 114 b 357 57 332 114 357 88 m 517 785 b 461 646 517 746 508 688 b 313 314 357 550 313 431 l 313 264 b 300 235 313 240 313 235 b 288 264 288 235 288 240 l 288 322 l 288 333 l 257 951 b 79 832 194 942 111 911 b 96 835 83 833 92 835 b 146 785 114 835 146 824 b 96 735 146 750 119 735 b 46 788 79 735 46 743 b 256 974 46 889 142 958 l 254 981 b 300 1036 254 1021 282 1036 b 346 981 319 1036 346 1021 l 346 974 b 517 785 463 958 517 883 m 428 794 b 344 949 428 844 428 928 l 322 526 b 386 647 339 569 360 610 b 428 794 411 685 428 707 "},"Į":{"ha":456,"x_min":0,"x_max":0,"o":"m 390 -160 b 226 -293 368 -239 296 -293 b 72 -168 138 -293 72 -232 b 181 3 72 -108 125 -43 l 65 0 l 65 36 b 182 99 165 36 182 36 l 182 850 b 65 913 182 913 165 913 l 65 949 b 228 946 110 946 181 946 b 390 949 275 946 346 946 l 390 913 b 274 850 290 913 274 913 l 274 99 b 390 36 274 36 290 36 l 390 0 b 243 3 350 3 290 3 b 171 -54 215 -11 192 -31 b 139 -132 151 -78 139 -104 b 260 -228 139 -196 210 -228 b 367 -150 304 -228 343 -200 b 390 -160 374 -136 394 -143 "},"į":{"ha":347,"x_min":0,"x_max":0,"o":"m 215 856 b 158 799 215 824 189 799 b 101 856 126 799 101 825 b 158 913 101 888 128 913 b 215 856 190 913 215 886 m 332 -160 b 168 -293 310 -239 238 -293 b 14 -168 79 -293 14 -232 b 122 3 14 -108 67 -44 b 47 0 96 3 67 1 l 47 36 b 142 96 136 36 142 43 l 142 482 b 53 557 142 549 131 557 l 53 593 l 213 608 l 213 94 b 297 36 213 44 215 36 l 297 0 b 186 3 268 3 219 3 b 114 -54 158 -11 133 -31 b 81 -132 94 -78 81 -104 b 201 -228 81 -196 151 -228 b 308 -150 246 -228 285 -200 b 332 -160 315 -136 336 -143 "},"Ι":{"ha":456,"x_min":0,"x_max":0,"o":"m 390 0 b 228 3 346 3 275 3 b 65 0 181 3 110 3 l 65 36 b 182 99 165 36 182 36 l 182 850 b 65 913 182 913 165 913 l 65 949 b 228 946 110 946 181 946 b 390 949 275 946 346 946 l 390 913 b 274 850 290 913 274 913 l 274 99 b 390 36 274 36 290 36 l 390 0 "},"Ĩ":{"ha":456,"x_min":0,"x_max":0,"o":"m 390 0 b 228 3 346 3 275 3 b 65 0 181 3 110 3 l 65 36 b 182 99 165 36 182 36 l 182 850 b 65 913 182 913 165 913 l 65 949 b 228 946 110 946 181 946 b 390 949 275 946 346 946 l 390 913 b 274 850 290 913 274 913 l 274 99 b 390 36 274 36 290 36 l 390 0 m 444 1114 b 301 1010 386 1050 351 1010 b 221 1046 271 1010 249 1026 b 140 1082 192 1067 171 1082 b 24 1010 97 1082 71 1056 l 8 1025 b 151 1129 67 1089 101 1129 b 232 1093 182 1129 204 1113 b 313 1057 261 1072 282 1057 b 429 1129 356 1057 382 1083 l 444 1114 "},"ĩ":{"ha":347,"x_min":0,"x_max":0,"o":"m 297 0 b 175 3 265 3 208 3 b 47 0 140 3 81 3 l 47 36 b 142 96 136 36 142 43 l 142 482 b 53 557 142 549 131 557 l 53 593 l 213 608 l 213 94 b 297 36 213 44 215 36 l 297 0 m 392 883 b 249 779 333 819 299 779 b 168 815 218 779 196 796 b 88 851 139 836 118 851 b -29 779 44 851 18 825 l -44 794 b 99 899 14 858 49 899 b 179 863 129 899 151 882 b 260 826 208 842 229 826 b 376 899 303 826 329 853 l 392 883 "},"ǰ":{"ha":383,"x_min":0,"x_max":0,"o":"m 253 -76 b 86 -282 253 -194 182 -282 b -46 -190 15 -282 -46 -246 b 4 -139 -46 -160 -26 -139 b 54 -189 36 -139 54 -162 b 10 -239 54 -228 19 -237 b 88 -260 40 -258 78 -260 b 182 -82 169 -260 182 -151 l 182 481 b 79 557 182 547 171 557 l 79 593 l 253 608 l 253 -76 m 197 717 l -14 942 l 4 961 l 197 811 l 390 961 l 408 942 "},"Ĵ":{"ha":654,"x_min":0,"x_max":0,"o":"m 582 913 b 501 886 539 913 507 913 b 499 815 499 878 499 839 l 499 232 b 497 172 499 185 499 182 b 272 -22 481 56 381 -22 b 74 156 158 -22 74 63 b 133 217 74 196 100 217 b 192 158 168 217 192 192 b 132 99 192 117 158 99 b 114 101 126 99 119 100 b 269 0 150 17 233 0 b 410 204 340 0 410 76 l 410 847 b 299 913 410 897 407 913 l 265 913 l 265 949 b 446 946 324 946 388 946 l 582 949 l 582 913 m 617 1010 l 422 1101 l 228 1010 l 214 1032 l 424 1194 l 633 1032 "},"ĵ":{"ha":383,"x_min":0,"x_max":0,"o":"m 253 -76 b 86 -282 253 -194 182 -282 b -46 -190 15 -282 -46 -246 b 4 -139 -46 -160 -26 -139 b 54 -189 36 -139 54 -162 b 10 -239 54 -228 19 -237 b 88 -260 40 -258 78 -260 b 182 -82 169 -260 182 -151 l 182 481 b 79 557 182 547 171 557 l 79 593 l 253 608 l 253 -76 m 390 717 l 197 867 l 4 717 l -14 736 l 197 961 l 408 736 "},"Κ":{"ha":999,"x_min":0,"x_max":0,"o":"m 951 0 b 829 3 919 3 863 3 b 675 0 783 3 719 3 l 675 36 b 732 72 693 36 732 36 b 714 118 732 86 722 104 l 451 521 l 274 344 l 274 99 b 385 36 274 36 289 36 l 385 0 b 228 3 344 3 271 3 b 71 0 185 3 111 3 l 71 36 b 182 99 167 36 182 36 l 182 850 b 71 913 182 913 167 913 l 71 949 b 228 946 111 946 185 946 b 385 949 271 946 344 946 l 385 913 b 274 850 289 913 274 913 l 274 379 l 735 842 b 746 875 740 850 746 865 b 704 913 746 885 740 910 l 704 949 b 843 946 740 946 806 946 l 933 949 l 933 913 b 753 822 856 910 803 871 l 513 582 l 822 108 b 951 36 864 44 885 36 l 951 0 "},"Ķ":{"ha":999,"x_min":0,"x_max":0,"o":"m 951 0 b 829 3 919 3 863 3 b 675 0 783 3 719 3 l 675 36 b 732 72 693 36 732 36 b 714 118 732 86 722 104 l 451 521 l 274 344 l 274 99 b 385 36 274 36 289 36 l 385 0 b 228 3 344 3 271 3 b 71 0 185 3 111 3 l 71 36 b 182 99 167 36 182 36 l 182 850 b 71 913 182 913 167 913 l 71 949 b 228 946 111 946 185 946 b 385 949 271 946 344 946 l 385 913 b 274 850 289 913 274 913 l 274 379 l 735 842 b 746 875 740 850 746 865 b 704 913 746 885 740 910 l 704 949 b 843 946 740 946 806 946 l 933 949 l 933 913 b 753 822 856 910 803 871 l 513 582 l 822 108 b 951 36 864 44 885 36 l 951 0 m 547 -165 b 469 -354 547 -281 475 -354 b 461 -346 465 -354 461 -350 b 465 -336 461 -346 461 -342 b 531 -164 510 -285 531 -226 b 528 -135 531 -147 531 -144 b 494 -151 519 -147 507 -151 b 451 -110 471 -151 451 -136 b 494 -67 451 -82 471 -67 b 547 -165 543 -67 547 -131 "},"ķ":{"ha":674,"x_min":0,"x_max":0,"o":"m 560 3 b 432 0 525 3 465 3 l 432 36 b 474 65 449 36 474 40 b 443 128 474 83 460 103 l 303 336 l 207 249 l 207 96 b 301 36 207 42 213 36 l 301 0 b 172 3 268 3 207 3 b 43 0 138 3 76 3 l 43 36 b 138 96 132 36 138 43 l 138 838 b 43 913 138 904 125 913 l 43 949 l 208 964 l 208 283 l 418 475 b 447 529 418 475 447 501 b 414 561 447 549 433 560 l 414 597 b 550 594 451 594 511 594 l 618 596 b 631 597 618 596 622 597 l 631 561 b 465 486 594 560 544 553 l 354 382 b 363 367 354 378 361 369 l 538 110 b 660 36 579 49 594 36 l 660 0 m 385 -165 b 307 -354 385 -281 313 -354 b 299 -346 303 -354 299 -350 b 303 -336 299 -346 299 -342 b 368 -164 347 -285 368 -226 b 365 -135 368 -147 368 -144 b 332 -151 357 -147 344 -151 b 289 -110 308 -151 289 -136 b 332 -67 289 -82 308 -67 b 385 -165 381 -67 385 -131 "},"Ĺ":{"ha":800,"x_min":0,"x_max":0,"o":"m 719 0 l 71 0 l 71 36 b 182 99 167 36 182 36 l 182 850 b 71 913 182 913 167 913 l 71 949 b 232 946 111 946 189 946 b 413 949 289 946 356 946 l 413 913 l 382 913 b 274 849 276 913 274 899 l 274 90 b 332 36 274 43 276 36 l 461 36 b 728 351 699 36 717 214 l 753 351 m 413 1199 b 386 1169 410 1183 406 1182 l 153 1024 b 142 1042 151 1026 142 1042 b 154 1056 142 1042 142 1044 l 343 1225 b 374 1243 357 1236 364 1243 b 413 1199 397 1243 415 1222 "},"ĺ":{"ha":347,"x_min":0,"x_max":0,"o":"m 307 0 b 176 3 274 3 213 3 b 47 0 142 3 81 3 l 47 36 b 142 96 136 36 142 43 l 142 838 b 47 913 142 904 129 913 l 47 949 l 213 964 l 213 96 b 307 36 213 42 218 36 l 307 0 m 354 1214 b 328 1185 351 1199 347 1197 l 94 1039 b 83 1057 93 1042 83 1057 b 96 1071 83 1057 83 1060 l 285 1240 b 315 1258 299 1251 306 1258 b 354 1214 339 1258 357 1238 "},"Λ":{"ha":890,"x_min":0,"x_max":0,"o":"m 857 0 b 726 3 825 3 761 3 b 572 0 683 3 613 3 l 572 36 b 660 75 601 36 660 36 b 653 101 660 79 660 82 l 411 835 l 181 133 b 174 101 176 119 174 111 b 251 36 174 92 178 39 l 251 0 b 129 3 218 3 164 3 l 32 0 l 32 36 b 149 128 78 38 124 54 l 422 958 b 444 982 429 981 431 982 b 467 958 458 982 460 981 l 754 85 b 857 36 771 36 796 36 l 857 0 "},"Ľ":{"ha":800,"x_min":0,"x_max":0,"o":"m 719 0 l 71 0 l 71 36 b 182 99 167 36 182 36 l 182 850 b 71 913 182 913 167 913 l 71 949 b 232 946 111 946 189 946 b 413 949 289 946 356 946 l 413 913 l 382 913 b 274 849 276 913 274 899 l 274 90 b 332 36 274 43 276 36 l 461 36 b 728 351 699 36 717 214 l 753 351 m 581 850 b 503 661 581 735 508 661 b 494 669 499 661 494 665 b 499 679 494 669 494 674 b 564 851 543 731 564 789 b 561 881 564 868 564 871 b 528 864 553 868 540 864 b 485 906 504 864 485 879 b 528 949 485 933 504 949 b 581 850 576 949 581 885 "},"ľ":{"ha":347,"x_min":0,"x_max":0,"o":"m 307 0 b 176 3 274 3 213 3 b 47 0 142 3 81 3 l 47 36 b 142 96 136 36 142 43 l 142 838 b 47 913 142 904 129 913 l 47 949 l 213 964 l 213 96 b 307 36 213 42 218 36 l 307 0 m 357 865 b 279 676 357 750 285 676 b 271 685 275 676 271 681 b 275 694 271 685 271 689 b 340 867 319 746 340 804 b 338 896 340 883 340 886 b 304 879 329 883 317 879 b 261 921 281 879 261 894 b 304 964 261 949 281 964 b 357 865 353 964 357 900 "},"Ļ":{"ha":800,"x_min":0,"x_max":0,"o":"m 719 0 l 71 0 l 71 36 b 182 99 167 36 182 36 l 182 850 b 71 913 182 913 167 913 l 71 949 b 232 946 111 946 189 946 b 413 949 289 946 356 946 l 413 913 l 382 913 b 274 849 276 913 274 899 l 274 90 b 332 36 274 43 276 36 l 461 36 b 728 351 699 36 717 214 l 753 351 m 449 -165 b 371 -354 449 -281 376 -354 b 363 -346 367 -354 363 -350 b 367 -336 363 -346 363 -342 b 432 -164 411 -285 432 -226 b 429 -135 432 -147 432 -144 b 396 -151 421 -147 408 -151 b 353 -110 372 -151 353 -136 b 396 -67 353 -82 372 -67 b 449 -165 444 -67 449 -131 "},"ļ":{"ha":347,"x_min":0,"x_max":0,"o":"m 307 0 b 176 3 274 3 213 3 b 47 0 142 3 81 3 l 47 36 b 142 96 136 36 142 43 l 142 838 b 47 913 142 904 129 913 l 47 949 l 213 964 l 213 96 b 307 36 213 42 218 36 l 307 0 m 222 -165 b 144 -354 222 -281 150 -354 b 136 -346 140 -354 136 -350 b 140 -336 136 -346 136 -342 b 206 -164 185 -285 206 -226 b 203 -135 206 -147 206 -144 b 169 -151 194 -147 182 -151 b 126 -110 146 -151 126 -136 b 169 -67 126 -82 146 -67 b 222 -165 218 -67 222 -131 "},"Ŀ":{"ha":800,"x_min":0,"x_max":0,"o":"m 719 0 l 71 0 l 71 36 b 182 99 167 36 182 36 l 182 850 b 71 913 182 913 167 913 l 71 949 b 232 946 111 946 189 946 b 413 949 289 946 356 946 l 413 913 l 382 913 b 274 849 276 913 274 899 l 274 90 b 332 36 274 43 276 36 l 461 36 b 728 351 699 36 717 214 l 753 351 m 683 558 b 626 501 683 528 660 501 b 571 558 597 501 571 525 b 628 615 571 589 594 615 b 683 558 657 615 683 592 "},"ŀ":{"ha":347,"x_min":0,"x_max":0,"o":"m 307 0 b 176 3 274 3 213 3 b 47 0 142 3 81 3 l 47 36 b 142 96 136 36 142 43 l 142 838 b 47 913 142 904 129 913 l 47 949 l 213 964 l 213 96 b 307 36 213 42 218 36 l 307 0 m 406 504 b 349 447 406 474 382 447 b 293 504 319 447 293 471 b 350 561 293 535 317 561 b 406 504 379 561 406 538 "},"Ḷ":{"ha":800,"x_min":0,"x_max":0,"o":"m 719 0 l 71 0 l 71 36 b 182 99 167 36 182 36 l 182 850 b 71 913 182 913 167 913 l 71 949 b 232 946 111 946 189 946 b 413 949 289 946 356 946 l 413 913 l 382 913 b 274 849 276 913 274 899 l 274 90 b 332 36 274 43 276 36 l 461 36 b 728 351 699 36 717 214 l 753 351 m 456 -221 b 399 -278 456 -251 432 -278 b 343 -221 369 -278 343 -254 b 400 -164 343 -190 367 -164 b 456 -221 429 -164 456 -187 "},"ḷ":{"ha":347,"x_min":0,"x_max":0,"o":"m 307 0 b 176 3 274 3 213 3 b 47 0 142 3 81 3 l 47 36 b 142 96 136 36 142 43 l 142 838 b 47 913 142 904 129 913 l 47 949 l 213 964 l 213 96 b 307 36 213 42 218 36 l 307 0 m 229 -221 b 172 -278 229 -251 206 -278 b 117 -221 143 -278 117 -254 b 174 -164 117 -190 140 -164 b 229 -221 203 -164 229 -187 "},"Ḹ":{"ha":800,"x_min":0,"x_max":0,"o":"m 719 0 l 71 0 l 71 36 b 182 99 167 36 182 36 l 182 850 b 71 913 182 913 167 913 l 71 949 b 232 946 111 946 189 946 b 413 949 289 946 356 946 l 413 913 l 382 913 b 274 849 276 913 274 899 l 274 90 b 332 36 274 43 276 36 l 461 36 b 728 351 699 36 717 214 l 753 351 m 456 -221 b 399 -278 456 -251 432 -278 b 343 -221 369 -278 343 -254 b 400 -164 343 -190 367 -164 b 456 -221 429 -164 456 -187 m 6 1038 l 6 1069 l 478 1069 l 478 1038 "},"ḹ":{"ha":347,"x_min":0,"x_max":0,"o":"m 307 0 b 176 3 274 3 213 3 b 47 0 142 3 81 3 l 47 36 b 142 96 136 36 142 43 l 142 838 b 47 913 142 904 129 913 l 47 949 l 213 964 l 213 96 b 307 36 213 42 218 36 l 307 0 m 229 -221 b 172 -278 229 -251 206 -278 b 117 -221 143 -278 117 -254 b 174 -164 117 -190 140 -164 b 229 -221 203 -164 229 -187 m -79 1053 l -79 1085 l 393 1085 l 393 1053 "},"̲":{"ha":0,"x_min":0,"x_max":0,"o":"m -556 -236 l -556 -204 l -83 -204 l -83 -236 "},"₤":{"ha":963,"x_min":0,"x_max":0,"o":"m 879 200 b 744 -37 879 83 844 -37 b 467 114 633 -37 553 46 b 208 -22 449 19 328 -22 b 83 103 139 -22 83 35 b 265 229 83 185 174 229 b 397 186 314 229 357 211 b 374 408 396 260 385 335 l 153 408 l 153 444 l 369 444 l 363 504 l 153 504 l 153 540 l 360 540 b 358 599 358 560 358 579 b 583 949 358 772 429 949 b 783 749 693 949 783 858 b 733 699 783 721 761 699 b 683 749 706 699 683 721 b 733 799 683 776 706 799 b 751 794 739 799 746 797 b 583 924 732 869 664 924 b 433 599 450 924 433 753 l 435 540 l 633 540 l 633 504 l 438 504 l 443 444 l 633 444 l 633 408 l 446 408 b 469 138 457 318 469 229 l 469 135 b 700 18 540 78 610 18 b 854 200 790 18 854 104 l 879 200 m 397 161 b 265 204 357 188 314 204 b 108 103 188 204 108 172 b 208 3 108 47 153 3 b 397 161 308 3 397 67 "},"¬":{"ha":1000,"x_min":0,"x_max":0,"o":"m 935 222 b 911 199 935 210 924 199 b 888 222 899 199 888 210 l 888 447 l 88 447 b 64 471 75 447 64 458 b 88 494 64 483 75 494 l 911 494 b 935 471 924 494 935 483 l 935 222 "},"ſ":{"ha":383,"x_min":0,"x_max":0,"o":"m 435 890 b 388 843 435 854 407 843 b 340 890 368 843 340 854 b 381 938 340 925 381 938 b 328 953 367 947 346 953 b 213 765 268 953 213 881 l 213 99 b 329 36 213 36 229 36 l 329 0 b 181 3 292 3 221 3 b 47 0 144 3 81 3 l 47 36 b 142 96 142 36 142 43 l 142 561 l 31 561 l 31 597 l 142 597 l 142 763 b 329 975 142 910 250 975 b 435 890 385 975 435 943 "},"Ł":{"ha":800,"x_min":0,"x_max":0,"o":"m 728 351 b 461 36 717 214 699 36 l 332 36 b 274 90 276 36 274 43 l 274 478 l 522 675 l 494 711 l 274 536 l 274 849 b 382 913 274 899 276 913 l 413 913 l 413 949 b 232 946 356 946 289 946 b 71 949 189 946 111 946 l 71 913 b 182 850 167 913 182 913 l 182 475 l 60 375 l 90 340 l 182 417 l 182 99 b 71 36 182 36 167 36 l 71 0 l 719 0 l 753 351 "},"ł":{"ha":424,"x_min":0,"x_max":0,"o":"m 257 456 l 257 96 b 351 36 257 42 263 36 l 351 0 b 221 3 318 3 257 3 b 92 0 186 3 125 3 l 92 36 b 186 96 181 36 186 43 l 186 401 l 99 336 l 76 364 l 186 447 l 186 838 b 92 913 186 904 174 913 l 92 949 l 257 964 l 257 501 l 338 564 l 360 535 "},"¯":{"ha":638,"x_min":0,"x_max":0,"o":"m 82 824 l 82 856 l 554 856 l 554 824 "},"̱":{"ha":0,"x_min":0,"x_max":0,"o":"m -556 -236 l -556 -204 l -83 -204 l -83 -236 "},"̄":{"ha":0,"x_min":0,"x_max":0,"o":"m -556 824 l -556 856 l -83 856 l -83 824 "},"⚭":{"ha":653,"x_min":0,"x_max":0,"o":"m 749 347 b 483 50 749 201 643 50 b 326 111 429 50 364 71 l 325 111 b 168 50 288 71 222 50 b -97 349 0 50 -97 210 b 171 647 -97 494 7 647 b 326 586 228 647 283 624 b 482 647 361 625 428 647 b 749 347 657 647 749 482 m 700 349 b 496 599 700 467 640 581 l 482 599 b 389 579 450 599 418 592 b 354 560 376 574 367 565 b 374 532 360 550 368 542 b 428 346 411 483 428 408 b 354 138 428 263 396 207 b 479 99 397 115 432 99 b 700 349 621 99 700 219 m 297 138 b 274 171 290 149 281 160 b 224 346 239 224 224 283 b 254 490 224 396 233 444 b 297 560 267 515 283 536 b 263 579 285 565 275 574 b 169 599 233 592 201 599 l 156 599 b -49 349 11 581 -49 467 b 172 99 -49 197 47 99 b 297 138 219 99 254 115 m 396 347 b 326 535 396 421 369 478 l 325 535 b 256 350 282 478 256 424 b 326 163 256 281 279 213 b 396 347 369 224 396 274 "},"Ṃ":{"ha":1181,"x_min":0,"x_max":0,"o":"m 1106 0 b 951 3 1068 3 992 3 b 799 0 911 3 836 3 l 799 36 b 910 99 894 36 910 36 l 910 914 l 908 914 l 579 22 b 560 0 574 8 571 0 b 540 22 549 0 546 8 l 214 907 l 213 907 l 213 136 b 324 36 213 101 213 36 l 324 0 b 199 3 292 3 233 3 b 74 0 164 3 106 3 l 74 36 b 185 136 185 36 185 101 l 185 850 b 74 913 185 913 169 913 l 74 949 l 251 949 b 290 926 281 949 282 947 l 590 113 l 890 926 b 929 949 899 947 900 949 l 1106 949 l 1106 913 b 994 850 1010 913 994 913 l 994 99 b 1106 36 994 36 1010 36 l 1106 0 m 646 -221 b 589 -278 646 -251 622 -278 b 533 -221 560 -278 533 -254 b 590 -164 533 -190 557 -164 b 646 -221 619 -164 646 -187 "},"ṃ":{"ha":1072,"x_min":0,"x_max":0,"o":"m 1033 0 b 901 3 1000 3 938 3 b 771 0 865 3 804 3 l 771 36 b 865 96 860 36 865 43 l 865 428 b 751 586 865 494 854 586 b 576 363 654 586 576 490 l 576 96 b 671 36 576 42 582 36 l 671 0 b 539 3 638 3 575 3 b 408 0 503 3 442 3 l 408 36 b 503 96 497 36 503 43 l 503 428 b 389 586 503 494 492 586 b 214 363 292 586 214 490 l 214 96 b 308 36 214 42 219 36 l 308 0 b 176 3 275 3 213 3 b 46 0 140 3 79 3 l 46 36 b 140 96 135 36 140 43 l 140 482 b 46 557 140 549 128 557 l 46 593 l 210 608 l 210 468 l 211 468 b 399 608 232 524 289 608 b 575 469 476 608 558 583 l 576 469 b 761 608 601 544 667 608 b 939 422 926 608 939 492 l 939 96 b 1033 36 939 42 944 36 l 1033 0 m 592 -221 b 535 -278 592 -251 568 -278 b 479 -221 506 -278 479 -254 b 536 -164 479 -190 503 -164 b 592 -221 565 -164 592 -187 "},"℧":{"ha":928,"x_min":0,"x_max":0,"o":"m 853 747 b 828 851 839 811 836 829 b 738 882 821 871 817 882 l 625 882 b 735 643 640 801 674 742 b 864 319 803 533 864 435 b 464 -21 864 133 690 -21 b 65 319 243 -21 65 132 b 197 649 65 435 125 531 b 304 882 256 742 289 801 l 192 882 b 100 850 111 882 107 871 b 76 747 93 828 89 811 l 51 747 l 92 950 l 301 950 b 332 928 331 950 332 950 b 260 647 332 831 282 704 b 171 318 208 521 171 425 b 465 1 171 115 314 1 b 758 318 610 1 758 111 b 672 640 758 426 717 532 b 597 928 649 700 597 829 b 628 950 597 949 599 950 l 838 950 l 878 747 "},"−":{"ha":1000,"x_min":0,"x_max":0,"o":"m 935 347 b 893 324 935 324 914 324 l 106 324 b 64 347 85 324 64 324 b 111 372 64 372 88 372 l 888 372 b 935 347 911 372 935 372 "},"Μ":{"ha":1181,"x_min":0,"x_max":0,"o":"m 1106 0 b 951 3 1068 3 992 3 b 799 0 911 3 836 3 l 799 36 b 910 99 894 36 910 36 l 910 914 l 908 914 l 579 22 b 560 0 574 8 571 0 b 540 22 549 0 546 8 l 214 907 l 213 907 l 213 136 b 324 36 213 101 213 36 l 324 0 b 199 3 292 3 233 3 b 74 0 164 3 106 3 l 74 36 b 185 136 185 36 185 101 l 185 850 b 74 913 185 913 169 913 l 74 949 l 251 949 b 290 926 281 949 282 947 l 590 113 l 890 926 b 929 949 899 947 900 949 l 1106 949 l 1106 913 b 994 850 1010 913 994 913 l 994 99 b 1106 36 994 36 1010 36 l 1106 0 "},"µ":{"ha":710,"x_min":0,"x_max":0,"o":"m 506 -11 l 506 118 l 504 118 b 329 -11 493 89 447 -11 b 214 14 274 -11 238 0 l 214 -175 b 308 -235 214 -229 219 -235 l 308 -271 b 176 -268 275 -268 213 -268 b 46 -271 140 -268 79 -268 l 46 -235 b 140 -175 135 -235 140 -228 l 140 501 b 46 557 139 557 101 557 l 46 593 l 214 608 l 214 151 b 338 11 214 79 224 11 b 503 229 440 11 503 113 l 503 482 b 408 557 503 549 490 557 l 408 593 l 576 608 l 576 111 b 671 36 576 44 589 36 l 671 0 "},"×":{"ha":1000,"x_min":0,"x_max":0,"o":"m 808 654 b 794 607 825 638 808 621 l 533 347 l 794 86 b 807 38 808 72 825 56 b 760 51 790 21 774 38 l 500 313 l 239 51 b 190 39 225 38 208 21 b 204 86 174 56 190 72 l 465 347 l 204 607 b 192 656 190 621 174 638 b 239 642 208 672 225 656 l 500 381 l 760 642 b 808 654 774 656 790 672 "},"♪":{"ha":799,"x_min":0,"x_max":0,"o":"m 726 204 b 700 169 726 188 719 169 l 699 169 b 678 196 686 172 678 183 l 678 207 b 675 247 676 221 676 233 b 536 626 660 382 590 504 b 504 703 525 651 517 678 l 504 293 l 503 183 l 503 149 b 288 -33 489 32 383 -33 b 72 169 179 -33 72 51 b 288 350 72 286 188 350 b 456 285 349 350 410 328 l 456 925 b 481 965 456 942 456 965 b 507 883 511 965 504 913 b 726 204 536 649 726 449 "},"Ń":{"ha":963,"x_min":0,"x_max":0,"o":"m 890 913 b 779 813 779 913 779 847 l 779 31 b 765 0 779 4 779 0 b 744 17 758 0 754 0 l 229 860 b 210 885 219 874 219 876 l 210 136 b 321 36 210 101 210 36 l 321 0 b 196 3 289 3 231 3 b 71 0 161 3 103 3 l 71 36 b 182 136 182 36 182 101 l 182 904 b 97 913 178 906 153 913 l 71 913 l 71 949 l 247 949 b 285 932 274 949 275 947 l 751 169 l 751 813 b 640 913 751 847 751 913 l 640 949 b 765 946 672 946 731 946 b 890 949 800 946 858 946 l 890 913 m 661 1199 b 635 1169 658 1183 654 1182 l 401 1024 b 390 1042 400 1026 390 1042 b 403 1056 390 1042 390 1044 l 592 1225 b 622 1243 606 1236 613 1243 b 661 1199 646 1243 664 1222 "},"ń":{"ha":710,"x_min":0,"x_max":0,"o":"m 671 0 b 539 3 638 3 575 3 b 408 0 503 3 442 3 l 408 36 b 503 96 497 36 503 43 l 503 428 b 389 586 503 494 492 586 b 214 363 292 586 214 490 l 214 96 b 308 36 214 42 219 36 l 308 0 b 176 3 275 3 213 3 b 46 0 140 3 79 3 l 46 36 b 140 96 135 36 140 43 l 140 482 b 46 557 140 549 128 557 l 46 593 l 210 608 l 210 468 l 211 468 b 399 608 232 524 289 608 b 576 422 563 608 576 493 l 576 96 b 671 36 576 42 582 36 l 671 0 m 515 929 b 494 896 515 914 511 911 l 290 711 l 275 728 b 285 743 275 728 275 731 l 442 943 b 478 967 456 960 461 967 b 515 929 497 967 515 950 "}}}
